<svg width="102" height="65" viewBox="0 0 102 65" fill="none" xmlns="http://www.w3.org/2000/svg">
<rect x="24.3401" y="11.7275" width="52.6073" height="44.7555" fill="#494949"/>
<path d="M50.6631 0L101.327 16.0648L50.6635 32.1297L0 16.0649L50.6631 0Z" fill="#494949"/>
<ellipse cx="50.6438" cy="56.4832" rx="26.3037" ry="7.85184" fill="#494949"/>
<path fill-rule="evenodd" clip-rule="evenodd" d="M24.3032 43.9204V52.0318C24.3032 55.7649 36.1058 58.7912 50.6651 58.7912C65.2243 58.7912 77.0269 55.7649 77.0269 52.0318V43.9204C77.0267 47.6535 65.2242 50.6797 50.6651 50.6797C36.106 50.6797 24.3035 47.6535 24.3032 43.9204Z" fill="white"/>
<path d="M50.6966 14.0698L8.11206 18.8014V28.9406" stroke="white"/>
<path d="M6.75997 34.3477H9.46375L10.8156 47.8666H5.40808L6.75997 34.3477Z" fill="#494949"/>
<path d="M6.76001 31.6445C7.8202 32.2836 8.40312 32.2582 9.46379 31.6445V34.3483C8.49363 35.0036 7.89206 34.9792 6.76001 34.3483V31.6445Z" fill="white"/>
<circle cx="8.11186" cy="30.2926" r="2.70378" fill="#494949"/>
<path d="M44.0296 40.7001V42.2201H58.0296V40.7001H44.0296ZM46.8616 37.9641V39.3241H53.6776V37.9641H46.8616ZM50.0616 39.9641V43.3241C50.0616 43.5161 49.9816 43.5641 49.7256 43.5801C49.4856 43.5801 48.5256 43.5961 47.7576 43.5641C47.9976 43.9961 48.2536 44.6681 48.3496 45.1801C49.5656 45.1801 50.4616 45.1641 51.1016 44.9241C51.7736 44.6841 51.9496 44.2521 51.9496 43.3881V39.9641H50.0616ZM53.2296 37.9641V38.2841C52.6856 38.8761 51.5016 39.7721 50.5416 40.2521C50.7656 40.4761 51.1976 40.9401 51.4056 41.2281C52.6856 40.6041 54.1096 39.6921 55.1656 38.8441L54.0936 37.8681L53.6936 37.9641H53.2296ZM44.0136 35.9001V39.1961H45.8376V37.2921H56.1576V39.1961H58.0616V35.9001H44.0136ZM44.9416 30.8441L45.2776 36.5081H47.0536L46.7656 31.5481C47.0216 31.5001 47.1496 31.4201 47.1816 31.2921L44.9416 30.8441ZM55.3896 30.6681C55.3256 32.5881 55.1496 35.0201 54.9416 36.5881H56.7816C56.9576 35.0681 57.1176 32.6361 57.2136 30.6681H55.3896ZM53.1336 30.6681V31.8681H56.0936V30.6681H53.1336ZM48.1736 30.2201C47.4376 30.5401 46.2056 31.0361 45.3576 31.2281L46.1256 32.2201C46.9736 32.0121 48.1896 31.6761 49.0696 31.2441L48.1736 30.2201ZM45.9496 32.4121V33.5961H48.9576V32.4121H45.9496ZM45.9976 34.1561V35.3401H48.9896V34.1561H45.9976ZM53.1976 32.4121V33.5961H55.9016V32.4121H53.1976ZM53.1496 34.1561V35.3401H55.8536V34.1561H53.1496ZM51.5656 30.2361C50.9576 31.0201 49.8856 31.7241 48.7816 32.2041C49.0856 32.4121 49.5816 32.8281 49.7896 33.0681C50.8776 32.4921 52.0776 31.5801 52.7976 30.6041L51.5656 30.2361ZM49.1816 31.0681C50.1256 31.5801 51.2936 32.3641 51.8536 32.9081L52.7656 32.1081C52.1736 31.5481 50.9896 30.7961 50.0456 30.3481L49.1816 31.0681ZM51.6296 32.9241C51.0216 33.7561 49.9016 34.5081 48.7656 35.0201C49.0696 35.2281 49.5656 35.6601 49.7896 35.8841C50.9096 35.2921 52.1576 34.3321 52.8936 33.2921L51.6296 32.9241ZM49.2296 33.8041C50.2056 34.3321 51.4056 35.1481 51.9656 35.7241L52.9256 34.9081C52.3016 34.3321 51.0696 33.5481 50.1096 33.0681L49.2296 33.8041Z" fill="white"/>
</svg>
