<svg width="102" height="65" viewBox="0 0 102 65" fill="none" xmlns="http://www.w3.org/2000/svg">
<rect x="24.3401" y="11.7275" width="52.6073" height="44.7555" fill="#E2E2E2"/>
<path d="M50.6631 0L101.327 16.0648L50.6635 32.1297L0 16.0649L50.6631 0Z" fill="#E2E2E2"/>
<ellipse cx="50.6438" cy="56.4832" rx="26.3037" ry="7.85184" fill="#E2E2E2"/>
<path fill-rule="evenodd" clip-rule="evenodd" d="M24.3 43.9204V52.0318C24.3 55.7649 36.1027 58.7912 50.6619 58.7912C65.2212 58.7912 77.0238 55.7649 77.0238 52.0318V43.9204C77.0235 47.6535 65.221 50.6797 50.6619 50.6797C36.1028 50.6797 24.3003 47.6535 24.3 43.9204Z" fill="#C5C5C5"/>
<path d="M50.6966 14.0698L8.11206 18.8014V28.9406" stroke="white"/>
<path d="M6.75997 34.3477H9.46375L10.8156 47.8666H5.40808L6.75997 34.3477Z" fill="#C5C5C5"/>
<path d="M6.75806 31.6445C7.81825 32.2836 8.40117 32.2582 9.46184 31.6445V34.3483C8.49168 35.0036 7.89011 34.9792 6.75806 34.3483V31.6445Z" fill="white"/>
<circle cx="8.11186" cy="30.2926" r="2.70378" fill="#C5C5C5"/>
<path d="M44.0289 40.7001V42.2201H58.0289V40.7001H44.0289ZM46.8609 37.9641V39.3241H53.6769V37.9641H46.8609ZM50.0609 39.9641V43.3241C50.0609 43.5161 49.9809 43.5641 49.7249 43.5801C49.4849 43.5801 48.5249 43.5961 47.7569 43.5641C47.9969 43.9961 48.2529 44.6681 48.3489 45.1801C49.5649 45.1801 50.4609 45.1641 51.1009 44.9241C51.7729 44.6841 51.9489 44.2521 51.9489 43.3881V39.9641H50.0609ZM53.2289 37.9641V38.2841C52.6849 38.8761 51.5009 39.7721 50.5409 40.2521C50.7649 40.4761 51.1969 40.9401 51.4049 41.2281C52.6849 40.6041 54.1089 39.6921 55.1649 38.8441L54.0929 37.8681L53.6929 37.9641H53.2289ZM44.0129 35.9001V39.1961H45.8369V37.2921H56.1569V39.1961H58.0609V35.9001H44.0129ZM44.9409 30.8441L45.2769 36.5081H47.0529L46.7649 31.5481C47.0209 31.5001 47.1489 31.4201 47.1809 31.2921L44.9409 30.8441ZM55.3889 30.6681C55.3249 32.5881 55.1489 35.0201 54.9409 36.5881H56.7809C56.9569 35.0681 57.1169 32.6361 57.2129 30.6681H55.3889ZM53.1329 30.6681V31.8681H56.0929V30.6681H53.1329ZM48.1729 30.2201C47.4369 30.5401 46.2049 31.0361 45.3569 31.2281L46.1249 32.2201C46.9729 32.0121 48.1889 31.6761 49.0689 31.2441L48.1729 30.2201ZM45.9489 32.4121V33.5961H48.9569V32.4121H45.9489ZM45.9969 34.1561V35.3401H48.9889V34.1561H45.9969ZM53.1969 32.4121V33.5961H55.9009V32.4121H53.1969ZM53.1489 34.1561V35.3401H55.8529V34.1561H53.1489ZM51.5649 30.2361C50.9569 31.0201 49.8849 31.7241 48.7809 32.2041C49.0849 32.4121 49.5809 32.8281 49.7889 33.0681C50.8769 32.4921 52.0769 31.5801 52.7969 30.6041L51.5649 30.2361ZM49.1809 31.0681C50.1249 31.5801 51.2929 32.3641 51.8529 32.9081L52.7649 32.1081C52.1729 31.5481 50.9889 30.7961 50.0449 30.3481L49.1809 31.0681ZM51.6289 32.9241C51.0209 33.7561 49.9009 34.5081 48.7649 35.0201C49.0689 35.2281 49.5649 35.6601 49.7889 35.8841C50.9089 35.2921 52.1569 34.3321 52.8929 33.2921L51.6289 32.9241ZM49.2289 33.8041C50.2049 34.3321 51.4049 35.1481 51.9649 35.7241L52.9249 34.9081C52.3009 34.3321 51.0689 33.5481 50.1089 33.0681L49.2289 33.8041Z" fill="#C5C5C5"/>
</svg>
