<svg width="102" height="65" viewBox="0 0 102 65" fill="none" xmlns="http://www.w3.org/2000/svg">
<rect x="24.3403" y="11.7275" width="52.6073" height="44.7555" fill="#E2E2E2"/>
<path d="M50.6631 0L101.327 16.0648L50.6635 32.1297L0 16.0649L50.6631 0Z" fill="#E2E2E2"/>
<ellipse cx="50.644" cy="56.4832" rx="26.3037" ry="7.85184" fill="#E2E2E2"/>
<path fill-rule="evenodd" clip-rule="evenodd" d="M24.3003 43.9204V52.0318C24.3003 55.7649 36.1029 58.7912 50.6622 58.7912C65.2214 58.7912 77.024 55.7649 77.024 52.0318V43.9204C77.0238 47.6535 65.2213 50.6797 50.6622 50.6797C36.1031 50.6797 24.3005 47.6535 24.3003 43.9204Z" fill="#C5C5C5"/>
<path d="M50.6969 14.0698L8.1123 18.8014V28.9406" stroke="white"/>
<path d="M6.76009 34.3477H9.46387L10.8158 47.8666H5.4082L6.76009 34.3477Z" fill="#C5C5C5"/>
<path d="M6.7583 31.6445C7.81849 32.2836 8.40141 32.2582 9.46208 31.6445V34.3483C8.49192 35.0036 7.89035 34.9792 6.7583 34.3483V31.6445Z" fill="white"/>
<circle cx="8.11198" cy="30.2926" r="2.70378" fill="#C5C5C5"/>
<path d="M48.4289 31.8521V33.3401H58.4289V31.8521H48.4289ZM48.1249 39.8681V41.4041H58.5729V39.8681H48.1249ZM43.5009 34.1561V35.9001H48.7329V34.1561H43.5009ZM45.2449 30.1401V45.1641H47.1169V30.1401H45.2449ZM52.4929 30.1401V38.4441H54.3329V30.1401H52.4929ZM54.4289 38.8281V43.3721C54.4289 43.5641 54.3649 43.6121 54.1409 43.6121C53.9329 43.6121 53.1809 43.6121 52.5409 43.5961C52.7649 44.0441 52.9889 44.7001 53.0689 45.1801C54.1409 45.1801 54.9249 45.1641 55.5169 44.9241C56.0929 44.6681 56.2529 44.2521 56.2529 43.4201V38.8281H54.4289ZM49.5329 42.0761C50.2529 42.7001 51.1009 43.5961 51.4529 44.2041L52.8289 43.1641C52.4129 42.5721 51.5329 41.7241 50.8289 41.1481L49.5329 42.0761ZM54.8609 31.0841C55.5649 31.4361 56.4769 31.9961 56.9409 32.3801L57.8209 31.2761C57.3409 30.9241 56.3969 30.3961 55.6929 30.0921L54.8609 31.0841ZM50.8769 37.1321H56.0609V37.9001H50.8769V37.1321ZM50.8769 35.2441H56.0609V35.9801H50.8769V35.2441ZM49.1809 33.9961V39.1321H57.8369V33.9961H49.1809Z" fill="#C5C5C5"/>
</svg>
