<svg width="102" height="65" viewBox="0 0 102 65" fill="none" xmlns="http://www.w3.org/2000/svg">
<rect x="24.9952" y="11.7275" width="52.6073" height="44.7555" fill="#494949"/>
<path d="M51.3163 0L101.98 16.0648L51.3167 32.1297L0.653198 16.0649L51.3163 0Z" fill="#494949"/>
<ellipse cx="51.2989" cy="56.4832" rx="26.3037" ry="7.85184" fill="#494949"/>
<path fill-rule="evenodd" clip-rule="evenodd" d="M24.9542 43.9491V52.0318C24.9542 55.7649 36.7568 58.7912 51.3161 58.7912C65.8753 58.7912 77.6779 55.7649 77.6779 52.0318V43.9204H77.6777C77.6775 47.6535 65.875 50.6797 51.3159 50.6797C36.794 50.6797 25.0147 47.669 24.9542 43.9491Z" fill="#FF5454"/>
<path d="M51.3498 14.0698L8.76526 18.8014V28.9406" stroke="white"/>
<path d="M7.41317 34.3477H10.117L11.4688 47.8666H6.06128L7.41317 34.3477Z" fill="#FF5454"/>
<path d="M7.41321 31.6445C8.4734 32.2836 9.05632 32.2582 10.117 31.6445V34.3483C9.14683 35.0036 8.54526 34.9792 7.41321 34.3483V31.6445Z" fill="white"/>
<circle cx="8.76506" cy="30.2926" r="2.70378" fill="#FF5454"/>
<path d="M49.0834 31.8521V33.3401H59.0834V31.8521H49.0834ZM48.7794 39.8681V41.4041H59.2274V39.8681H48.7794ZM44.1554 34.1561V35.9001H49.3874V34.1561H44.1554ZM45.8994 30.1401V45.1641H47.7714V30.1401H45.8994ZM53.1474 30.1401V38.4441H54.9874V30.1401H53.1474ZM55.0834 38.8281V43.3721C55.0834 43.5641 55.0194 43.6121 54.7954 43.6121C54.5874 43.6121 53.8354 43.6121 53.1954 43.5961C53.4194 44.0441 53.6434 44.7001 53.7234 45.1801C54.7954 45.1801 55.5794 45.1641 56.1714 44.9241C56.7474 44.6681 56.9074 44.2521 56.9074 43.4201V38.8281H55.0834ZM50.1874 42.0761C50.9074 42.7001 51.7554 43.5961 52.1074 44.2041L53.4834 43.1641C53.0674 42.5721 52.1874 41.7241 51.4834 41.1481L50.1874 42.0761ZM55.5154 31.0841C56.2194 31.4361 57.1314 31.9961 57.5954 32.3801L58.4754 31.2761C57.9954 30.9241 57.0514 30.3961 56.3474 30.0921L55.5154 31.0841ZM51.5314 37.1321H56.7154V37.9001H51.5314V37.1321ZM51.5314 35.2441H56.7154V35.9801H51.5314V35.2441ZM49.8354 33.9961V39.1321H58.4914V33.9961H49.8354Z" fill="white"/>
</svg>
