<svg width="102" height="65" viewBox="0 0 102 65" fill="none" xmlns="http://www.w3.org/2000/svg">
<rect x="24.9956" y="11.7275" width="52.6073" height="44.7555" fill="#494949"/>
<path d="M51.3164 0L101.98 16.0648L51.3168 32.1297L0.65332 16.0649L51.3164 0Z" fill="#494949"/>
<ellipse cx="51.2993" cy="56.4832" rx="26.3037" ry="7.85184" fill="#494949"/>
<path fill-rule="evenodd" clip-rule="evenodd" d="M24.9546 43.9491V52.0318C24.9546 55.7649 36.7572 58.7912 51.3165 58.7912C65.8757 58.7912 77.6783 55.7649 77.6783 52.0318V43.9204H77.6781C77.6778 47.6535 65.8753 50.6797 51.3162 50.6797C36.7944 50.6797 25.0151 47.669 24.9546 43.9491Z" fill="#FF5454"/>
<path d="M51.3502 14.0698L8.76562 18.8014V28.9406" stroke="white"/>
<path d="M7.41341 34.3477H10.1172L11.4691 47.8666H6.06152L7.41341 34.3477Z" fill="#FF5454"/>
<path d="M7.41357 31.6445C8.47377 32.2836 9.05668 32.2582 10.1174 31.6445V34.3483C9.1472 35.0036 8.54563 34.9792 7.41357 34.3483V31.6445Z" fill="white"/>
<circle cx="8.7653" cy="30.2926" r="2.70378" fill="#FF5454"/>
<path d="M49.0837 31.8521V33.3401H59.0837V31.8521H49.0837ZM48.7797 39.8681V41.4041H59.2277V39.8681H48.7797ZM44.1557 34.1561V35.9001H49.3877V34.1561H44.1557ZM45.8997 30.1401V45.1641H47.7717V30.1401H45.8997ZM53.1477 30.1401V38.4441H54.9877V30.1401H53.1477ZM55.0837 38.8281V43.3721C55.0837 43.5641 55.0197 43.6121 54.7957 43.6121C54.5877 43.6121 53.8357 43.6121 53.1957 43.5961C53.4197 44.0441 53.6437 44.7001 53.7237 45.1801C54.7957 45.1801 55.5797 45.1641 56.1717 44.9241C56.7477 44.6681 56.9077 44.2521 56.9077 43.4201V38.8281H55.0837ZM50.1877 42.0761C50.9077 42.7001 51.7557 43.5961 52.1077 44.2041L53.4837 43.1641C53.0677 42.5721 52.1877 41.7241 51.4837 41.1481L50.1877 42.0761ZM55.5157 31.0841C56.2197 31.4361 57.1317 31.9961 57.5957 32.3801L58.4757 31.2761C57.9957 30.9241 57.0517 30.3961 56.3477 30.0921L55.5157 31.0841ZM51.5317 37.1321H56.7157V37.9001H51.5317V37.1321ZM51.5317 35.2441H56.7157V35.9801H51.5317V35.2441ZM49.8357 33.9961V39.1321H58.4917V33.9961H49.8357Z" fill="white"/>
</svg>
