<svg width="1550" height="1499" viewBox="0 0 1550 1499" fill="none" xmlns="http://www.w3.org/2000/svg">
<path fill-rule="evenodd" clip-rule="evenodd" d="M202 645.706L1114.44 0.269551L1255.88 690.245L1009.69 679.84L832.189 987.279L1549.55 1017.6L1425.55 1232.37L1206.74 1223.12L1177.74 1273.35L1396.55 1282.6L1272.05 1498.24L554.689 1467.92L380.844 1460.58L0.183513 1444.49L455.184 656.406L202 645.706ZM709.462 655.619L599.962 845.279L657.911 847.728L767.411 658.068L709.462 655.619ZM579.962 879.92L470.462 1069.58L528.411 1072.03L637.911 882.369L579.962 879.92ZM372.462 1239.32L450.462 1104.22L508.411 1106.67L459.411 1191.54L649.241 1199.56L620.241 1249.79L430.411 1241.77L401.436 1240.54L372.462 1239.32ZM879.01 1260.73L660.205 1251.48L689.205 1201.25L908.01 1210.5L879.01 1260.73ZM918.974 1262.42L1137.78 1271.66L1166.78 1221.43L947.974 1212.19L918.974 1262.42Z" fill="#FFD3C0"/>
</svg>
