<svg width="967" height="2376" viewBox="0 0 967 2376" fill="none" xmlns="http://www.w3.org/2000/svg">
<path fill-rule="evenodd" clip-rule="evenodd" d="M966.484 691.5L483.242 0L0 691.5H171.242V2375.5H218.242V694.5H279.242V2375.5H453.242V2152.5H514.242V2375.5H688.242V694.5H749.242V2375.5H795.242V691.5H966.484ZM453.242 694.5H514.242V917.5H453.242V694.5ZM514.242 937.5H453.242V1160.5H514.242V937.5ZM453.242 1180.5H514.242V1403.5H453.242V1180.5ZM514.242 1423.5H453.242V1646.5H514.242V1423.5ZM453.242 1666.5H514.242V1889.5H453.242V1666.5ZM514.242 1909.5H453.242V2132.5H514.242V1909.5Z" fill="#FFD3C0"/>
</svg>
