<svg width="1882" height="1385" viewBox="0 0 1882 1385" fill="none" xmlns="http://www.w3.org/2000/svg">
<path fill-rule="evenodd" clip-rule="evenodd" d="M282.777 377.691L0.598974 1296.95L903.975 1230.19L758.861 1031.04L1031.8 804.043L1454.64 1384.33L1645.31 1225.75L1516.34 1048.75L1560.93 1011.66L1689.91 1188.66L1881.35 1029.44L1458.51 449.154L1356.04 308.528L1131.66 0.605462L432.014 582.495L282.777 377.691ZM568.069 791.24L736.446 651.203L770.603 698.078L602.226 838.115L568.069 791.24ZM767.199 625.625L935.576 485.588L969.733 532.464L801.356 672.501L767.199 625.625ZM1086.27 360.258L966.329 460.011L1000.49 506.886L1075.83 444.221L1187.73 597.778L1232.32 560.691L1120.43 407.134L1103.35 383.696L1086.27 360.258ZM1384.85 770.013L1255.88 593.019L1211.28 630.106L1340.26 807.101L1384.85 770.013ZM1408.4 802.341L1537.38 979.336L1492.78 1016.42L1363.81 839.429L1408.4 802.341Z" fill="#FFD3C0"/>
</svg>
