<svg width="198" height="419" viewBox="0 0 198 419" fill="none" xmlns="http://www.w3.org/2000/svg">
<path d="M34.7522 287.012C34.3628 283.037 33.292 274.726 31.5398 262.078C29.9823 249.431 29.2035 239.583 29.2035 232.537C29.2035 222.599 33.0973 213.204 40.885 204.351C48.6726 195.497 60.7434 184.385 77.0974 171.015C96.177 155.476 110.584 142.016 120.319 130.633C130.248 119.069 135.212 106.06 135.212 91.6054C135.212 76.4282 129.956 65.226 119.442 57.9987C109.124 50.7715 93.4513 47.1578 72.4248 47.1578C60.1593 47.1578 47.5044 48.2419 34.4602 50.4101C21.4159 52.3976 13.1416 53.7527 9.63717 54.4754L0 12.738C1.9469 12.0153 6.71681 10.6602 14.3097 8.6727C21.9027 6.68521 31.2478 4.78805 42.3451 2.98124C53.6372 0.993747 64.6372 0 75.3451 0C111.168 0 140.566 6.68521 163.54 20.0556C186.513 33.426 198 55.4692 198 86.185C198 100.639 194.885 114.01 188.655 126.296C182.425 138.402 175.027 148.881 166.46 157.735C157.894 166.588 146.504 177.339 132.292 189.986C117.106 202.995 105.814 213.746 98.4159 222.238C91.0177 230.73 87.3186 239.764 87.3186 249.34C87.3186 258.194 87.5133 265.692 87.9027 271.835C88.292 277.978 88.4867 281.953 88.4867 283.76L34.7522 287.012ZM27.4513 380.244C27.4513 368.138 31.2478 358.652 38.8407 351.787C46.4336 344.921 55.5841 341.488 66.292 341.488C78.1681 341.488 87.6106 344.921 94.6195 351.787C101.823 358.652 105.425 368.138 105.425 380.244C105.425 392.169 101.726 401.655 94.3274 408.701C86.9292 415.567 77.5841 419 66.292 419C54.4159 419 44.9735 415.657 37.9646 408.972C30.9558 402.106 27.4513 392.53 27.4513 380.244Z" fill="#FFD3C0"/>
</svg>
