<svg width="102" height="65" viewBox="0 0 102 65" fill="none" xmlns="http://www.w3.org/2000/svg">
<rect x="24.667" y="11.7275" width="52.6073" height="44.7555" fill="#E2E2E2"/>
<path d="M50.9898 0L101.653 16.0648L50.9902 32.1297L0.32666 16.0649L50.9898 0Z" fill="#E2E2E2"/>
<ellipse cx="50.9707" cy="56.4832" rx="26.3037" ry="7.85184" fill="#E2E2E2"/>
<path fill-rule="evenodd" clip-rule="evenodd" d="M24.627 43.9204V52.0318C24.627 55.7649 36.4296 58.7912 50.9888 58.7912C65.5481 58.7912 77.3507 55.7649 77.3507 52.0318V43.9204C77.3504 47.6535 65.5479 50.6797 50.9888 50.6797C36.4297 50.6797 24.6272 47.6535 24.627 43.9204Z" fill="#C5C5C5"/>
<path d="M51.0235 14.0698L8.43896 18.8014V28.9406" stroke="white"/>
<path d="M7.08675 34.3477H9.79053L11.1424 47.8666H5.73486L7.08675 34.3477Z" fill="#C5C5C5"/>
<path d="M7.08496 31.6445C8.14515 32.2836 8.72807 32.2582 9.78874 31.6445V34.3483C8.81858 35.0036 8.21701 34.9792 7.08496 34.3483V31.6445Z" fill="white"/>
<circle cx="8.43864" cy="30.2926" r="2.70378" fill="#C5C5C5"/>
<path d="M50.6596 30.7481V32.4761H58.6116V30.7481H50.6596ZM52.8036 37.2441H56.2596V38.0921H52.8036V37.2441ZM52.8036 39.5321H56.2596V40.3801H52.8036V39.5321ZM52.8036 34.9721H56.2596V35.8201H52.8036V34.9721ZM51.0756 33.4521V41.9161H58.0836V33.4521H51.0756ZM52.5636 41.8361C51.8276 42.6521 50.4836 43.4201 49.1716 43.8841C49.5716 44.2041 50.2116 44.8921 50.5156 45.2441C51.8596 44.6201 53.3796 43.5641 54.3236 42.4441L52.5636 41.8361ZM53.6196 31.5321C53.5716 32.3161 53.3956 33.4041 53.2516 34.1721L54.9476 34.4761C55.1716 33.7881 55.4756 32.7801 55.7636 31.7721L53.6196 31.5321ZM43.9716 30.7801V32.5241H50.3556V30.7801H43.9716ZM46.0836 35.6121V37.2921H48.3876V41.1001H46.0836V42.7641H50.0836V35.6121H46.0836ZM45.9076 31.7081C45.5716 34.6201 44.9316 37.4041 43.6036 39.1321C43.9556 39.5481 44.4996 40.4921 44.6916 40.9081C46.3396 38.7801 47.2516 35.4521 47.7316 31.9641L45.9076 31.7081ZM45.2356 35.6121V44.0281H46.8996V35.6121H45.2356ZM55.0436 42.6361C55.9396 43.3881 57.0276 44.4601 57.5076 45.1641L59.0596 44.2041C58.5156 43.4841 57.3796 42.4601 56.4676 41.7561L55.0436 42.6361Z" fill="#C5C5C5"/>
</svg>
