<svg width="206" height="206" viewBox="0 0 206 206" fill="none" xmlns="http://www.w3.org/2000/svg">
<circle cx="104" cy="106" r="90" fill="#CAE0AD"/>
<circle cx="103" cy="103" r="94.5" stroke="#6C8264" stroke-width="17"/>
<rect x="47.6345" y="117.762" width="24.0674" height="30.2375" fill="#D9EAD5"/>
<rect x="54.8944" y="138.695" width="9.16854" height="9.3045" fill="#6C8264"/>
<ellipse cx="59.4787" cy="138.695" rx="4.58427" ry="3.60174" fill="#6C8264"/>
<path d="M59.6684 90L75.9043 126.875H43.4324L59.6684 90Z" fill="#D9EAD5"/>
<mask id="mask0_3_1894" style="mask-type:alpha" maskUnits="userSpaceOnUse" x="43" y="90" width="33" height="37">
<path d="M59.6703 90L75.9062 126.875H43.4343L59.6703 90Z" fill="#FFF7CD"/>
</mask>
<g mask="url(#mask0_3_1894)">
<path d="M43.4345 123.221H50.6929V127.277H43.4345V123.221Z" fill="#6C8264"/>
<path d="M51.839 123.221H59.0974V127.277H51.839V123.221Z" fill="#6C8264"/>
<path d="M60.2435 123.221H67.5019V127.277H60.2435V123.221Z" fill="#6C8264"/>
<path d="M68.648 123.221H75.9064V127.277H68.648V123.221Z" fill="#6C8264"/>
<path d="M41.5242 118.57H48.7826V122.626H41.5242V118.57Z" fill="#6C8264"/>
<path d="M49.9287 118.57H57.1871V122.626H49.9287V118.57Z" fill="#6C8264"/>
<path d="M58.3332 118.57H65.5916V122.626H58.3332V118.57Z" fill="#6C8264"/>
<path d="M66.7377 118.57H73.9961V122.626H66.7377V118.57Z" fill="#6C8264"/>
<path d="M75.1421 118.57H82.4006V122.626H75.1421V118.57Z" fill="#6C8264"/>
<path d="M43.4345 113.919H50.6929V117.975H43.4345V113.919Z" fill="#6C8264"/>
<path d="M51.839 113.919H59.0974V117.975H51.839V113.919Z" fill="#6C8264"/>
<path d="M60.2435 113.919H67.5019V117.975H60.2435V113.919Z" fill="#6C8264"/>
<path d="M68.648 113.919H75.9064V117.975H68.648V113.919Z" fill="#6C8264"/>
<path d="M77.0525 113.919H84.3109V117.975H77.0525V113.919Z" fill="#6C8264"/>
<path d="M41.5242 109.268H48.7826V113.324H41.5242V109.268Z" fill="#6C8264"/>
<path d="M49.9287 109.268H57.1871V113.324H49.9287V109.268Z" fill="#6C8264"/>
<path d="M58.3332 109.268H65.5916V113.324H58.3332V109.268Z" fill="#6C8264"/>
<path d="M66.7377 109.268H73.9961V113.324H66.7377V109.268Z" fill="#6C8264"/>
<path d="M43.4345 104.617H50.6929V108.673H43.4345V104.617Z" fill="#6C8264"/>
<path d="M51.839 104.617H59.0974V108.673H51.839V104.617Z" fill="#6C8264"/>
<path d="M60.2435 104.617H67.5019V108.673H60.2435V104.617Z" fill="#6C8264"/>
<path d="M68.648 104.617H75.9064V108.673H68.648V104.617Z" fill="#6C8264"/>
<path d="M41.5242 99.9663H48.7826V104.023H41.5242V99.9663Z" fill="#6C8264"/>
<path d="M49.9287 99.9663H57.1871V104.023H49.9287V99.9663Z" fill="#6C8264"/>
<path d="M58.3332 99.9663H65.5916V104.023H58.3332V99.9663Z" fill="#6C8264"/>
<path d="M66.7377 99.9663H73.9961V104.023H66.7377V99.9663Z" fill="#6C8264"/>
<path d="M43.4345 95.3154H50.6929V99.3717H43.4345V95.3154Z" fill="#6C8264"/>
<path d="M51.839 95.3154H59.0974V99.3717H51.839V95.3154Z" fill="#6C8264"/>
<path d="M60.2435 95.3154H67.5019V99.3717H60.2435V95.3154Z" fill="#6C8264"/>
<path d="M68.648 95.3154H75.9064V99.3717H68.648V95.3154Z" fill="#6C8264"/>
<path d="M39.9966 90.6643H47.2551V94.7206H39.9966V90.6643Z" fill="#6C8264"/>
<path d="M48.4011 90.6643H55.6596V94.7206H48.4011V90.6643Z" fill="#6C8264"/>
<path d="M56.8056 90.6643H64.0641V94.7206H56.8056V90.6643Z" fill="#6C8264"/>
<path d="M65.2101 90.6643H72.4686V94.7206H65.2101V90.6643Z" fill="#6C8264"/>
</g>
<path d="M42.668 126.875L59.7674 90.3687L76.668 126.875" stroke="white" stroke-width="4"/>
<rect x="133.635" y="117.762" width="24.0674" height="30.2375" fill="#D9EAD5"/>
<rect x="140.894" y="138.695" width="9.16854" height="9.3045" fill="#6C8264"/>
<ellipse cx="145.479" cy="138.695" rx="4.58427" ry="3.60174" fill="#6C8264"/>
<path d="M145.668 90L161.904 126.875H129.432L145.668 90Z" fill="#D9EAD5"/>
<mask id="mask1_3_1894" style="mask-type:alpha" maskUnits="userSpaceOnUse" x="129" y="90" width="33" height="37">
<path d="M145.67 90L161.906 126.875H129.434L145.67 90Z" fill="#FFF7CD"/>
</mask>
<g mask="url(#mask1_3_1894)">
<path d="M129.435 123.221H136.693V127.277H129.435V123.221Z" fill="#6C8264"/>
<path d="M137.839 123.221H145.097V127.277H137.839V123.221Z" fill="#6C8264"/>
<path d="M146.243 123.221H153.502V127.277H146.243V123.221Z" fill="#6C8264"/>
<path d="M154.648 123.221H161.906V127.277H154.648V123.221Z" fill="#6C8264"/>
<path d="M127.524 118.57H134.783V122.626H127.524V118.57Z" fill="#6C8264"/>
<path d="M135.929 118.57H143.187V122.626H135.929V118.57Z" fill="#6C8264"/>
<path d="M144.333 118.57H151.592V122.626H144.333V118.57Z" fill="#6C8264"/>
<path d="M152.738 118.57H159.996V122.626H152.738V118.57Z" fill="#6C8264"/>
<path d="M161.142 118.57H168.401V122.626H161.142V118.57Z" fill="#6C8264"/>
<path d="M129.435 113.919H136.693V117.975H129.435V113.919Z" fill="#6C8264"/>
<path d="M137.839 113.919H145.097V117.975H137.839V113.919Z" fill="#6C8264"/>
<path d="M146.243 113.919H153.502V117.975H146.243V113.919Z" fill="#6C8264"/>
<path d="M154.648 113.919H161.906V117.975H154.648V113.919Z" fill="#6C8264"/>
<path d="M163.052 113.919H170.311V117.975H163.052V113.919Z" fill="#6C8264"/>
<path d="M127.524 109.268H134.783V113.324H127.524V109.268Z" fill="#6C8264"/>
<path d="M135.929 109.268H143.187V113.324H135.929V109.268Z" fill="#6C8264"/>
<path d="M144.333 109.268H151.592V113.324H144.333V109.268Z" fill="#6C8264"/>
<path d="M152.738 109.268H159.996V113.324H152.738V109.268Z" fill="#6C8264"/>
<path d="M129.435 104.617H136.693V108.673H129.435V104.617Z" fill="#6C8264"/>
<path d="M137.839 104.617H145.097V108.673H137.839V104.617Z" fill="#6C8264"/>
<path d="M146.243 104.617H153.502V108.673H146.243V104.617Z" fill="#6C8264"/>
<path d="M154.648 104.617H161.906V108.673H154.648V104.617Z" fill="#6C8264"/>
<path d="M127.524 99.9663H134.783V104.023H127.524V99.9663Z" fill="#6C8264"/>
<path d="M135.929 99.9663H143.187V104.023H135.929V99.9663Z" fill="#6C8264"/>
<path d="M144.333 99.9663H151.592V104.023H144.333V99.9663Z" fill="#6C8264"/>
<path d="M152.738 99.9663H159.996V104.023H152.738V99.9663Z" fill="#6C8264"/>
<path d="M129.435 95.3154H136.693V99.3717H129.435V95.3154Z" fill="#6C8264"/>
<path d="M137.839 95.3154H145.097V99.3717H137.839V95.3154Z" fill="#6C8264"/>
<path d="M146.243 95.3154H153.502V99.3717H146.243V95.3154Z" fill="#6C8264"/>
<path d="M154.648 95.3154H161.906V99.3717H154.648V95.3154Z" fill="#6C8264"/>
<path d="M125.997 90.6643H133.255V94.7206H125.997V90.6643Z" fill="#6C8264"/>
<path d="M134.401 90.6643H141.66V94.7206H134.401V90.6643Z" fill="#6C8264"/>
<path d="M142.806 90.6643H150.064V94.7206H142.806V90.6643Z" fill="#6C8264"/>
<path d="M151.21 90.6643H158.469V94.7206H151.21V90.6643Z" fill="#6C8264"/>
</g>
<path d="M128.668 126.875L145.767 90.3687L162.668 126.875" stroke="white" stroke-width="4"/>
<rect x="79.2786" y="101.667" width="46.5775" height="60.6247" fill="#D9EAD5"/>
<rect x="93.3266" y="143.637" width="17.7438" height="18.6551" fill="#6C8264"/>
<ellipse cx="102.199" cy="143.637" rx="8.87191" ry="7.22132" fill="#6C8264"/>
<rect x="80.7572" y="62.4832" width="9.61124" height="29.573" fill="#6C8264"/>
<path d="M102.568 44L133.989 117.933H71.1466L102.568 44Z" fill="#D9EAD5"/>
<mask id="mask2_3_1894" style="mask-type:alpha" maskUnits="userSpaceOnUse" x="71" y="44" width="63" height="74">
<path d="M102.569 44L133.99 117.933H71.1476L102.569 44Z" fill="#FFF7CD"/>
</mask>
<g mask="url(#mask2_3_1894)">
<path d="M71.1468 110.606H85.194V118.739H71.1468V110.606Z" fill="#6C8264"/>
<path d="M87.412 110.606H101.459V118.739H87.412V110.606Z" fill="#6C8264"/>
<path d="M103.677 110.606H117.724V118.739H103.677V110.606Z" fill="#6C8264"/>
<path d="M119.942 110.606H133.989V118.739H119.942V110.606Z" fill="#6C8264"/>
<path d="M67.4501 101.281H81.4973V109.414H67.4501V101.281Z" fill="#6C8264"/>
<path d="M83.7153 101.281H97.7625V109.414H83.7153V101.281Z" fill="#6C8264"/>
<path d="M99.9805 101.281H114.028V109.414H99.9805V101.281Z" fill="#6C8264"/>
<path d="M116.246 101.281H130.293V109.414H116.246V101.281Z" fill="#6C8264"/>
<path d="M132.511 101.281H146.558V109.414H132.511V101.281Z" fill="#6C8264"/>
<path d="M71.1468 91.9563H85.194V100.089H71.1468V91.9563Z" fill="#6C8264"/>
<path d="M87.412 91.9563H101.459V100.089H87.412V91.9563Z" fill="#6C8264"/>
<path d="M103.677 91.9563H117.724V100.089H103.677V91.9563Z" fill="#6C8264"/>
<path d="M119.942 91.9563H133.989V100.089H119.942V91.9563Z" fill="#6C8264"/>
<path d="M136.207 91.9563H150.255V100.089H136.207V91.9563Z" fill="#6C8264"/>
<path d="M67.4501 82.6313H81.4973V90.7639H67.4501V82.6313Z" fill="#6C8264"/>
<path d="M83.7153 82.6313H97.7625V90.7639H83.7153V82.6313Z" fill="#6C8264"/>
<path d="M99.9805 82.6313H114.028V90.7639H99.9805V82.6313Z" fill="#6C8264"/>
<path d="M116.246 82.6313H130.293V90.7639H116.246V82.6313Z" fill="#6C8264"/>
<path d="M71.1468 73.3066H85.194V81.4392H71.1468V73.3066Z" fill="#6C8264"/>
<path d="M87.412 73.3066H101.459V81.4392H87.412V73.3066Z" fill="#6C8264"/>
<path d="M103.677 73.3066H117.724V81.4392H103.677V73.3066Z" fill="#6C8264"/>
<path d="M119.942 73.3066H133.989V81.4392H119.942V73.3066Z" fill="#6C8264"/>
<path d="M67.4501 63.9817H81.4973V72.1143H67.4501V63.9817Z" fill="#6C8264"/>
<path d="M83.7153 63.9817H97.7625V72.1143H83.7153V63.9817Z" fill="#6C8264"/>
<path d="M99.9805 63.9817H114.028V72.1143H99.9805V63.9817Z" fill="#6C8264"/>
<path d="M116.246 63.9817H130.293V72.1143H116.246V63.9817Z" fill="#6C8264"/>
<path d="M71.1468 54.657H85.194V62.7896H71.1468V54.657Z" fill="#6C8264"/>
<path d="M87.412 54.657H101.459V62.7896H87.412V54.657Z" fill="#6C8264"/>
<path d="M103.677 54.657H117.724V62.7896H103.677V54.657Z" fill="#6C8264"/>
<path d="M119.942 54.657H133.989V62.7896H119.942V54.657Z" fill="#6C8264"/>
<path d="M64.4929 45.332H78.54V53.4646H64.4929V45.332Z" fill="#6C8264"/>
<path d="M80.758 45.332H94.8052V53.4646H80.758V45.332Z" fill="#6C8264"/>
<path d="M97.0232 45.332H111.07V53.4646H97.0232V45.332Z" fill="#6C8264"/>
<path d="M113.288 45.332H127.336V53.4646H113.288V45.332Z" fill="#6C8264"/>
</g>
<path d="M69.668 117.933L102.76 44.7393L135.468 117.933" stroke="white" stroke-width="4"/>
</svg>
