<svg width="50" height="60" viewBox="0 0 50 60" fill="none" xmlns="http://www.w3.org/2000/svg">
<path d="M14.3396 19.9741C15.0466 21.21 16.3316 23.4336 15.3487 23.9676C14.3658 24.5016 11.4872 23.1437 10.7801 21.9078C10.0731 20.6718 10.2968 19.237 11.2797 18.7031C12.2626 18.1691 13.6326 18.7381 14.3396 19.9741Z" fill="#FFD3C0"/>
<path d="M36.4821 20.2377C35.7751 21.4737 34.4901 23.6973 35.473 24.2313C36.4559 24.7653 39.3346 23.4074 40.0416 22.1715C40.7486 20.9355 40.5249 19.5007 39.542 18.9667C38.5591 18.4328 37.1891 19.0018 36.4821 20.2377Z" fill="#FFD3C0"/>
<path d="M28.6795 26.2817H21.6025C21.6025 26.2817 22.0448 28.6562 22.0448 30.1777C22.0448 31.6991 20.939 37.3202 20.939 37.3202H24.4775H29.343L28.6795 34.0736C28.1466 31.4233 28.151 29.7141 28.6795 26.2817Z" fill="#FFD3C0"/>
<path d="M12.1704 15.3513C12.1704 22.6873 18.2232 30.5547 25.6898 30.5547C33.1563 30.5547 39.2091 22.6873 39.2091 15.3513C39.2091 8.01534 33.1563 2.06836 25.6898 2.06836C18.2232 2.06836 12.1704 8.01534 12.1704 15.3513Z" fill="#FFD3C0"/>
<path d="M28.6183 33.4033H41.9525L45 55.9911L25.3273 59.0002L4.50013 55.9911L7.24055 33.4033H21.6759V35.7074L25.3273 37.1736L28.6183 35.7074V33.4033Z" fill="#E37464"/>
<path d="M25.6929 7.40952C35.0017 7.55912 38.211 14.0575 38.8468 18.9821C39.9914 13.1224 39.2946 0.811688 25.6929 1.00219C12.0913 1.19268 11.3944 12.143 12.5389 18.626C13.1748 13.5767 16.3841 7.25991 25.6929 7.40952Z" fill="#695555"/>
<path d="M13.9997 10.2583C13.9997 13.4048 19.071 13.463 25.3268 13.463C31.5825 13.463 36.6538 13.4048 36.6538 10.2583C36.6538 7.11179 31.5825 4.56104 25.3268 4.56104C19.071 4.56104 13.9997 7.11179 13.9997 10.2583Z" fill="#695555"/>
<ellipse rx="5.84622" ry="1.82694" transform="matrix(-1 0 0 1 27.5188 55.0774)" fill="#FFD3C0"/>
<path d="M32.3866 44.7241C26.4202 45.4276 23.3014 45.4121 17.4117 44.7241C17.4117 44.7241 17.2859 50.4462 19.5952 53.0113C21.9045 55.5764 27.4374 55.6751 30.0336 52.8741C32.6298 50.0732 32.3866 44.7241 32.3866 44.7241Z" fill="#FFF7CD"/>
<path d="M17.4117 44.5414C17.229 45.6375 20.8257 46.3093 24.9799 46.3093C29.1341 46.3093 32.5018 45.4914 32.5018 44.4825C32.5018 43.4736 29.1341 42.6558 24.9799 42.6558C20.8257 42.6558 17.4117 43.5325 17.4117 44.5414Z" fill="white"/>
<ellipse rx="6.66225" ry="1.39692" transform="matrix(-1 0 0 1 24.9804 44.4824)" fill="#FFF7CD"/>
<path d="M18.6578 44.955C18.9577 45.3549 21.6329 45.9548 25.0563 45.9548C28.4797 45.9548 30.655 45.3549 31.2549 44.955C31.6548 44.755 28.4797 43.6553 25.0563 43.6553C21.6329 43.6553 19.4576 44.2551 18.6578 44.955Z" fill="#6C8264"/>
<path d="M23.361 36.1572C22.3307 36.2002 22.3502 33.2783 22.3881 32.0581C22.2113 32.3452 21.4747 33.8889 21.7063 35.2881C22.0093 37.1185 22.3835 37.6244 23.5609 37.8568C24.9246 38.126 25.0712 40.6408 25.2604 42.2558C26.6602 36.957 24.3912 36.1141 23.361 36.1572Z" fill="white"/>
<path d="M28.906 43.1736C29.86 42.5827 32.0878 41.9173 32.5041 44.3555C33.0052 47.2906 31.9313 49.2603 31.9041 49.6543" stroke="#C5C5C5" stroke-width="0.25"/>
<path fill-rule="evenodd" clip-rule="evenodd" d="M29.3831 42.4765L30.1594 42.697L30.5044 43.702L30.0731 44.4863L29.6873 45.188C28.3656 45.1471 27.5538 44.9434 26.531 44.3986L26.968 43.6039L27.3992 42.8196L28.118 42.4765L28.6068 42.2559L29.3831 42.4765Z" fill="#C5C5C5"/>
<circle r="0.399909" transform="matrix(-1 0 0 1 29.1045 43.0557)" fill="#C5C5C5"/>
<path d="M32.5045 49.1543L31.4048 49.6542V51.0539L32.5045 50.554V49.1543Z" fill="#C5C5C5"/>
</svg>
