<svg width="50" height="60" viewBox="0 0 50 60" fill="none" xmlns="http://www.w3.org/2000/svg">
<path d="M30.9181 35.5229H17.4776V43.8779H30.9181V35.5229Z" fill="#FFD3C0"/>
<path d="M37.0043 22.4436C36.3015 23.7044 35.0239 25.9729 36.0011 26.5176C36.9783 27.0624 39.8401 25.6771 40.543 24.4163C41.2459 23.1554 41.0235 21.6917 40.0464 21.147C39.0692 20.6022 37.7072 21.1827 37.0043 22.4436Z" fill="#FFD3C0"/>
<path d="M12.7385 22.7317C13.4414 23.9925 14.7189 26.261 13.7418 26.8057C12.7646 27.3505 9.90272 25.9652 9.19983 24.7044C8.49695 23.4435 8.71932 21.9798 9.6965 21.435C10.6737 20.8903 12.0356 21.4708 12.7385 22.7317Z" fill="#FFD3C0"/>
<path d="M28.3235 28.5557H21.2877C21.2877 28.5557 21.2877 32.2708 21.2877 33.8229C21.2877 35.375 20.6281 39.8166 20.6281 39.8166L24.0791 42.9043L28.9831 40.1799L28.3235 36.5046C27.7937 33.8009 27.7981 32.0572 28.3235 28.5557Z" fill="#FFD3C0"/>
<path d="M11.2989 17.728C11.2989 25.2118 17.3165 33.2378 24.7395 33.2378C32.1625 33.2378 38.18 25.2118 38.18 17.728C38.18 10.2441 32.1625 4.17725 24.7395 4.17725C17.3165 4.17725 11.2989 10.2441 11.2989 17.728Z" fill="#FFD3C0"/>
<path d="M29.1208 35.5229L42.3221 35.6345V56.5218L24.7617 59.3163L6.99997 56.047L7.36322 35.5229H20.221L21.0755 37.6954C23.7528 44.1403 25.3424 44.1965 28.2715 37.6954L29.1208 35.5229Z" fill="#3E3939"/>
<path d="M39.5945 2.5428L34.9071 3.99582C34.7288 1.63466 33.279 0.908144 31.8227 0V2.5428C30.5481 0.908143 24.921 0.363257 22.0116 1.45303C21.1397 -0.581207 15.234 0.968687 12.3884 1.45303L14.7464 3.63256C12.8575 2.47014 10.2091 4.54072 8.21115 5.63049L11.2955 6.17537C9.30092 8.53655 9.00407 13.2589 9.54641 15.9833C10.0654 19.0886 10.4191 20.0643 12.022 21.7954L19.2905 15.9833C19.2905 15.9833 19.2905 16.5282 18.7456 18.1629C18.2007 19.7975 17.4742 21.2506 17.4742 21.2506C22.1144 20.4511 26.7467 18.3376 29.5236 16.1497L24.921 20.1608C28.5536 19.6159 31.4563 18.5261 33.0943 17.2547L37.7949 21.4546C42.6502 12.7322 39.8044 6.63539 37.795 5.63049C37.0686 5.26723 39.4127 3.26932 39.5945 2.5428Z" fill="#695555"/>
<path d="M35.7565 35.5229H31.0342C31.0342 44.6044 32.8154 48.1786 35.7565 52.596V35.5229Z" fill="#96B48B"/>
<path d="M13.5547 35.5229H18.277C18.277 44.6044 16.4958 48.1786 13.5547 52.596V35.5229Z" fill="#96B48B"/>
<rect width="11.9488" height="15.2091" transform="matrix(-0.866025 0.5 0.5 0.866025 22.4227 38.3418)" fill="#96B48B"/>
<path d="M19.352 42.5496C17.4141 43.0688 16.2641 45.0606 16.7834 46.9985C17.3026 48.9364 19.2944 50.0864 21.2323 49.5671C23.1702 49.0479 24.3202 47.0561 23.801 45.1182C23.2817 43.1803 21.2899 42.0303 19.352 42.5496ZM19.4831 43.039C20.2839 42.8245 21.1371 42.9368 21.8551 43.3513C22.573 43.7658 23.0969 44.4486 23.3115 45.2493C23.526 46.0501 23.4137 46.9033 22.9992 47.6213C22.5847 48.3392 21.902 48.8631 21.1012 49.0777C20.3004 49.2922 19.4472 49.1799 18.7292 48.7654C18.0113 48.3509 17.4874 47.6681 17.2728 46.8674C17.0583 46.0666 17.1706 45.2134 17.5851 44.4954C17.9996 43.7775 18.6824 43.2536 19.4831 43.039ZM18.9613 43.966C18.7563 44.1134 18.5755 44.2917 18.4253 44.4947C18.3905 44.5401 18.358 44.5872 18.3268 44.6365C18.3209 44.6453 18.3161 44.6541 18.3107 44.6634C18.2241 44.8006 18.1516 44.9482 18.0934 45.1015C18.0852 45.1229 18.0759 45.143 18.0686 45.1634C18.055 45.2024 18.0431 45.2424 18.0313 45.2825C18.0106 45.3502 17.9932 45.4188 17.9792 45.4882C17.97 45.5283 17.9638 45.5709 17.9566 45.6127C17.9519 45.6415 17.9459 45.6713 17.9427 45.7014C17.9342 45.7722 17.9286 45.8425 17.9255 45.9137C17.9247 45.9372 17.9256 45.9618 17.9251 45.9852C17.923 46.1196 17.9319 46.2539 17.9519 46.3868C17.9556 46.4106 17.9587 46.4361 17.9631 46.4594C17.9763 46.5367 17.9921 46.6141 18.0126 46.6906C18.0531 46.8399 18.1068 46.9854 18.173 47.1252C18.1848 47.1495 18.196 47.1743 18.2075 47.1976C18.2394 47.2605 18.273 47.3214 18.3093 47.3809C18.4659 47.2513 18.6435 47.0747 18.6628 46.9278C18.6985 46.6625 18.9318 46.4721 18.9575 46.1358C18.9991 45.5793 18.7665 45.656 18.6489 45.349C18.5938 45.2051 18.6922 45.1456 18.8491 45.1683C19.2145 45.2181 19.3115 45.1354 19.3115 44.8702C19.3118 44.6058 19.227 44.5548 19.227 44.5548C19.4575 44.5194 19.3928 44.2445 19.2583 44.2068C19.1651 44.1821 19.0587 44.0584 18.9613 43.966ZM20.3047 45.2265C20.0723 45.1872 19.8719 45.2044 19.8536 45.0349C19.835 44.8672 19.8611 44.7316 20.1846 44.6449C20.5081 44.5583 20.486 45.0399 20.6803 44.7039C20.875 44.3697 20.5701 44.5243 20.4214 44.4999C20.2722 44.4752 20.0733 44.2633 20.3009 44.1836C20.5284 44.1049 20.5108 44.2371 20.6752 44.1209C20.8392 44.0032 21.0043 44.288 21.1093 44.214C21.1781 44.1647 21.3411 43.9518 21.4356 43.7599C21.7781 43.9271 22.0787 44.1692 22.3151 44.4682C22.3983 44.9374 22.2203 45.2431 22.2203 45.2431C22.2203 45.2431 22.1758 45.5751 21.5274 46.1422C21.5274 46.1422 21.3894 46.1882 21.5094 45.9736C21.6292 45.7584 21.7548 45.4961 21.5179 45.4411C21.2808 45.3846 21.2248 45.4098 21.23 45.6284C21.2354 45.8466 21.0367 45.7705 20.968 45.5786C20.8988 45.3877 20.5374 45.2653 20.3046 45.2262L20.3047 45.2265ZM20.739 46.2158C20.3818 46.3115 20.4449 46.4138 20.2294 46.7378C20.0138 47.0603 20.2292 47.2677 20.421 47.4179C20.6119 47.5676 20.7935 47.7468 20.963 48.1143C21.1326 48.4803 21.2333 48.16 21.2657 48.0509C21.2986 47.9409 21.3671 47.8316 21.2367 47.4457C21.107 47.06 21.4345 47.2197 21.3881 46.6831C21.3422 46.147 21.0952 46.1207 20.7387 46.2162L20.739 46.2158ZM19.0833 47.022C18.972 46.9867 18.7866 47.206 18.8804 47.3595C18.9752 47.5127 19.1072 47.3766 19.1667 47.2828C19.2263 47.1894 19.1951 47.0559 19.0833 47.022Z" fill="#FFF7CD"/>
<path d="M20.4403 53.1116C21.9676 55.7571 22.7124 54.8626 24.1035 54.0595C25.4946 53.2563 27.1718 52.7513 25.4779 50.2031C24.3768 48.2958 22.3564 47.4008 20.9653 48.2039C19.5741 49.0071 19.3391 51.2043 20.4403 53.1116Z" fill="#FFD3C0"/>
</svg>
