<svg width="50" height="60" viewBox="0 0 50 60" fill="none" xmlns="http://www.w3.org/2000/svg">
<path d="M35.2376 6.31534C30.5087 -0.806668 17.3127 -0.109192 12.5894 4.51092C7.86615 9.13103 8.32198 17.1186 7.37738 24.1857C6.62234 29.8345 3.14132 32.319 3.14132 32.319L23.1812 34.8034L43.0581 31.8395C43.0581 31.8395 40.6833 29.1525 39.9641 24.1857C39.1128 18.3068 39.9666 13.4374 35.2376 6.31534Z" fill="#695555"/>
<path d="M25.6736 29.0493H20.5255C20.5255 29.0493 20.8473 30.8285 20.8473 31.9685C20.8473 33.1085 20.0429 37.3204 20.0429 37.3204H22.6169H26.1562L25.6736 34.8877C25.286 32.9019 25.2892 31.6211 25.6736 29.0493Z" fill="#FFD3C0"/>
<path d="M10.3351 16.5724C10.3351 23.9811 16.2922 31.9265 23.6406 31.9265C30.9891 31.9265 36.9462 23.9811 36.9462 16.5724C36.9462 9.16367 30.9891 3.15771 23.6406 3.15771C16.2922 3.15771 10.3351 9.16367 10.3351 16.5724Z" fill="#FFD3C0"/>
<path d="M26.9327 34.8032H37.0558L40.5396 57.0991L22.5591 59.4365L4.57859 57.0991L8.93603 34.8032H19.809V36.9891H26.9327V34.8032Z" fill="#6A6A6A"/>
<path d="M22.9195 41.5434L25.7736 34.7661H29.7521L27.8494 39.1229H26.2926L22.9195 46.0616L19.7194 39.1229H18.3356L16.0869 34.7661H20.2384L22.9195 41.5434Z" fill="white"/>
<path d="M22.9202 41.5435L25.1743 36.2185L20.666 36.2185L22.9202 41.5435Z" fill="white"/>
<path d="M33.1897 5.9013C27.4267 -0.559466 16.8873 1.45959 13.5949 5.29564C10.3026 9.13168 9.97329 18.6209 9.97329 18.6209H36.9767C36.9767 18.6209 38.9526 12.3621 33.1897 5.9013Z" fill="#695555"/>
<path d="M30.8318 28.3302C32.0854 26.0426 32.687 20.6215 32.3687 16.8161C32.3687 14.3944 33.2759 10.7669 36.9046 15.6299C40.5333 20.493 34.4923 25.7109 30.8318 28.3302Z" fill="#695555"/>
<path d="M16.448 28.3302C15.1944 26.0426 14.5928 20.6215 14.9111 16.8161C14.9111 14.3944 14.0039 10.7669 10.3752 15.6299C6.74654 20.493 12.7875 25.7109 16.448 28.3302Z" fill="#695555"/>
<circle r="4.34997" transform="matrix(-0.791553 0.6111 0.6111 0.791553 31.2627 21.0309)" fill="white" stroke="#494949"/>
<path d="M35.144 23.3952L32.6391 25.329C32.7135 25.7708 32.8147 25.9512 33.1948 26.0489L35.6997 24.115C35.683 23.6791 35.5643 23.5195 35.144 23.3952Z" fill="#494949"/>
<path d="M35.7011 24.1152L33.1817 26.0602L41.5616 35.6746L43.0012 34.5631L35.7011 24.1152Z" fill="#494949"/>
<ellipse rx="2.69708" ry="4.05828" transform="matrix(-0.978776 0.204934 0.204934 0.978776 42.6192 35.9931)" fill="#FFD3C0"/>
<path d="M46.1208 38.1069L39.7872 37.153L34.0914 54.4448L40.6772 57.0905L46.1208 38.1069Z" fill="#6A6A6A"/>
</svg>
