<svg width="527" height="308" viewBox="0 0 527 308" fill="none" xmlns="http://www.w3.org/2000/svg">
<g filter="url(#filter0_d_7_1455)">
<circle cx="417.669" cy="89.6876" r="56.6876" fill="#D4E2FC"/>
<path d="M413.889 71.7387C415.038 69.7096 417.961 69.7096 419.11 71.7387L444.314 116.25C445.447 118.25 444.002 120.728 441.704 120.728H391.295C388.996 120.728 387.552 118.25 388.684 116.25L413.889 71.7387Z" fill="#00BCD4"/>
<rect x="407.568" y="58.1948" width="17.8667" height="25.4256" fill="#00BCD4"/>
<path d="M411.189 67.5566H422.203V82.9758H411.189V67.5566Z" fill="#B8EEF5"/>
<path d="M416.699 73.063L431.006 98.6698H402.392L416.699 73.063Z" fill="#B8EEF5"/>
</g>
<g filter="url(#filter1_d_7_1455)">
<circle cx="108.688" cy="217.042" r="56.6876" fill="#D4E2FC"/>
<path d="M116.931 205.718C116.857 205.585 116.755 205.469 116.633 205.377C116.511 205.286 116.371 205.222 116.222 205.188C116.073 205.155 115.919 205.154 115.77 205.184C115.62 205.214 115.479 205.276 115.355 205.365L114.521 205.96C114.054 206.277 113.481 206.398 112.925 206.298C112.369 206.198 111.875 205.885 111.547 205.425C111.218 204.966 111.083 204.396 111.168 203.838C111.254 203.28 111.554 202.777 112.005 202.438L112.839 201.84C113.459 201.398 114.165 201.091 114.911 200.94C115.658 200.789 116.428 200.797 117.171 200.964C117.914 201.131 118.613 201.453 119.223 201.909C119.833 202.364 120.341 202.944 120.711 203.609L121.811 205.579L125.265 202.126C125.464 201.919 125.703 201.754 125.968 201.641C126.232 201.527 126.516 201.467 126.803 201.465C127.091 201.462 127.376 201.517 127.642 201.626C127.908 201.735 128.15 201.896 128.353 202.099C128.556 202.302 128.717 202.544 128.826 202.81C128.935 203.076 128.99 203.361 128.987 203.649C128.985 203.936 128.925 204.22 128.811 204.485C128.698 204.749 128.533 204.988 128.326 205.187L124.002 209.511L125.719 212.586C125.796 212.723 125.902 212.843 126.03 212.935C126.158 213.028 126.305 213.091 126.459 213.121C126.614 213.151 126.774 213.146 126.927 213.108C127.08 213.07 127.223 212.999 127.345 212.9L128.136 212.261C128.582 211.907 129.15 211.744 129.717 211.807C130.283 211.869 130.802 212.152 131.161 212.595C131.52 213.037 131.69 213.603 131.634 214.17C131.579 214.737 131.302 215.259 130.864 215.623L130.076 216.262C129.463 216.76 128.748 217.117 127.982 217.31C127.216 217.502 126.417 217.524 125.642 217.375C124.866 217.226 124.133 216.909 123.493 216.446C122.853 215.984 122.322 215.386 121.937 214.697L120.82 212.694L117.498 216.013C117.299 216.22 117.06 216.385 116.796 216.498C116.531 216.612 116.247 216.671 115.96 216.674C115.672 216.676 115.387 216.622 115.121 216.513C114.855 216.404 114.613 216.243 114.41 216.04C114.207 215.837 114.046 215.595 113.937 215.329C113.828 215.063 113.773 214.778 113.776 214.49C113.778 214.203 113.838 213.918 113.952 213.654C114.065 213.39 114.23 213.151 114.437 212.952L118.626 208.762L116.929 205.718H116.931ZM101.671 225.607C98.6053 226.204 95.1713 226.354 91.863 226.386C91.2719 228.79 91.5166 230.494 92.073 231.645C92.7269 232.994 93.9892 233.949 95.7711 234.395C99.4518 235.311 104.808 233.854 108.387 229.775C108.573 229.556 108.801 229.377 109.057 229.247C109.313 229.117 109.592 229.039 109.878 229.018C110.165 228.997 110.452 229.034 110.724 229.125C110.996 229.216 111.248 229.36 111.464 229.549C111.679 229.738 111.855 229.969 111.982 230.227C112.108 230.484 112.181 230.765 112.198 231.051C112.215 231.338 112.174 231.625 112.079 231.895C111.984 232.166 111.836 232.415 111.644 232.628C107.101 237.81 100.125 239.942 94.7231 238.596C91.9647 237.907 89.5008 236.266 88.1779 233.533C86.8637 230.821 86.8528 227.41 88.1996 223.517C90.0183 218.271 92.7853 214.985 95.5762 212.939C97.6484 211.423 100.026 210.376 102.544 209.873C106.064 209.152 109.223 210.141 110.988 212.458C112.78 214.814 112.72 218.016 110.789 220.657C108.667 223.554 105.202 224.918 101.671 225.607V225.607ZM103.412 214.114C101.506 214.493 99.706 215.284 98.1376 216.431C96.5765 217.576 94.9093 219.317 93.5258 222.026C96.1392 221.961 98.6356 221.788 100.842 221.354C103.992 220.742 106.138 219.681 107.294 218.1C108.225 216.825 108.043 215.74 107.543 215.082C107.013 214.389 105.707 213.644 103.412 214.114V214.114Z" fill="#B85D51"/>
</g>
<g filter="url(#filter2_d_7_1455)">
<circle cx="263.179" cy="89.688" r="56.6876" fill="#D4E2FC"/>
<circle cx="261.606" cy="92.8375" r="25.1945" fill="#6A6A6A"/>
<circle cx="261.604" cy="92.8374" r="14.6968" fill="#B8EEF5"/>
<rect x="257.024" y="61.3442" width="9.16162" height="16.0328" fill="#6A6A6A"/>
<rect x="257.024" y="108.298" width="9.16162" height="16.0328" fill="#6A6A6A"/>
<rect x="280.635" y="67.3291" width="9.16162" height="16.0328" transform="rotate(45 280.635 67.3291)" fill="#6A6A6A"/>
<rect x="247.433" y="100.531" width="9.16162" height="16.0328" transform="rotate(45 247.433 100.531)" fill="#6A6A6A"/>
<rect x="293.097" y="88.2563" width="9.16162" height="16.0328" transform="rotate(90 293.097 88.2563)" fill="#6A6A6A"/>
<rect x="246.143" y="88.2563" width="9.16162" height="16.0328" transform="rotate(90 246.143 88.2563)" fill="#6A6A6A"/>
<rect x="287.112" y="111.866" width="9.16162" height="16.0328" transform="rotate(135 287.112 111.866)" fill="#6A6A6A"/>
<rect x="253.91" y="78.6655" width="9.16162" height="16.0328" transform="rotate(135 253.91 78.6655)" fill="#6A6A6A"/>
</g>
<g filter="url(#filter3_d_7_1455)">
<circle cx="108.688" cy="89.688" r="56.6876" fill="#D4E2FC"/>
<rect x="80.8416" y="63.3818" width="55.6937" height="56.5495" rx="3.75" stroke="#96B48B" stroke-width="2.5"/>
<path d="M110.859 111.097C110.859 108.952 109.119 107.212 106.974 107.212C104.829 107.212 103.089 108.952 103.089 111.097C103.089 113.243 104.829 114.982 106.974 114.982C109.119 114.982 110.859 113.243 110.859 111.097Z" stroke="#96B48B" stroke-width="2.5"/>
<path d="M110.859 80.1035C110.859 82.249 109.119 83.9882 106.974 83.9882C104.829 83.9882 103.089 82.249 103.089 80.1035C103.089 77.958 104.829 76.2188 106.974 76.2188C109.119 76.2188 110.859 77.958 110.859 80.1035Z" stroke="#96B48B" stroke-width="2.5"/>
<path d="M122.776 84.3828C122.776 86.5283 124.515 88.2675 126.661 88.2675C128.806 88.2675 130.546 86.5283 130.546 84.3828C130.546 82.2373 128.806 80.498 126.661 80.498C124.515 80.498 122.776 82.2373 122.776 84.3828Z" stroke="#96B48B" stroke-width="2.5"/>
<path d="M120.668 118.614V99.8611L126.658 94.0567V87.8057" stroke="#96B48B" stroke-width="2.5"/>
<path d="M81.3785 78.8201L96.7083 78.8201L96.7083 71.9738L111.257 71.9738L111.257 65.1274" stroke="#96B48B" stroke-width="2.5"/>
<path d="M82.1591 96.8334L104.049 96.8334L118.53 84.8106L118.53 65.1274" stroke="#96B48B" stroke-width="2.5"/>
<path d="M80.4472 102.353L99.2001 102.353L105.005 108.344L104.763 108.095" stroke="#96B48B" stroke-width="2.5"/>
<path d="M80.4472 88.847L99.2001 88.847L105.005 82.8564L104.763 83.1054" stroke="#96B48B" stroke-width="2.5"/>
</g>
<g filter="url(#filter4_d_7_1455)">
<circle cx="417.669" cy="217.041" r="56.6876" fill="#D4E2FC"/>
<circle cx="420.259" cy="220.108" r="28.9031" fill="#FFF7CD"/>
<circle cx="416.188" cy="220.108" r="28.9031" fill="#F5CA60"/>
<path d="M414.072 228.978V210.797H415.237V228.978H414.072ZM417.161 216.798C417.104 216.225 416.861 215.78 416.43 215.463C415.999 215.145 415.414 214.987 414.676 214.987C414.174 214.987 413.75 215.058 413.404 215.2C413.059 215.337 412.793 215.529 412.609 215.775C412.429 216.021 412.339 216.301 412.339 216.613C412.329 216.874 412.384 217.101 412.502 217.295C412.625 217.489 412.793 217.657 413.006 217.799C413.22 217.937 413.466 218.057 413.745 218.162C414.024 218.261 414.323 218.346 414.64 218.417L415.947 218.73C416.581 218.872 417.164 219.061 417.694 219.298C418.224 219.535 418.684 219.826 419.072 220.172C419.46 220.517 419.761 220.924 419.974 221.393C420.192 221.862 420.303 222.399 420.308 223.005C420.303 223.895 420.076 224.667 419.626 225.321C419.181 225.969 418.537 226.474 417.694 226.833C416.856 227.189 415.845 227.366 414.661 227.366C413.487 227.366 412.464 227.186 411.593 226.826C410.727 226.467 410.05 225.934 409.562 225.228C409.079 224.518 408.826 223.64 408.802 222.593H411.778C411.811 223.081 411.951 223.488 412.197 223.815C412.448 224.137 412.782 224.381 413.198 224.547C413.62 224.708 414.095 224.788 414.626 224.788C415.147 224.788 415.599 224.712 415.982 224.561C416.371 224.409 416.671 224.199 416.884 223.929C417.097 223.659 417.204 223.349 417.204 222.998C417.204 222.672 417.107 222.397 416.913 222.174C416.723 221.952 416.444 221.762 416.075 221.606C415.71 221.45 415.263 221.308 414.732 221.18L413.149 220.782C411.922 220.484 410.954 220.018 410.244 219.383C409.533 218.749 409.181 217.894 409.185 216.819C409.181 215.939 409.415 215.169 409.889 214.511C410.367 213.853 411.023 213.339 411.856 212.97C412.689 212.6 413.636 212.416 414.697 212.416C415.776 212.416 416.719 212.6 417.524 212.97C418.333 213.339 418.963 213.853 419.413 214.511C419.863 215.169 420.095 215.931 420.109 216.798H417.161Z" fill="#FFF7CD"/>
</g>
<g filter="url(#filter5_d_7_1455)">
<circle cx="263.179" cy="217.041" r="56.6876" fill="#D4E2FC"/>
<rect x="246.861" y="212.938" width="9.06619" height="31.7317" fill="#6A6A6A"/>
<rect x="260.461" y="193.899" width="9.06619" height="50.7707" fill="#6A6A6A"/>
<rect x="274.057" y="203.871" width="9.06619" height="42.6111" fill="#6A6A6A"/>
<rect x="233.261" y="190.271" width="7.87327" height="56.6876" fill="#E5CCCC"/>
<rect x="293.098" y="243.81" width="7.87327" height="59.8369" transform="rotate(90 293.098 243.81)" fill="#E5CCCC"/>
</g>
<defs>
<filter id="filter0_d_7_1455" x="330.981" y="7" width="173.375" height="173.375" filterUnits="userSpaceOnUse" color-interpolation-filters="sRGB">
<feFlood flood-opacity="0" result="BackgroundImageFix"/>
<feColorMatrix in="SourceAlpha" type="matrix" values="0 0 0 0 0 0 0 0 0 0 0 0 0 0 0 0 0 0 127 0" result="hardAlpha"/>
<feOffset dy="4"/>
<feGaussianBlur stdDeviation="15"/>
<feComposite in2="hardAlpha" operator="out"/>
<feColorMatrix type="matrix" values="0 0 0 0 0.604653 0 0 0 0 0.604653 0 0 0 0 0.604653 0 0 0 0.25 0"/>
<feBlend mode="normal" in2="BackgroundImageFix" result="effect1_dropShadow_7_1455"/>
<feBlend mode="normal" in="SourceGraphic" in2="effect1_dropShadow_7_1455" result="shape"/>
</filter>
<filter id="filter1_d_7_1455" x="22.0009" y="134.354" width="173.375" height="173.375" filterUnits="userSpaceOnUse" color-interpolation-filters="sRGB">
<feFlood flood-opacity="0" result="BackgroundImageFix"/>
<feColorMatrix in="SourceAlpha" type="matrix" values="0 0 0 0 0 0 0 0 0 0 0 0 0 0 0 0 0 0 127 0" result="hardAlpha"/>
<feOffset dy="4"/>
<feGaussianBlur stdDeviation="15"/>
<feComposite in2="hardAlpha" operator="out"/>
<feColorMatrix type="matrix" values="0 0 0 0 0.604653 0 0 0 0 0.604653 0 0 0 0 0.604653 0 0 0 0.25 0"/>
<feBlend mode="normal" in2="BackgroundImageFix" result="effect1_dropShadow_7_1455"/>
<feBlend mode="normal" in="SourceGraphic" in2="effect1_dropShadow_7_1455" result="shape"/>
</filter>
<filter id="filter2_d_7_1455" x="176.491" y="7.00049" width="173.375" height="173.375" filterUnits="userSpaceOnUse" color-interpolation-filters="sRGB">
<feFlood flood-opacity="0" result="BackgroundImageFix"/>
<feColorMatrix in="SourceAlpha" type="matrix" values="0 0 0 0 0 0 0 0 0 0 0 0 0 0 0 0 0 0 127 0" result="hardAlpha"/>
<feOffset dy="4"/>
<feGaussianBlur stdDeviation="15"/>
<feComposite in2="hardAlpha" operator="out"/>
<feColorMatrix type="matrix" values="0 0 0 0 0.604653 0 0 0 0 0.604653 0 0 0 0 0.604653 0 0 0 0.25 0"/>
<feBlend mode="normal" in2="BackgroundImageFix" result="effect1_dropShadow_7_1455"/>
<feBlend mode="normal" in="SourceGraphic" in2="effect1_dropShadow_7_1455" result="shape"/>
</filter>
<filter id="filter3_d_7_1455" x="22" y="7.00049" width="173.375" height="173.375" filterUnits="userSpaceOnUse" color-interpolation-filters="sRGB">
<feFlood flood-opacity="0" result="BackgroundImageFix"/>
<feColorMatrix in="SourceAlpha" type="matrix" values="0 0 0 0 0 0 0 0 0 0 0 0 0 0 0 0 0 0 127 0" result="hardAlpha"/>
<feOffset dy="4"/>
<feGaussianBlur stdDeviation="15"/>
<feComposite in2="hardAlpha" operator="out"/>
<feColorMatrix type="matrix" values="0 0 0 0 0.604653 0 0 0 0 0.604653 0 0 0 0 0.604653 0 0 0 0.25 0"/>
<feBlend mode="normal" in2="BackgroundImageFix" result="effect1_dropShadow_7_1455"/>
<feBlend mode="normal" in="SourceGraphic" in2="effect1_dropShadow_7_1455" result="shape"/>
</filter>
<filter id="filter4_d_7_1455" x="330.981" y="134.354" width="173.375" height="173.375" filterUnits="userSpaceOnUse" color-interpolation-filters="sRGB">
<feFlood flood-opacity="0" result="BackgroundImageFix"/>
<feColorMatrix in="SourceAlpha" type="matrix" values="0 0 0 0 0 0 0 0 0 0 0 0 0 0 0 0 0 0 127 0" result="hardAlpha"/>
<feOffset dy="4"/>
<feGaussianBlur stdDeviation="15"/>
<feComposite in2="hardAlpha" operator="out"/>
<feColorMatrix type="matrix" values="0 0 0 0 0.604653 0 0 0 0 0.604653 0 0 0 0 0.604653 0 0 0 0.25 0"/>
<feBlend mode="normal" in2="BackgroundImageFix" result="effect1_dropShadow_7_1455"/>
<feBlend mode="normal" in="SourceGraphic" in2="effect1_dropShadow_7_1455" result="shape"/>
</filter>
<filter id="filter5_d_7_1455" x="176.491" y="134.354" width="173.375" height="173.375" filterUnits="userSpaceOnUse" color-interpolation-filters="sRGB">
<feFlood flood-opacity="0" result="BackgroundImageFix"/>
<feColorMatrix in="SourceAlpha" type="matrix" values="0 0 0 0 0 0 0 0 0 0 0 0 0 0 0 0 0 0 127 0" result="hardAlpha"/>
<feOffset dy="4"/>
<feGaussianBlur stdDeviation="15"/>
<feComposite in2="hardAlpha" operator="out"/>
<feColorMatrix type="matrix" values="0 0 0 0 0.604653 0 0 0 0 0.604653 0 0 0 0 0.604653 0 0 0 0.25 0"/>
<feBlend mode="normal" in2="BackgroundImageFix" result="effect1_dropShadow_7_1455"/>
<feBlend mode="normal" in="SourceGraphic" in2="effect1_dropShadow_7_1455" result="shape"/>
</filter>
</defs>
</svg>
