<svg width="718" height="671" viewBox="0 0 718 671" fill="none" xmlns="http://www.w3.org/2000/svg">
<mask id="mask0_371_3062" style="mask-type:alpha" maskUnits="userSpaceOnUse" x="0" y="0" width="718" height="671">
<rect width="718" height="671" transform="matrix(-1 0 0 1 718 0)" fill="#D4E2FC"/>
</mask>
<g mask="url(#mask0_371_3062)">
<g opacity="0.76">
<g filter="url(#filter0_d_371_3062)">
<circle cx="98.4661" cy="98.4661" r="98.4661" transform="matrix(-0.866025 0.5 0.5 0.866025 62.1318 215.444)" fill="#D4E2FC"/>
<path d="M12.8231 317.687C10.8136 316.505 8.28202 317.966 8.30153 320.298L9.10936 416.843C9.12859 419.141 11.6189 420.565 13.6093 419.416L96.0082 371.843C97.9986 370.694 98.0105 367.825 96.0299 366.66L12.8231 317.687Z" fill="#00BCD4"/>
<rect width="31.0343" height="44.1643" transform="matrix(-0.866025 0.5 0.5 0.866025 13.9336 293.804)" fill="#00BCD4"/>
<path d="M16.6162 311.032L0.0484815 320.598L13.44 343.792L30.0077 334.227L16.6162 311.032Z" fill="#B8EEF5"/>
<path d="M13.1105 324.101L13.8279 375.046L56.8722 350.195L13.1105 324.101Z" fill="#B8EEF5"/>
</g>
<g filter="url(#filter1_d_371_3062)">
<circle cx="98.4661" cy="98.4661" r="98.4661" transform="matrix(-0.866025 0.5 0.5 0.866025 637.533 138.671)" fill="#D4E2FC"/>
<g clip-path="url(#clip0_371_3062)">
<path d="M601.862 250.253C601.635 250.117 601.382 250.031 601.118 250C600.855 249.968 600.589 249.993 600.336 250.072C600.083 250.151 599.85 250.283 599.652 250.459C599.453 250.634 599.294 250.85 599.185 251.091L598.448 252.711C598.019 253.593 597.263 254.272 596.34 254.604C595.417 254.937 594.401 254.895 593.508 254.489C592.616 254.083 591.917 253.344 591.561 252.43C591.205 251.516 591.221 250.499 591.604 249.596L592.339 247.974C592.887 246.77 593.683 245.695 594.675 244.82C595.666 243.944 596.832 243.288 598.094 242.894C599.357 242.5 600.689 242.377 602.002 242.532C603.316 242.688 604.582 243.119 605.718 243.797L609.083 245.806L611.279 237.612C611.4 237.127 611.616 236.672 611.915 236.271C612.214 235.871 612.589 235.535 613.019 235.281C613.45 235.028 613.926 234.863 614.421 234.795C614.916 234.728 615.419 234.76 615.901 234.889C616.384 235.018 616.836 235.242 617.23 235.548C617.625 235.854 617.955 236.235 618.201 236.67C618.447 237.104 618.604 237.584 618.663 238.08C618.722 238.575 618.681 239.078 618.543 239.558L615.794 249.818L621.047 252.951C621.283 253.092 621.546 253.179 621.818 253.207C622.091 253.235 622.366 253.203 622.625 253.114C622.884 253.024 623.121 252.879 623.318 252.689C623.515 252.498 623.668 252.267 623.766 252.011L624.4 250.364C624.765 249.445 625.478 248.706 626.384 248.308C627.29 247.91 628.316 247.885 629.24 248.239C630.164 248.593 630.912 249.297 631.321 250.198C631.729 251.099 631.767 252.125 631.424 253.053L630.793 254.698C630.303 255.98 629.539 257.138 628.554 258.093C627.568 259.047 626.386 259.775 625.09 260.224C623.794 260.673 622.415 260.833 621.051 260.693C619.686 260.553 618.369 260.115 617.191 259.412L613.771 257.37L611.657 265.247C611.536 265.732 611.32 266.187 611.021 266.587C610.723 266.988 610.347 267.324 609.917 267.578C609.486 267.831 609.01 267.996 608.515 268.064C608.02 268.131 607.517 268.099 607.035 267.97C606.552 267.841 606.101 267.617 605.706 267.311C605.311 267.005 604.981 266.624 604.735 266.189C604.489 265.755 604.332 265.275 604.273 264.779C604.215 264.283 604.255 263.781 604.393 263.301L607.057 253.36L601.859 250.255L601.862 250.253ZM596.181 293.425C592.088 296.987 587.052 300.194 582.103 303.116C583.302 307.244 585.15 309.595 586.987 310.845C589.142 312.306 591.87 312.646 594.938 311.769C601.27 309.95 608.063 303.106 609.904 293.862C609.994 293.371 610.18 292.904 610.452 292.486C610.725 292.068 611.077 291.709 611.49 291.429C611.902 291.149 612.366 290.953 612.854 290.854C613.343 290.755 613.846 290.754 614.335 290.851C614.824 290.948 615.289 291.141 615.703 291.42C616.116 291.698 616.47 292.056 616.744 292.472C617.019 292.889 617.207 293.355 617.299 293.845C617.391 294.335 617.385 294.839 617.281 295.326C614.947 307.065 606.306 316.332 597.01 318.998C592.262 320.358 587.13 320.029 582.767 317.068C578.434 314.128 575.456 309.008 574.101 301.982C572.281 292.511 573.589 285.163 576.01 279.662C577.81 275.581 580.478 271.943 583.828 268.998C588.498 264.856 594.109 263.601 598.776 265.554C603.518 267.54 606.208 272.41 605.597 278.061C604.921 284.262 600.895 289.322 596.181 293.425V293.425ZM588.818 274.625C586.28 276.85 584.259 279.603 582.896 282.691C581.542 285.769 580.546 289.836 580.818 295.112C584.692 292.745 588.297 290.316 591.24 287.748C595.447 284.091 597.753 280.631 598.12 277.249C598.413 274.522 597.197 273.049 595.873 272.493C594.473 271.911 591.862 271.925 588.818 274.625V274.625Z" fill="#B85D51"/>
</g>
</g>
<g filter="url(#filter2_d_371_3062)">
<circle cx="98.4661" cy="98.4661" r="98.4661" transform="matrix(-0.866025 0.5 0.5 0.866025 294.53 81.27)" fill="#D4E2FC"/>
<circle cx="43.7627" cy="43.7627" r="43.7627" transform="matrix(-0.866025 0.5 0.5 0.866025 279.608 159.369)" fill="#6A6A6A"/>
<circle cx="25.5283" cy="25.5283" r="25.5283" transform="matrix(-0.866025 0.5 0.5 0.866025 272.938 184.275)" fill="#B8EEF5"/>
<rect width="15.9137" height="27.849" transform="matrix(-0.866025 0.5 0.5 0.866025 243.131 167.796)" fill="#6A6A6A"/>
<rect width="15.9137" height="27.849" transform="matrix(-0.866025 0.5 0.5 0.866025 283.91 238.427)" fill="#6A6A6A"/>
<rect width="15.9137" height="27.849" transform="matrix(-0.258819 0.965926 0.965926 0.258819 212.812 197.305)" fill="#6A6A6A"/>
<rect width="15.9137" height="27.849" transform="matrix(-0.258819 0.965926 0.965926 0.258819 291.592 218.414)" fill="#6A6A6A"/>
<rect width="15.9137" height="27.849" transform="matrix(0.5 0.866025 0.866025 -0.5 212.24 239.608)" fill="#6A6A6A"/>
<rect width="15.9137" height="27.849" transform="matrix(0.5 0.866025 0.866025 -0.5 282.873 198.829)" fill="#6A6A6A"/>
<rect width="15.9137" height="27.849" transform="matrix(0.965926 0.258819 0.258819 -0.965926 241.747 269.926)" fill="#6A6A6A"/>
<rect width="15.9137" height="27.849" transform="matrix(0.965926 0.258819 0.258819 -0.965926 262.857 191.147)" fill="#6A6A6A"/>
</g>
<g filter="url(#filter3_d_371_3062)">
<circle cx="98.4661" cy="98.4661" r="98.4661" transform="matrix(-0.707107 0.707107 0.707107 0.707107 121.493 -114.651)" fill="#D4E2FC"/>
<g clip-path="url(#clip1_371_3062)">
<mask id="mask1_371_3062" style="mask-type:luminance" maskUnits="userSpaceOnUse" x="89" y="-18" width="54" height="108">
<path d="M101.797 85.6327L93.3121 70.9362L116.088 -14.0661L139.271 -7.8529L116.494 77.1477L101.797 85.6327Z" fill="#555555" stroke="white" stroke-width="7" stroke-linejoin="round"/>
<path d="M133.06 15.3286L109.878 9.11716" stroke="white" stroke-width="7" stroke-linecap="round" stroke-linejoin="round"/>
</mask>
<g mask="url(#mask1_371_3062)">
<path d="M182.466 51.356L134.466 -31.7825L51.3274 16.2175L99.3274 99.3559L182.466 51.356Z" fill="#E5CCCC"/>
</g>
</g>
</g>
<g filter="url(#filter4_d_371_3062)">
<circle cx="98.4661" cy="98.4661" r="98.4661" transform="matrix(-0.866025 0.5 0.5 0.866025 526.928 -52.9053)" fill="#D4E2FC"/>
<path d="M523.224 70.866C518.959 73.3289 517.497 78.7837 519.96 83.0496C522.423 87.3156 527.878 88.7772 532.144 86.3142C536.409 83.8513 537.871 78.3965 535.408 74.1306C532.945 69.8647 527.49 68.4031 523.224 70.866ZM523.224 70.866L518.5 63.2444L503.488 61.8179L485.721 31.9996M462.66 127.592L485.721 114.278L494.116 127.1L515.5 115.923L521.487 127.1M443.629 100.836L481.119 80.8056L513.345 86.3142L533.671 119.5M440.822 92.9999L469.031 76.713L472.56 62.6603L472.413 63.2444M452.551 113.318L480.761 97.0308L494.695 101.001L494.116 100.836M471.966 149.918C473.347 152.309 476.405 153.128 478.797 151.748L557.676 106.207C560.068 104.826 560.887 101.768 559.506 99.3765L513.222 19.2094C511.841 16.818 508.783 15.9986 506.392 17.3793L427.512 62.9205C425.121 64.3012 424.301 67.3591 425.682 69.7506L471.966 149.918ZM480.855 52.3491C483.318 56.615 481.857 62.0698 477.591 64.5327C473.325 66.9956 467.87 65.534 465.407 61.2681C462.944 57.0022 464.406 51.5474 468.672 49.0845C472.938 46.6216 478.393 48.0832 480.855 52.3491ZM507.773 98.9719C505.31 94.706 499.855 93.2444 495.589 95.7073C491.324 98.1702 489.862 103.625 492.325 107.891C494.788 112.157 500.243 113.618 504.509 111.156C508.774 108.693 510.236 103.238 507.773 98.9719Z" stroke="#96B48B" stroke-width="6"/>
</g>
<g filter="url(#filter5_d_371_3062)">
<circle cx="98.4661" cy="98.4661" r="98.4661" transform="matrix(-0.866025 0.5 0.5 0.866025 172.738 407.02)" fill="#D4E2FC"/>
<circle cx="135.462" cy="548.39" r="50.2047" transform="rotate(150 135.462 548.39)" fill="#FFF7CD"/>
<circle cx="141.587" cy="544.853" r="50.2047" transform="rotate(150 141.587 544.853)" fill="#F5CA60"/>
<path d="M131.303 518.263L160.394 568.65L157.166 570.514L128.075 520.127L131.303 518.263ZM142.23 556.962C143.304 558.459 144.692 559.302 146.393 559.492C148.095 559.681 149.969 559.185 152.016 558.004C153.407 557.201 154.468 556.326 155.199 555.379C155.937 554.446 156.365 553.49 156.483 552.512C156.587 551.542 156.39 550.624 155.89 549.758C155.499 549.021 154.985 548.478 154.346 548.13C153.694 547.789 152.959 547.592 152.142 547.539C151.332 547.499 150.456 547.559 149.515 547.717C148.582 547.888 147.619 548.129 146.626 548.44L142.505 549.665C140.519 550.287 138.602 550.694 136.754 550.886C134.905 551.078 133.167 551.006 131.538 550.67C129.909 550.333 128.424 549.686 127.083 548.727C125.73 547.777 124.562 546.466 123.579 544.794C122.168 542.319 121.563 539.817 121.764 537.286C121.959 534.776 122.937 532.349 124.697 530.003C126.451 527.678 128.969 525.568 132.249 523.674C135.503 521.796 138.625 520.658 141.615 520.261C144.592 519.872 147.321 520.265 149.801 521.44C152.276 522.635 154.383 524.664 156.123 527.526L147.876 532.287C147.004 530.989 145.966 530.084 144.761 529.573C143.55 529.082 142.235 528.94 140.815 529.147C139.389 529.376 137.942 529.914 136.472 530.762C135.029 531.596 133.897 532.529 133.077 533.563C132.243 534.604 131.747 535.669 131.588 536.758C131.43 537.846 131.631 538.876 132.191 539.847C132.714 540.753 133.422 541.358 134.316 541.665C135.197 541.978 136.275 542.056 137.548 541.898C138.808 541.748 140.276 541.426 141.95 540.931L146.975 539.5C150.851 538.364 154.281 538.107 157.264 538.729C160.248 539.351 162.592 541.155 164.299 544.141C165.721 546.575 166.303 549.082 166.044 551.663C165.771 554.252 164.776 556.725 163.058 559.082C161.339 561.439 159.01 563.466 156.071 565.163C153.079 566.89 150.173 567.886 147.351 568.15C144.516 568.422 141.949 568.006 139.65 566.902C137.35 565.798 135.487 564.056 134.062 561.678L142.23 556.962Z" fill="#FFF7CD"/>
</g>
<g filter="url(#filter6_d_371_3062)">
<circle cx="98.4661" cy="98.4661" r="98.4661" transform="matrix(-0.866025 0.5 0.5 0.866025 405.136 272.845)" fill="#D4E2FC"/>
<rect x="340.984" y="415.352" width="15.748" height="55.1178" transform="rotate(-30 340.984 415.352)" fill="#6A6A6A"/>
<rect x="344.906" y="374.902" width="15.748" height="88.1885" transform="rotate(-30 344.906 374.902)" fill="#6A6A6A"/>
<rect x="374.02" y="378.093" width="15.748" height="74.0154" transform="rotate(-30 374.02 378.093)" fill="#6A6A6A"/>
<rect x="300.839" y="393.068" width="13.6759" height="98.4661" transform="rotate(-30 300.839 393.068)" fill="#E5CCCC"/>
<rect x="437.349" y="421.637" width="13.6759" height="103.936" transform="rotate(60 437.349 421.637)" fill="#E5CCCC"/>
</g>
</g>
</g>
<defs>
<filter id="filter0_d_371_3062" x="-102.392" y="225.469" width="256.965" height="256.965" filterUnits="userSpaceOnUse" color-interpolation-filters="sRGB">
<feFlood flood-opacity="0" result="BackgroundImageFix"/>
<feColorMatrix in="SourceAlpha" type="matrix" values="0 0 0 0 0 0 0 0 0 0 0 0 0 0 0 0 0 0 127 0" result="hardAlpha"/>
<feOffset dy="4"/>
<feGaussianBlur stdDeviation="15"/>
<feComposite in2="hardAlpha" operator="out"/>
<feColorMatrix type="matrix" values="0 0 0 0 0.604653 0 0 0 0 0.604653 0 0 0 0 0.604653 0 0 0 0.25 0"/>
<feBlend mode="normal" in2="BackgroundImageFix" result="effect1_dropShadow_371_3062"/>
<feBlend mode="normal" in="SourceGraphic" in2="effect1_dropShadow_371_3062" result="shape"/>
</filter>
<filter id="filter1_d_371_3062" x="473.009" y="148.696" width="256.965" height="256.965" filterUnits="userSpaceOnUse" color-interpolation-filters="sRGB">
<feFlood flood-opacity="0" result="BackgroundImageFix"/>
<feColorMatrix in="SourceAlpha" type="matrix" values="0 0 0 0 0 0 0 0 0 0 0 0 0 0 0 0 0 0 127 0" result="hardAlpha"/>
<feOffset dy="4"/>
<feGaussianBlur stdDeviation="15"/>
<feComposite in2="hardAlpha" operator="out"/>
<feColorMatrix type="matrix" values="0 0 0 0 0.604653 0 0 0 0 0.604653 0 0 0 0 0.604653 0 0 0 0.25 0"/>
<feBlend mode="normal" in2="BackgroundImageFix" result="effect1_dropShadow_371_3062"/>
<feBlend mode="normal" in="SourceGraphic" in2="effect1_dropShadow_371_3062" result="shape"/>
</filter>
<filter id="filter2_d_371_3062" x="130.006" y="91.2949" width="256.965" height="256.965" filterUnits="userSpaceOnUse" color-interpolation-filters="sRGB">
<feFlood flood-opacity="0" result="BackgroundImageFix"/>
<feColorMatrix in="SourceAlpha" type="matrix" values="0 0 0 0 0 0 0 0 0 0 0 0 0 0 0 0 0 0 127 0" result="hardAlpha"/>
<feOffset dy="4"/>
<feGaussianBlur stdDeviation="15"/>
<feComposite in2="hardAlpha" operator="out"/>
<feColorMatrix type="matrix" values="0 0 0 0 0.604653 0 0 0 0 0.604653 0 0 0 0 0.604653 0 0 0 0.25 0"/>
<feBlend mode="normal" in2="BackgroundImageFix" result="effect1_dropShadow_371_3062"/>
<feBlend mode="normal" in="SourceGraphic" in2="effect1_dropShadow_371_3062" result="shape"/>
</filter>
<filter id="filter3_d_371_3062" x="-6.97266" y="-99.8647" width="256.932" height="256.932" filterUnits="userSpaceOnUse" color-interpolation-filters="sRGB">
<feFlood flood-opacity="0" result="BackgroundImageFix"/>
<feColorMatrix in="SourceAlpha" type="matrix" values="0 0 0 0 0 0 0 0 0 0 0 0 0 0 0 0 0 0 127 0" result="hardAlpha"/>
<feOffset dy="4"/>
<feGaussianBlur stdDeviation="15"/>
<feComposite in2="hardAlpha" operator="out"/>
<feColorMatrix type="matrix" values="0 0 0 0 0.604653 0 0 0 0 0.604653 0 0 0 0 0.604653 0 0 0 0.25 0"/>
<feBlend mode="normal" in2="BackgroundImageFix" result="effect1_dropShadow_371_3062"/>
<feBlend mode="normal" in="SourceGraphic" in2="effect1_dropShadow_371_3062" result="shape"/>
</filter>
<filter id="filter4_d_371_3062" x="362.404" y="-42.8804" width="256.965" height="256.965" filterUnits="userSpaceOnUse" color-interpolation-filters="sRGB">
<feFlood flood-opacity="0" result="BackgroundImageFix"/>
<feColorMatrix in="SourceAlpha" type="matrix" values="0 0 0 0 0 0 0 0 0 0 0 0 0 0 0 0 0 0 127 0" result="hardAlpha"/>
<feOffset dy="4"/>
<feGaussianBlur stdDeviation="15"/>
<feComposite in2="hardAlpha" operator="out"/>
<feColorMatrix type="matrix" values="0 0 0 0 0.604653 0 0 0 0 0.604653 0 0 0 0 0.604653 0 0 0 0.25 0"/>
<feBlend mode="normal" in2="BackgroundImageFix" result="effect1_dropShadow_371_3062"/>
<feBlend mode="normal" in="SourceGraphic" in2="effect1_dropShadow_371_3062" result="shape"/>
</filter>
<filter id="filter5_d_371_3062" x="8.21484" y="417.044" width="256.965" height="256.965" filterUnits="userSpaceOnUse" color-interpolation-filters="sRGB">
<feFlood flood-opacity="0" result="BackgroundImageFix"/>
<feColorMatrix in="SourceAlpha" type="matrix" values="0 0 0 0 0 0 0 0 0 0 0 0 0 0 0 0 0 0 127 0" result="hardAlpha"/>
<feOffset dy="4"/>
<feGaussianBlur stdDeviation="15"/>
<feComposite in2="hardAlpha" operator="out"/>
<feColorMatrix type="matrix" values="0 0 0 0 0.604653 0 0 0 0 0.604653 0 0 0 0 0.604653 0 0 0 0.25 0"/>
<feBlend mode="normal" in2="BackgroundImageFix" result="effect1_dropShadow_371_3062"/>
<feBlend mode="normal" in="SourceGraphic" in2="effect1_dropShadow_371_3062" result="shape"/>
</filter>
<filter id="filter6_d_371_3062" x="240.612" y="282.87" width="256.965" height="256.965" filterUnits="userSpaceOnUse" color-interpolation-filters="sRGB">
<feFlood flood-opacity="0" result="BackgroundImageFix"/>
<feColorMatrix in="SourceAlpha" type="matrix" values="0 0 0 0 0 0 0 0 0 0 0 0 0 0 0 0 0 0 127 0" result="hardAlpha"/>
<feOffset dy="4"/>
<feGaussianBlur stdDeviation="15"/>
<feComposite in2="hardAlpha" operator="out"/>
<feColorMatrix type="matrix" values="0 0 0 0 0.604653 0 0 0 0 0.604653 0 0 0 0 0.604653 0 0 0 0.25 0"/>
<feBlend mode="normal" in2="BackgroundImageFix" result="effect1_dropShadow_371_3062"/>
<feBlend mode="normal" in="SourceGraphic" in2="effect1_dropShadow_371_3062" result="shape"/>
</filter>
<clipPath id="clip0_371_3062">
<rect width="90.2606" height="90.2606" fill="white" transform="matrix(-0.866025 0.5 0.5 0.866025 620.247 218.134)"/>
</clipPath>
<clipPath id="clip1_371_3062">
<rect width="96" height="96" fill="white" transform="matrix(-0.5 -0.866025 -0.866025 0.5 182.466 51.356)"/>
</clipPath>
</defs>
</svg>
