<svg width="556" height="306" viewBox="0 0 556 306" fill="none" xmlns="http://www.w3.org/2000/svg">
<g filter="url(#filter0_d_7_1456)">
<ellipse cx="122" cy="144.5" rx="92" ry="92.5" fill="#FFFDEF"/>
<path d="M121.154 148.339L174.347 176.98L124.413 184.64L71.2201 155.998L121.154 148.339Z" fill="#B85D51"/>
<path d="M169.727 151.831C169.199 160.943 169.077 166.146 169.272 175.66L122.8 181.641C120.911 173.847 120.984 168.875 123.254 157.811L169.727 151.831Z" fill="#FFF7CD"/>
<path d="M124.75 160.771L174.264 154.873" stroke="#E37464" stroke-linecap="round"/>
<path d="M71.5318 132.617L124.717 161.32C124.717 161.32 123.144 169.202 123.071 173.851C122.998 178.5 124.486 184.629 124.486 184.629L70.9207 156.254C67.8206 147.84 68.1852 142.771 71.5318 132.617Z" fill="#B85D51"/>
<path d="M121.153 124.235L174.264 154.022L124.643 161.552L71.5311 132.617L121.153 124.235Z" fill="#E37464"/>
<path d="M124.75 183.747L174.264 177.849" stroke="#B85D51" stroke-linecap="round"/>
<path d="M123.754 127.527L169.307 152.055L126.545 158.614L80.992 134.086L123.754 127.527Z" fill="#E37464"/>
<path d="M165.351 130.517C164.899 138.32 164.794 142.776 164.962 150.923L125.163 156.045C123.546 149.371 123.609 145.113 125.552 135.638L165.351 130.517Z" fill="#FFF7CD"/>
<path d="M126.837 138.173L169.24 133.122" stroke="#FFD3C0" stroke-linecap="round"/>
<path d="M81.259 114.062L126.806 138.643C126.806 138.643 125.458 145.393 125.396 149.374C125.333 153.356 126.608 158.604 126.608 158.604L80.7356 134.305C78.0807 127.099 78.393 122.758 81.259 114.062Z" fill="#E37464"/>
<path d="M123.755 106.884L169.239 132.393L126.744 138.842L81.2602 114.062L123.755 106.884Z" fill="#FFD3C0"/>
<path d="M126.837 157.849L169.24 152.798" stroke="#E37464" stroke-linecap="round"/>
</g>
<path d="M265.5 162.812C265.417 161.896 265.188 159.979 264.812 157.062C264.479 154.146 264.312 151.875 264.312 150.25C264.312 147.958 265.146 145.792 266.812 143.75C268.479 141.708 271.062 139.146 274.562 136.062C278.646 132.479 281.729 129.375 283.812 126.75C285.938 124.083 287 121.083 287 117.75C287 114.25 285.875 111.667 283.625 110C281.417 108.333 278.062 107.5 273.562 107.5C270.938 107.5 268.229 107.75 265.438 108.25C262.646 108.708 260.875 109.021 260.125 109.188L258.062 99.5625C258.479 99.3958 259.5 99.0833 261.125 98.625C262.75 98.1667 264.75 97.7292 267.125 97.3125C269.542 96.8542 271.896 96.625 274.188 96.625C281.854 96.625 288.146 98.1667 293.062 101.25C297.979 104.333 300.438 109.417 300.438 116.5C300.438 119.833 299.771 122.917 298.438 125.75C297.104 128.542 295.521 130.958 293.688 133C291.854 135.042 289.417 137.521 286.375 140.438C283.125 143.438 280.708 145.917 279.125 147.875C277.542 149.833 276.75 151.917 276.75 154.125C276.75 156.167 276.792 157.896 276.875 159.312C276.958 160.729 277 161.646 277 162.062L265.5 162.812ZM263.938 184.312C263.938 181.521 264.75 179.333 266.375 177.75C268 176.167 269.958 175.375 272.25 175.375C274.792 175.375 276.812 176.167 278.312 177.75C279.854 179.333 280.625 181.521 280.625 184.312C280.625 187.062 279.833 189.25 278.25 190.875C276.667 192.458 274.667 193.25 272.25 193.25C269.708 193.25 267.688 192.479 266.188 190.938C264.688 189.354 263.938 187.146 263.938 184.312Z" fill="#E37464"/>
<g filter="url(#filter1_d_7_1456)">
<ellipse cx="434" cy="144.5" rx="92" ry="92.5" fill="#FFFDEF"/>
<path d="M383.675 110.958H478.878C475.877 140.441 475.062 156.069 475.155 182.334H379.952C376.975 155.715 383.675 110.958 383.675 110.958Z" fill="#FFD3C0"/>
<path fill-rule="evenodd" clip-rule="evenodd" d="M437.837 111.892C437.837 111.892 437.837 111.892 437.837 111.892C437.837 107.934 434.234 104.057 428.932 104.057C423.63 104.057 420.027 107.934 420.027 111.892C420.027 111.892 420.027 111.892 420.027 111.892H415.027C415.027 111.892 415.027 111.892 415.027 111.892C415.027 104.804 421.253 99.0571 428.932 99.0571C436.611 99.0571 442.837 104.804 442.837 111.892C442.837 111.892 442.837 111.892 442.837 111.892H437.837Z" fill="#E37464"/>
<path d="M478.287 110.957C483.924 108.452 489.135 175.782 489.135 175.782L475.051 182.358C475.051 182.358 472.651 113.463 478.287 110.957Z" fill="#B85D51"/>
<rect x="414.519" y="139.889" width="22.3056" height="9.7791" rx="3" stroke="#FFF7CD" stroke-width="4"/>
<path d="M384.964 110.957H476.578L467.012 143.45H386.045L384.964 110.957Z" fill="#E37464"/>
</g>
<defs>
<filter id="filter0_d_7_1456" x="0" y="26" width="244" height="245" filterUnits="userSpaceOnUse" color-interpolation-filters="sRGB">
<feFlood flood-opacity="0" result="BackgroundImageFix"/>
<feColorMatrix in="SourceAlpha" type="matrix" values="0 0 0 0 0 0 0 0 0 0 0 0 0 0 0 0 0 0 127 0" result="hardAlpha"/>
<feOffset dy="4"/>
<feGaussianBlur stdDeviation="15"/>
<feComposite in2="hardAlpha" operator="out"/>
<feColorMatrix type="matrix" values="0 0 0 0 0.662987 0 0 0 0 0.662987 0 0 0 0 0.662987 0 0 0 0.25 0"/>
<feBlend mode="normal" in2="BackgroundImageFix" result="effect1_dropShadow_7_1456"/>
<feBlend mode="normal" in="SourceGraphic" in2="effect1_dropShadow_7_1456" result="shape"/>
</filter>
<filter id="filter1_d_7_1456" x="312" y="26" width="244" height="245" filterUnits="userSpaceOnUse" color-interpolation-filters="sRGB">
<feFlood flood-opacity="0" result="BackgroundImageFix"/>
<feColorMatrix in="SourceAlpha" type="matrix" values="0 0 0 0 0 0 0 0 0 0 0 0 0 0 0 0 0 0 127 0" result="hardAlpha"/>
<feOffset dy="4"/>
<feGaussianBlur stdDeviation="15"/>
<feComposite in2="hardAlpha" operator="out"/>
<feColorMatrix type="matrix" values="0 0 0 0 0.662987 0 0 0 0 0.662987 0 0 0 0 0.662987 0 0 0 0.25 0"/>
<feBlend mode="normal" in2="BackgroundImageFix" result="effect1_dropShadow_7_1456"/>
<feBlend mode="normal" in="SourceGraphic" in2="effect1_dropShadow_7_1456" result="shape"/>
</filter>
</defs>
</svg>
