<svg width="587" height="366" viewBox="0 0 587 366" fill="none" xmlns="http://www.w3.org/2000/svg">
<g filter="url(#filter0_d_7_1454)">
<circle cx="105.333" cy="220.376" r="75.3327" fill="#EBFAFF"/>
<path fill-rule="evenodd" clip-rule="evenodd" d="M105.405 194.241C97.3028 194.241 89.9202 196.917 85.5527 199.103C85.1581 199.301 84.7904 199.494 84.4478 199.681C83.7698 200.05 83.1922 200.395 82.7331 200.698L87.7014 208.012L90.0403 208.943C99.1807 213.555 111.438 213.555 120.581 208.943L123.235 207.566L127.934 200.698C126.961 200.063 125.949 199.49 124.903 198.981C120.559 196.818 113.354 194.241 105.405 194.241ZM93.8482 202.52C92.0889 202.191 90.3512 201.755 88.6449 201.214C92.7362 199.397 98.8345 197.469 105.403 197.469C109.953 197.469 114.256 198.395 117.815 199.568C113.645 200.154 109.195 201.15 104.954 202.375C101.618 203.34 97.7189 203.236 93.8482 202.52V202.52ZM122.475 211.603L122.035 211.826C111.978 216.898 98.6408 216.898 88.5839 211.826L88.1678 211.614C73.0618 228.189 61.5287 258.806 105.405 258.806C149.277 258.806 137.462 227.617 122.475 211.603ZM103.539 226.526C102.588 226.526 101.675 226.904 101.003 227.577C100.33 228.25 99.952 229.162 99.952 230.113C99.952 231.065 100.33 231.977 101.003 232.65C101.675 233.323 102.588 233.701 103.539 233.701V226.526ZM107.127 222.939V221.145H103.539V222.939C101.636 222.939 99.8116 223.695 98.4661 225.04C97.1206 226.386 96.3647 228.211 96.3647 230.113C96.3647 232.016 97.1206 233.841 98.4661 235.187C99.8116 236.532 101.636 237.288 103.539 237.288V244.463C102.797 244.463 102.074 244.233 101.468 243.805C100.862 243.377 100.404 242.771 100.156 242.072C99.998 241.623 99.6679 241.256 99.2387 241.051C98.8095 240.845 98.3163 240.819 97.8678 240.977C97.4192 241.136 97.0519 241.466 96.8467 241.895C96.6415 242.324 96.6152 242.818 96.7736 243.266C97.2684 244.665 98.1847 245.876 99.3963 246.733C100.608 247.59 102.055 248.05 103.539 248.05V249.843H107.127V248.05C109.029 248.05 110.854 247.294 112.2 245.948C113.545 244.603 114.301 242.778 114.301 240.875C114.301 238.972 113.545 237.148 112.2 235.802C110.854 234.457 109.029 233.701 107.127 233.701V226.526C108.687 226.526 110.016 227.522 110.511 228.917C110.585 229.145 110.703 229.357 110.86 229.538C111.016 229.72 111.207 229.869 111.422 229.975C111.637 230.081 111.871 230.144 112.111 230.158C112.35 230.173 112.59 230.139 112.816 230.059C113.042 229.979 113.25 229.855 113.427 229.693C113.604 229.531 113.747 229.336 113.848 229.118C113.948 228.9 114.004 228.665 114.011 228.425C114.019 228.185 113.978 227.946 113.892 227.723C113.397 226.324 112.481 225.112 111.269 224.256C110.058 223.399 108.61 222.939 107.127 222.939ZM107.127 237.288V244.463C108.078 244.463 108.99 244.085 109.663 243.412C110.336 242.739 110.714 241.827 110.714 240.875C110.714 239.924 110.336 239.011 109.663 238.339C108.99 237.666 108.078 237.288 107.127 237.288Z" fill="#F5CA60"/>
</g>
<g filter="url(#filter1_d_7_1454)">
<circle cx="481.359" cy="256.278" r="75.3327" fill="#EBFAFF"/>
<path d="M481.358 228.605C474.632 228.613 468.185 231.288 463.429 236.044C458.674 240.799 455.998 247.247 455.991 253.972C455.982 259.468 457.778 264.815 461.101 269.192C461.101 269.192 461.793 270.103 461.906 270.235L481.358 293.176L500.819 270.223C500.92 270.101 501.614 269.192 501.614 269.192L501.617 269.185C504.938 264.81 506.733 259.466 506.725 253.972C506.717 247.247 504.042 240.799 499.286 236.044C494.531 231.288 488.083 228.613 481.358 228.605V228.605ZM481.358 263.197C479.533 263.197 477.75 262.656 476.233 261.642C474.716 260.628 473.534 259.188 472.835 257.502C472.137 255.817 471.955 253.962 472.31 252.173C472.666 250.383 473.545 248.74 474.835 247.449C476.125 246.159 477.769 245.281 479.558 244.925C481.347 244.569 483.202 244.752 484.888 245.45C486.573 246.148 488.014 247.33 489.027 248.847C490.041 250.364 490.582 252.148 490.582 253.972C490.579 256.418 489.606 258.762 487.877 260.491C486.148 262.221 483.803 263.193 481.358 263.197V263.197Z" fill="#E37464"/>
</g>
<g filter="url(#filter2_d_7_1454)">
<circle cx="330.194" cy="101.333" r="75.3327" fill="#EBFAFF"/>
<path d="M309.787 73.8137C313.084 73.8137 315.735 70.9581 315.735 67.4069C315.735 63.8556 313.084 61 309.787 61C306.491 61 303.839 63.8556 303.839 67.4069C303.839 70.9581 306.491 73.8137 309.787 73.8137ZM316.585 119.577V101.272H319.984V84.7969C319.984 80.7698 316.925 77.4748 313.186 77.4748H306.389C302.65 77.4748 299.591 80.7698 299.591 84.7969V101.272H302.99V119.577H316.585Z" fill="#00BCD4"/>
<path d="M348.889 73.8137C352.26 73.8137 354.972 70.9581 354.972 67.4069C354.972 63.8556 352.26 61 348.889 61C345.517 61 342.805 63.8556 342.805 67.4069C342.805 70.9581 345.517 73.8137 348.889 73.8137ZM355.841 104.933V119.577H341.936V104.933H334.984L343.257 81.5752C343.691 80.3723 344.462 79.3368 345.468 78.6061C346.474 77.8754 347.667 77.4841 348.889 77.4841C350.11 77.4841 351.303 77.8754 352.309 78.6061C353.315 79.3368 354.086 80.3723 354.52 81.5752L362.793 104.933H355.841Z" fill="#00BCD4"/>
<path d="M286.692 135.577C286.692 131.711 289.826 128.577 293.692 128.577H331.192V142.577H293.692C289.826 142.577 286.692 139.443 286.692 135.577V135.577Z" fill="#00BCD4"/>
<path d="M368.692 129.077H331.692V142.077H368.692C372.282 142.077 375.192 139.167 375.192 135.577C375.192 131.987 372.282 129.077 368.692 129.077Z" fill="#EBFAFF" stroke="#00BCD4"/>
</g>
<path d="M242.106 274.303C242.027 273.437 241.811 271.626 241.457 268.87C241.142 266.115 240.984 263.969 240.984 262.434C240.984 260.269 241.771 258.222 243.346 256.293C244.921 254.364 247.362 251.943 250.668 249.03C254.526 245.644 257.439 242.711 259.408 240.231C261.415 237.712 262.419 234.878 262.419 231.728C262.419 228.421 261.356 225.981 259.23 224.406C257.144 222.831 253.975 222.044 249.723 222.044C247.243 222.044 244.685 222.28 242.047 222.753C239.41 223.186 237.736 223.481 237.028 223.638L235.079 214.545C235.473 214.387 236.437 214.092 237.973 213.659C239.508 213.226 241.398 212.813 243.641 212.419C245.925 211.986 248.149 211.77 250.314 211.77C257.557 211.77 263.502 213.226 268.147 216.139C272.792 219.052 275.115 223.855 275.115 230.547C275.115 233.697 274.485 236.61 273.225 239.287C271.965 241.924 270.47 244.207 268.737 246.136C267.005 248.065 264.702 250.408 261.829 253.163C258.758 255.998 256.475 258.34 254.979 260.19C253.483 262.04 252.735 264.009 252.735 266.095C252.735 268.024 252.774 269.658 252.853 270.996C252.932 272.335 252.971 273.201 252.971 273.594L242.106 274.303ZM240.63 294.616C240.63 291.978 241.398 289.912 242.933 288.416C244.468 286.92 246.318 286.172 248.483 286.172C250.885 286.172 252.794 286.92 254.211 288.416C255.668 289.912 256.396 291.978 256.396 294.616C256.396 297.214 255.648 299.281 254.152 300.816C252.656 302.312 250.767 303.06 248.483 303.06C246.082 303.06 244.173 302.332 242.756 300.875C241.338 299.379 240.63 297.293 240.63 294.616Z" fill="#00BCD4"/>
<path d="M508.537 108.02C508.458 107.154 508.241 105.343 507.887 102.587C507.572 99.8315 507.415 97.686 507.415 96.1508C507.415 93.9856 508.202 91.9386 509.777 90.0096C511.351 88.0807 513.792 85.6596 517.099 82.7465C520.957 79.361 523.87 76.4282 525.838 73.9482C527.846 71.4287 528.85 68.5943 528.85 65.445C528.85 62.1383 527.787 59.6976 525.661 58.1229C523.575 56.5483 520.406 55.7609 516.154 55.7609C513.674 55.7609 511.115 55.9971 508.478 56.4695C505.84 56.9026 504.167 57.1978 503.458 57.3553L501.51 48.2617C501.903 48.1042 502.868 47.8089 504.403 47.3759C505.938 46.9429 507.828 46.5295 510.072 46.1359C512.355 45.7028 514.579 45.4863 516.745 45.4863C523.988 45.4863 529.932 46.9429 534.577 49.856C539.223 52.7691 541.545 57.5718 541.545 64.2641C541.545 67.4134 540.915 70.3265 539.656 73.0034C538.396 75.6409 536.9 77.9242 535.168 79.8531C533.436 81.7821 531.133 84.1243 528.259 86.88C525.189 89.7144 522.905 92.0567 521.409 93.9069C519.914 95.7571 519.166 97.7254 519.166 99.8118C519.166 101.741 519.205 103.374 519.284 104.713C519.362 106.051 519.402 106.917 519.402 107.311L508.537 108.02ZM507.06 128.333C507.06 125.695 507.828 123.628 509.363 122.133C510.899 120.637 512.749 119.889 514.914 119.889C517.315 119.889 519.225 120.637 520.642 122.133C522.098 123.628 522.827 125.695 522.827 128.333C522.827 130.931 522.079 132.998 520.583 134.533C519.087 136.029 517.197 136.777 514.914 136.777C512.513 136.777 510.603 136.048 509.186 134.592C507.769 133.096 507.06 131.01 507.06 128.333Z" fill="#00BCD4"/>
<path d="M123.062 92.903C122.983 92.0369 122.766 90.2261 122.412 87.4704C122.097 84.7148 121.94 82.5693 121.94 81.0341C121.94 78.8689 122.727 76.8219 124.302 74.8929C125.876 72.964 128.317 70.5429 131.624 67.6298C135.482 64.2443 138.395 61.3115 140.363 58.8315C142.371 56.312 143.375 53.4776 143.375 50.3283C143.375 47.0216 142.312 44.5809 140.186 43.0062C138.099 41.4316 134.93 40.6442 130.679 40.6442C128.199 40.6442 125.64 40.8804 123.003 41.3528C120.365 41.7859 118.692 42.0811 117.983 42.2386L116.035 33.145C116.428 32.9875 117.393 32.6922 118.928 32.2592C120.463 31.8262 122.353 31.4128 124.597 31.0192C126.88 30.5861 129.104 30.3696 131.269 30.3696C138.513 30.3696 144.457 31.8262 149.102 34.7393C153.748 37.6524 156.07 42.4551 156.07 49.1474C156.07 52.2967 155.44 55.2098 154.181 57.8867C152.921 60.5242 151.425 62.8075 149.693 64.7364C147.961 66.6654 145.658 69.0076 142.784 71.7633C139.713 74.5977 137.43 76.94 135.934 78.7902C134.438 80.6404 133.69 82.6087 133.69 84.6951C133.69 86.6241 133.73 88.2578 133.809 89.5962C133.887 90.9347 133.927 91.8007 133.927 92.1944L123.062 92.903ZM121.585 113.216C121.585 110.578 122.353 108.512 123.888 107.016C125.424 105.52 127.274 104.772 129.439 104.772C131.84 104.772 133.75 105.52 135.167 107.016C136.623 108.512 137.352 110.578 137.352 113.216C137.352 115.814 136.604 117.881 135.108 119.416C133.612 120.912 131.722 121.66 129.439 121.66C127.038 121.66 125.128 120.932 123.711 119.475C122.294 117.979 121.585 115.893 121.585 113.216Z" fill="#00BCD4"/>
<defs>
<filter id="filter0_d_7_1454" x="0" y="119.044" width="210.665" height="210.665" filterUnits="userSpaceOnUse" color-interpolation-filters="sRGB">
<feFlood flood-opacity="0" result="BackgroundImageFix"/>
<feColorMatrix in="SourceAlpha" type="matrix" values="0 0 0 0 0 0 0 0 0 0 0 0 0 0 0 0 0 0 127 0" result="hardAlpha"/>
<feOffset dy="4"/>
<feGaussianBlur stdDeviation="15"/>
<feComposite in2="hardAlpha" operator="out"/>
<feColorMatrix type="matrix" values="0 0 0 0 0.617153 0 0 0 0 0.617153 0 0 0 0 0.617153 0 0 0 0.25 0"/>
<feBlend mode="normal" in2="BackgroundImageFix" result="effect1_dropShadow_7_1454"/>
<feBlend mode="normal" in="SourceGraphic" in2="effect1_dropShadow_7_1454" result="shape"/>
</filter>
<filter id="filter1_d_7_1454" x="376.026" y="154.946" width="210.665" height="210.665" filterUnits="userSpaceOnUse" color-interpolation-filters="sRGB">
<feFlood flood-opacity="0" result="BackgroundImageFix"/>
<feColorMatrix in="SourceAlpha" type="matrix" values="0 0 0 0 0 0 0 0 0 0 0 0 0 0 0 0 0 0 127 0" result="hardAlpha"/>
<feOffset dy="4"/>
<feGaussianBlur stdDeviation="15"/>
<feComposite in2="hardAlpha" operator="out"/>
<feColorMatrix type="matrix" values="0 0 0 0 0.617153 0 0 0 0 0.617153 0 0 0 0 0.617153 0 0 0 0.25 0"/>
<feBlend mode="normal" in2="BackgroundImageFix" result="effect1_dropShadow_7_1454"/>
<feBlend mode="normal" in="SourceGraphic" in2="effect1_dropShadow_7_1454" result="shape"/>
</filter>
<filter id="filter2_d_7_1454" x="224.861" y="0" width="210.665" height="210.666" filterUnits="userSpaceOnUse" color-interpolation-filters="sRGB">
<feFlood flood-opacity="0" result="BackgroundImageFix"/>
<feColorMatrix in="SourceAlpha" type="matrix" values="0 0 0 0 0 0 0 0 0 0 0 0 0 0 0 0 0 0 127 0" result="hardAlpha"/>
<feOffset dy="4"/>
<feGaussianBlur stdDeviation="15"/>
<feComposite in2="hardAlpha" operator="out"/>
<feColorMatrix type="matrix" values="0 0 0 0 0.617153 0 0 0 0 0.617153 0 0 0 0 0.617153 0 0 0 0.25 0"/>
<feBlend mode="normal" in2="BackgroundImageFix" result="effect1_dropShadow_7_1454"/>
<feBlend mode="normal" in="SourceGraphic" in2="effect1_dropShadow_7_1454" result="shape"/>
</filter>
</defs>
</svg>
