<svg width="618" height="628" viewBox="0 0 618 628" fill="none" xmlns="http://www.w3.org/2000/svg">
<path d="M34.7522 287.012C34.3628 283.037 33.292 274.726 31.5398 262.078C29.9823 249.431 29.2035 239.583 29.2035 232.537C29.2035 222.599 33.0973 213.204 40.885 204.351C48.6726 195.497 60.7434 184.385 77.0974 171.015C96.177 155.476 110.584 142.016 120.319 130.633C130.248 119.069 135.212 106.06 135.212 91.6054C135.212 76.4282 129.956 65.226 119.442 57.9987C109.124 50.7715 93.4513 47.1578 72.4248 47.1578C60.1593 47.1578 47.5044 48.2419 34.4602 50.4101C21.4159 52.3976 13.1416 53.7527 9.63717 54.4754L0 12.738C1.9469 12.0153 6.71681 10.6602 14.3097 8.6727C21.9027 6.68521 31.2478 4.78805 42.3451 2.98124C53.6372 0.993747 64.6372 0 75.3451 0C111.168 0 140.566 6.68521 163.54 20.0556C186.513 33.426 198 55.4692 198 86.185C198 100.639 194.885 114.01 188.655 126.296C182.425 138.402 175.027 148.881 166.46 157.735C157.894 166.588 146.504 177.339 132.292 189.986C117.106 202.995 105.814 213.746 98.4159 222.238C91.0177 230.73 87.3186 239.764 87.3186 249.34C87.3186 258.194 87.5133 265.692 87.9027 271.835C88.292 277.978 88.4867 281.953 88.4867 283.76L34.7522 287.012ZM27.4513 380.244C27.4513 368.138 31.2478 358.652 38.8407 351.787C46.4336 344.921 55.5841 341.488 66.292 341.488C78.1681 341.488 87.6106 344.921 94.6195 351.787C101.823 358.652 105.425 368.138 105.425 380.244C105.425 392.169 101.726 401.655 94.3274 408.701C86.9292 415.567 77.5841 419 66.292 419C54.4159 419 44.9735 415.657 37.9646 408.972C30.9558 402.106 27.4513 392.53 27.4513 380.244Z" fill="#BCF7FF"/>
<path d="M585.881 340.988C586.24 344.963 587.23 353.274 588.85 365.922C590.289 378.569 591.009 388.417 591.009 395.463C591.009 405.401 587.41 414.796 580.212 423.649C573.015 432.503 561.858 443.615 546.743 456.985C529.109 472.524 515.794 485.984 506.796 497.367C497.619 508.931 493.031 521.94 493.031 536.395C493.031 551.572 497.889 562.774 507.606 570.001C517.143 577.229 531.628 580.842 551.062 580.842C562.398 580.842 574.094 579.758 586.15 577.59C598.206 575.602 605.854 574.247 609.093 573.525L618 615.262C616.201 615.985 611.792 617.34 604.774 619.327C597.757 621.315 589.119 623.212 578.863 625.019C568.426 627.006 558.26 628 548.363 628C515.254 628 488.083 621.315 466.85 607.944C445.616 594.574 435 572.531 435 541.815C435 527.36 437.879 513.99 443.637 501.704C449.395 489.598 456.233 479.119 464.15 470.265C472.068 461.412 482.594 450.661 495.73 438.014C509.765 425.005 520.202 414.254 527.04 405.762C533.878 397.27 537.296 388.236 537.296 378.66C537.296 369.806 537.117 362.308 536.757 356.165C536.397 350.022 536.217 346.047 536.217 344.24L585.881 340.988ZM592.628 247.756C592.628 259.862 589.119 269.348 582.102 276.213C575.084 283.079 566.627 286.512 556.73 286.512C545.754 286.512 537.027 283.079 530.549 276.213C523.891 269.348 520.562 259.862 520.562 247.756C520.562 235.831 523.981 226.345 530.819 219.299C537.656 212.433 546.294 209 556.73 209C567.707 209 576.434 212.343 582.912 219.028C589.389 225.894 592.628 235.47 592.628 247.756Z" fill="#BCF7FF"/>
<g filter="url(#filter0_d_371_3179)">
<circle cx="176.124" cy="331.124" r="92.1236" fill="#EBFAFF"/>
<path fill-rule="evenodd" clip-rule="evenodd" d="M176.212 299.162C166.304 299.162 157.276 302.435 151.935 305.109C151.452 305.35 151.003 305.587 150.584 305.815C149.755 306.267 149.048 306.688 148.487 307.059L154.563 316.003L157.423 317.142C168.601 322.781 183.59 322.781 194.77 317.142L198.017 315.457L203.763 307.059C202.573 306.282 201.335 305.581 200.056 304.96C194.744 302.314 185.933 299.162 176.212 299.162ZM162.08 309.287C159.928 308.885 157.803 308.351 155.716 307.69C160.72 305.468 168.177 303.111 176.21 303.111C181.774 303.111 187.036 304.242 191.388 305.677C186.288 306.394 180.846 307.611 175.661 309.11C171.581 310.29 166.813 310.162 162.08 309.287V309.287ZM197.087 320.395L196.549 320.667C184.251 326.87 167.94 326.87 155.642 320.667L155.133 320.408C136.66 340.677 122.556 378.119 176.212 378.119C229.863 378.119 215.415 339.977 197.087 320.395ZM173.931 338.644C172.767 338.644 171.651 339.106 170.829 339.929C170.006 340.751 169.544 341.867 169.544 343.031C169.544 344.194 170.006 345.31 170.829 346.133C171.651 346.955 172.767 347.418 173.931 347.418V338.644ZM178.317 334.257V332.064H173.931V334.257C171.604 334.257 169.372 335.181 167.727 336.827C166.081 338.472 165.157 340.704 165.157 343.031C165.157 345.358 166.081 347.589 167.727 349.235C169.372 350.88 171.604 351.804 173.931 351.804V360.578C173.023 360.578 172.138 360.297 171.398 359.774C170.657 359.25 170.096 358.51 169.794 357.654C169.6 357.106 169.196 356.657 168.672 356.406C168.147 356.155 167.544 356.123 166.995 356.316C166.446 356.51 165.997 356.914 165.746 357.439C165.495 357.963 165.463 358.567 165.657 359.115C166.262 360.826 167.383 362.307 168.864 363.355C170.346 364.402 172.116 364.965 173.931 364.965V367.158H178.317V364.965C180.644 364.965 182.876 364.041 184.521 362.395C186.167 360.75 187.091 358.518 187.091 356.191C187.091 353.864 186.167 351.633 184.521 349.987C182.876 348.342 180.644 347.418 178.317 347.418V338.644C180.226 338.644 181.851 339.861 182.456 341.568C182.546 341.847 182.691 342.105 182.883 342.327C183.074 342.55 183.308 342.731 183.571 342.861C183.834 342.992 184.12 343.068 184.413 343.085C184.705 343.103 184.999 343.062 185.275 342.964C185.552 342.866 185.806 342.714 186.022 342.517C186.239 342.319 186.414 342.08 186.537 341.814C186.659 341.547 186.727 341.259 186.737 340.966C186.746 340.673 186.697 340.381 186.591 340.107C185.986 338.396 184.865 336.915 183.384 335.867C181.902 334.82 180.132 334.257 178.317 334.257ZM178.317 351.804V360.578C179.481 360.578 180.597 360.116 181.419 359.293C182.242 358.471 182.704 357.355 182.704 356.191C182.704 355.028 182.242 353.912 181.419 353.089C180.597 352.267 179.481 351.804 178.317 351.804Z" fill="#F5CA60"/>
</g>
<g filter="url(#filter1_d_371_3179)">
<circle cx="367.667" cy="457.667" r="72.6673" fill="#EBFAFF"/>
<path d="M367.666 430.973C361.179 430.981 354.96 433.561 350.372 438.148C345.785 442.736 343.204 448.955 343.197 455.443C343.189 460.744 344.921 465.902 348.126 470.124C348.126 470.124 348.794 471.003 348.903 471.13L367.666 493.259L386.439 471.119C386.537 471.001 387.206 470.124 387.206 470.124L387.209 470.118C390.413 465.897 392.144 460.742 392.136 455.443C392.128 448.955 389.548 442.736 384.961 438.148C380.373 433.561 374.154 430.981 367.666 430.973V430.973ZM367.666 464.341C365.907 464.341 364.186 463.819 362.723 462.841C361.26 461.863 360.119 460.474 359.446 458.848C358.772 457.222 358.596 455.433 358.939 453.707C359.283 451.981 360.13 450.395 361.375 449.151C362.619 447.906 364.204 447.059 365.93 446.715C367.657 446.372 369.446 446.548 371.072 447.222C372.697 447.895 374.087 449.036 375.065 450.499C376.043 451.962 376.564 453.683 376.564 455.443C376.561 457.802 375.623 460.063 373.955 461.731C372.287 463.399 370.025 464.338 367.666 464.341V464.341Z" fill="#E37464"/>
</g>
<g filter="url(#filter2_d_371_3179)">
<circle cx="397.667" cy="209.667" r="129.667" fill="#EBFAFF"/>
<path d="M368.096 182.344C373.27 182.344 377.43 177.81 377.43 172.172C377.43 166.534 373.27 162 368.096 162C362.923 162 358.763 166.534 358.763 172.172C358.763 177.81 362.923 182.344 368.096 182.344ZM378.763 255V225.938H384.096V199.781C384.096 193.387 379.296 188.156 373.43 188.156H362.763C356.896 188.156 352.096 193.387 352.096 199.781V225.938H357.43V255H378.763Z" fill="#00BCD4"/>
<path d="M421.096 182.344C426.431 182.344 430.721 177.81 430.721 172.172C430.721 166.534 426.431 162 421.096 162C415.761 162 411.471 166.534 411.471 172.172C411.471 177.81 415.761 182.344 421.096 182.344ZM432.096 231.75V255H410.096V231.75H399.096L412.186 194.666C412.873 192.756 414.093 191.112 415.684 189.952C417.275 188.792 419.163 188.171 421.096 188.171C423.029 188.171 424.917 188.792 426.508 189.952C428.1 191.112 429.32 192.756 430.006 194.666L443.096 231.75H432.096Z" fill="#00BCD4"/>
</g>
<defs>
<filter id="filter0_d_371_3179" x="54" y="213" width="244.247" height="244.247" filterUnits="userSpaceOnUse" color-interpolation-filters="sRGB">
<feFlood flood-opacity="0" result="BackgroundImageFix"/>
<feColorMatrix in="SourceAlpha" type="matrix" values="0 0 0 0 0 0 0 0 0 0 0 0 0 0 0 0 0 0 127 0" result="hardAlpha"/>
<feOffset dy="4"/>
<feGaussianBlur stdDeviation="15"/>
<feComposite in2="hardAlpha" operator="out"/>
<feColorMatrix type="matrix" values="0 0 0 0 0.617153 0 0 0 0 0.617153 0 0 0 0 0.617153 0 0 0 0.25 0"/>
<feBlend mode="normal" in2="BackgroundImageFix" result="effect1_dropShadow_371_3179"/>
<feBlend mode="normal" in="SourceGraphic" in2="effect1_dropShadow_371_3179" result="shape"/>
</filter>
<filter id="filter1_d_371_3179" x="265" y="359" width="205.334" height="205.334" filterUnits="userSpaceOnUse" color-interpolation-filters="sRGB">
<feFlood flood-opacity="0" result="BackgroundImageFix"/>
<feColorMatrix in="SourceAlpha" type="matrix" values="0 0 0 0 0 0 0 0 0 0 0 0 0 0 0 0 0 0 127 0" result="hardAlpha"/>
<feOffset dy="4"/>
<feGaussianBlur stdDeviation="15"/>
<feComposite in2="hardAlpha" operator="out"/>
<feColorMatrix type="matrix" values="0 0 0 0 0.617153 0 0 0 0 0.617153 0 0 0 0 0.617153 0 0 0 0.25 0"/>
<feBlend mode="normal" in2="BackgroundImageFix" result="effect1_dropShadow_371_3179"/>
<feBlend mode="normal" in="SourceGraphic" in2="effect1_dropShadow_371_3179" result="shape"/>
</filter>
<filter id="filter2_d_371_3179" x="238" y="54" width="319.334" height="319.334" filterUnits="userSpaceOnUse" color-interpolation-filters="sRGB">
<feFlood flood-opacity="0" result="BackgroundImageFix"/>
<feColorMatrix in="SourceAlpha" type="matrix" values="0 0 0 0 0 0 0 0 0 0 0 0 0 0 0 0 0 0 127 0" result="hardAlpha"/>
<feOffset dy="4"/>
<feGaussianBlur stdDeviation="15"/>
<feComposite in2="hardAlpha" operator="out"/>
<feColorMatrix type="matrix" values="0 0 0 0 0.617153 0 0 0 0 0.617153 0 0 0 0 0.617153 0 0 0 0.25 0"/>
<feBlend mode="normal" in2="BackgroundImageFix" result="effect1_dropShadow_371_3179"/>
<feBlend mode="normal" in="SourceGraphic" in2="effect1_dropShadow_371_3179" result="shape"/>
</filter>
</defs>
</svg>
