<svg width="30" height="30" viewBox="0 0 30 30" fill="none" xmlns="http://www.w3.org/2000/svg">
<path d="M9.74267 11.2812C10.6295 11.2812 11.3426 10.55 11.3426 9.64062C11.3426 8.73125 10.6295 8 9.74267 8C8.85587 8 8.14278 8.73125 8.14278 9.64062C8.14278 10.55 8.85587 11.2812 9.74267 11.2812ZM11.5711 23V18.3125H12.4853V14.0938C12.4853 13.0625 11.6625 12.2187 10.6569 12.2187H8.82844C7.8228 12.2187 7 13.0625 7 14.0938V18.3125H7.91422V23H11.5711Z" fill="#00BCD4"/>
<path d="M20.26 11.2812C21.167 11.2812 21.8962 10.55 21.8962 9.64062C21.8962 8.73125 21.167 8 20.26 8C19.3531 8 18.6238 8.73125 18.6238 9.64062C18.6238 10.55 19.3531 11.2812 20.26 11.2812ZM22.13 19.25V23H18.39V19.25H16.52L18.7453 13.2687C18.862 12.9607 19.0694 12.6955 19.3399 12.5084C19.6105 12.3213 19.9314 12.2211 20.26 12.2211C20.5886 12.2211 20.9095 12.3213 21.1801 12.5084C21.4506 12.6955 21.658 12.9607 21.7747 13.2687L24 19.25H22.13Z" fill="#00BCD4"/>
</svg>
