<svg width="30" height="30" viewBox="0 0 30 30" fill="none" xmlns="http://www.w3.org/2000/svg">
<path d="M15 6.25C13.1773 6.25215 11.4299 6.97717 10.141 8.26602C8.85218 9.55486 8.12716 11.3023 8.12501 13.125C8.12282 14.6145 8.60937 16.0636 9.51001 17.25C9.51001 17.25 9.69751 17.4969 9.72813 17.5325L15 23.75L20.2744 17.5294C20.3019 17.4962 20.49 17.25 20.49 17.25L20.4906 17.2481C21.3908 16.0623 21.8771 14.6138 21.875 13.125C21.8729 11.3023 21.1478 9.55486 19.859 8.26602C18.5701 6.97717 16.8227 6.25215 15 6.25ZM15 15.625C14.5056 15.625 14.0222 15.4784 13.6111 15.2037C13.2 14.929 12.8795 14.5385 12.6903 14.0817C12.5011 13.6249 12.4516 13.1222 12.548 12.6373C12.6445 12.1523 12.8826 11.7069 13.2322 11.3572C13.5819 11.0076 14.0273 10.7695 14.5123 10.673C14.9972 10.5766 15.4999 10.6261 15.9567 10.8153C16.4135 11.0045 16.804 11.325 17.0787 11.7361C17.3534 12.1472 17.5 12.6305 17.5 13.125C17.4992 13.7878 17.2355 14.4232 16.7669 14.8919C16.2982 15.3605 15.6628 15.6242 15 15.625Z" fill="#00BCD4"/>
</svg>
