<svg width="30" height="30" viewBox="0 0 30 30" fill="none" xmlns="http://www.w3.org/2000/svg">
<path fill-rule="evenodd" clip-rule="evenodd" d="M15.0185 6.75C12.9482 6.75 11.0617 7.43383 9.94568 7.99254C9.84485 8.04296 9.75089 8.09246 9.66335 8.14013C9.4901 8.23454 9.34251 8.32254 9.22518 8.4L10.4948 10.2691L11.0924 10.507C13.4281 11.6853 16.5603 11.6853 18.8965 10.507L19.5748 10.155L20.7756 8.4C20.5269 8.23775 20.2682 8.09125 20.0011 7.96137C18.891 7.40862 17.0498 6.75 15.0185 6.75ZM12.0655 8.86567C11.6159 8.78154 11.1719 8.67011 10.7358 8.532C11.7813 8.06771 13.3396 7.575 15.0181 7.575C16.1808 7.575 17.2804 7.8115 18.1897 8.11125C17.1241 8.26113 15.987 8.5155 14.9035 8.82854C14.051 9.07513 13.0546 9.04854 12.0655 8.86567ZM19.3805 11.1867L19.2682 11.2435C16.6983 12.5397 13.2901 12.5397 10.7203 11.2435L10.6139 11.1894C6.75385 15.4249 3.80677 23.2486 15.0185 23.2486C26.2293 23.2486 23.2103 15.2787 19.3805 11.1867ZM14.5418 15C14.2987 15 14.0656 15.0966 13.8937 15.2685C13.7218 15.4404 13.6252 15.6736 13.6252 15.9167C13.6252 16.1598 13.7218 16.3929 13.8937 16.5648C14.0656 16.7368 14.2987 16.8333 14.5418 16.8333V15ZM15.4585 14.0833V13.625H14.5418V14.0833C14.0556 14.0833 13.5893 14.2765 13.2455 14.6203C12.9017 14.9641 12.7085 15.4304 12.7085 15.9167C12.7085 16.4029 12.9017 16.8692 13.2455 17.213C13.5893 17.5568 14.0556 17.75 14.5418 17.75V19.5833C14.3523 19.5834 14.1673 19.5247 14.0125 19.4152C13.8577 19.3058 13.7407 19.1511 13.6774 18.9724C13.637 18.8577 13.5526 18.7639 13.4429 18.7115C13.3332 18.659 13.2072 18.6523 13.0926 18.6928C12.978 18.7333 12.8841 18.8176 12.8317 18.9273C12.7793 19.037 12.7725 19.163 12.813 19.2776C12.9394 19.6351 13.1736 19.9446 13.4832 20.1635C13.7928 20.3824 14.1627 20.5 14.5418 20.5V20.9583H15.4585V20.5C15.9447 20.5 16.4111 20.3068 16.7549 19.963C17.0987 19.6192 17.2918 19.1529 17.2918 18.6667C17.2918 18.1804 17.0987 17.7141 16.7549 17.3703C16.4111 17.0265 15.9447 16.8333 15.4585 16.8333V15C15.8573 15 16.1969 15.2544 16.3234 15.611C16.3422 15.6693 16.3724 15.7233 16.4124 15.7697C16.4524 15.8161 16.5013 15.8541 16.5562 15.8813C16.6112 15.9085 16.671 15.9244 16.7321 15.9281C16.7933 15.9318 16.8546 15.9232 16.9124 15.9027C16.9702 15.8823 17.0233 15.8505 17.0686 15.8092C17.1138 15.7679 17.1504 15.718 17.176 15.6623C17.2016 15.6067 17.2159 15.5464 17.2178 15.4852C17.2197 15.4239 17.2094 15.3629 17.1873 15.3057C17.0609 14.9482 16.8268 14.6387 16.5172 14.4198C16.2076 14.2009 15.8377 14.0833 15.4585 14.0833ZM15.4585 17.75V19.5833C15.7016 19.5833 15.9348 19.4868 16.1067 19.3148C16.2786 19.1429 16.3752 18.9098 16.3752 18.6667C16.3752 18.4236 16.2786 18.1904 16.1067 18.0185C15.9348 17.8466 15.7016 17.75 15.4585 17.75Z" fill="#00BCD4"/>
</svg>
