<svg width="419" height="419" viewBox="0 0 419 419" fill="none" xmlns="http://www.w3.org/2000/svg">
<g filter="url(#filter0_d_166_1596)">
<circle cx="209.5" cy="205.5" r="139" fill="white" stroke="white"/>
<path d="M196.374 228.532V226.986C196.404 221.683 196.874 217.456 197.783 214.305C198.722 211.153 200.086 208.608 201.874 206.668C203.662 204.729 205.813 202.971 208.328 201.395C210.207 200.183 211.889 198.926 213.374 197.623C214.859 196.32 216.041 194.88 216.919 193.305C217.798 191.698 218.238 189.911 218.238 187.941C218.238 185.85 217.738 184.017 216.738 182.441C215.738 180.865 214.389 179.653 212.692 178.805C211.025 177.956 209.177 177.532 207.147 177.532C205.177 177.532 203.313 177.971 201.556 178.85C199.798 179.698 198.359 180.971 197.238 182.668C196.116 184.335 195.51 186.411 195.419 188.895H176.874C177.025 182.835 178.48 177.835 181.238 173.895C183.995 169.926 187.647 166.971 192.192 165.032C196.738 163.062 201.753 162.077 207.238 162.077C213.268 162.077 218.601 163.077 223.238 165.077C227.874 167.047 231.51 169.911 234.147 173.668C236.783 177.426 238.101 181.956 238.101 187.259C238.101 190.805 237.51 193.956 236.328 196.714C235.177 199.441 233.556 201.865 231.465 203.986C229.374 206.077 226.904 207.971 224.056 209.668C221.662 211.092 219.692 212.577 218.147 214.123C216.631 215.668 215.495 217.456 214.738 219.486C214.01 221.517 213.631 224.017 213.601 226.986V228.532H196.374ZM205.374 257.623C202.344 257.623 199.753 256.562 197.601 254.441C195.48 252.289 194.434 249.714 194.465 246.714C194.434 243.744 195.48 241.198 197.601 239.077C199.753 236.956 202.344 235.895 205.374 235.895C208.253 235.895 210.783 236.956 212.965 239.077C215.147 241.198 216.253 243.744 216.283 246.714C216.253 248.714 215.722 250.547 214.692 252.214C213.692 253.85 212.374 255.168 210.738 256.168C209.101 257.138 207.313 257.623 205.374 257.623Z" fill="#DCFAFA"/>
</g>
<defs>
<filter id="filter0_d_166_1596" x="0" y="0" width="419" height="419" filterUnits="userSpaceOnUse" color-interpolation-filters="sRGB">
<feFlood flood-opacity="0" result="BackgroundImageFix"/>
<feColorMatrix in="SourceAlpha" type="matrix" values="0 0 0 0 0 0 0 0 0 0 0 0 0 0 0 0 0 0 127 0" result="hardAlpha"/>
<feOffset dy="4"/>
<feGaussianBlur stdDeviation="35"/>
<feComposite in2="hardAlpha" operator="out"/>
<feColorMatrix type="matrix" values="0 0 0 0 0.917153 0 0 0 0 0.917153 0 0 0 0 0.917153 0 0 0 0.25 0"/>
<feBlend mode="normal" in2="BackgroundImageFix" result="effect1_dropShadow_166_1596"/>
<feBlend mode="normal" in="SourceGraphic" in2="effect1_dropShadow_166_1596" result="shape"/>
</filter>
</defs>
</svg>
