<svg width="117" height="93" viewBox="0 0 117 93" fill="none" xmlns="http://www.w3.org/2000/svg">
<path d="M15 7.5C15 3.35786 11.6421 0 7.5 0C3.35786 0 0 3.35786 0 7.5C0 11.6421 3.35786 15 7.5 15C11.6421 15 15 11.6421 15 7.5Z" fill="#DCFAFA"/>
<path d="M15 33.5C15 29.3579 11.6421 26 7.5 26C3.35786 26 0 29.3579 0 33.5C0 37.6421 3.35786 41 7.5 41C11.6421 41 15 37.6421 15 33.5Z" fill="#DCFAFA"/>
<path d="M15 59.5C15 55.3579 11.6421 52 7.5 52C3.35786 52 0 55.3579 0 59.5C0 63.6421 3.35786 67 7.5 67C11.6421 67 15 63.6421 15 59.5Z" fill="#DCFAFA"/>
<path d="M15 85.5C15 81.3579 11.6421 78 7.5 78C3.35786 78 0 81.3579 0 85.5C0 89.6421 3.35786 93 7.5 93C11.6421 93 15 89.6421 15 85.5Z" fill="#DCFAFA"/>
<path d="M49 7.5C49 3.35786 45.6421 0 41.5 0C37.3579 0 34 3.35786 34 7.5C34 11.6421 37.3579 15 41.5 15C45.6421 15 49 11.6421 49 7.5Z" fill="#DCFAFA"/>
<path d="M49 33.5C49 29.3579 45.6421 26 41.5 26C37.3579 26 34 29.3579 34 33.5C34 37.6421 37.3579 41 41.5 41C45.6421 41 49 37.6421 49 33.5Z" fill="#DCFAFA"/>
<path d="M49 59.5C49 55.3579 45.6421 52 41.5 52C37.3579 52 34 55.3579 34 59.5C34 63.6421 37.3579 67 41.5 67C45.6421 67 49 63.6421 49 59.5Z" fill="#DCFAFA"/>
<path d="M49 85.5C49 81.3579 45.6421 78 41.5 78C37.3579 78 34 81.3579 34 85.5C34 89.6421 37.3579 93 41.5 93C45.6421 93 49 89.6421 49 85.5Z" fill="#DCFAFA"/>
<path d="M83 7.5C83 3.35786 79.6421 0 75.5 0C71.3579 0 68 3.35786 68 7.5C68 11.6421 71.3579 15 75.5 15C79.6421 15 83 11.6421 83 7.5Z" fill="#DCFAFA"/>
<path d="M83 33.5C83 29.3579 79.6421 26 75.5 26C71.3579 26 68 29.3579 68 33.5C68 37.6421 71.3579 41 75.5 41C79.6421 41 83 37.6421 83 33.5Z" fill="#DCFAFA"/>
<path d="M83 59.5C83 55.3579 79.6421 52 75.5 52C71.3579 52 68 55.3579 68 59.5C68 63.6421 71.3579 67 75.5 67C79.6421 67 83 63.6421 83 59.5Z" fill="#DCFAFA"/>
<path d="M83 85.5C83 81.3579 79.6421 78 75.5 78C71.3579 78 68 81.3579 68 85.5C68 89.6421 71.3579 93 75.5 93C79.6421 93 83 89.6421 83 85.5Z" fill="#DCFAFA"/>
<path d="M117 7.5C117 3.35786 113.642 0 109.5 0C105.358 0 102 3.35786 102 7.5C102 11.6421 105.358 15 109.5 15C113.642 15 117 11.6421 117 7.5Z" fill="#DCFAFA"/>
<path d="M117 33.5C117 29.3579 113.642 26 109.5 26C105.358 26 102 29.3579 102 33.5C102 37.6421 105.358 41 109.5 41C113.642 41 117 37.6421 117 33.5Z" fill="#DCFAFA"/>
<path d="M117 59.5C117 55.3579 113.642 52 109.5 52C105.358 52 102 55.3579 102 59.5C102 63.6421 105.358 67 109.5 67C113.642 67 117 63.6421 117 59.5Z" fill="#DCFAFA"/>
<path d="M117 85.5C117 81.3579 113.642 78 109.5 78C105.358 78 102 81.3579 102 85.5C102 89.6421 105.358 93 109.5 93C113.642 93 117 89.6421 117 85.5Z" fill="#DCFAFA"/>
</svg>
