<svg width="322" height="322" viewBox="0 0 322 322" fill="none" xmlns="http://www.w3.org/2000/svg">
<path d="M114.413 89.7023L261.066 128.998L255.312 150.47L108.659 111.175L114.413 89.7023ZM127.646 40.3157L274.299 79.6112L268.628 100.777L121.975 61.4814L127.646 40.3157ZM98.8892 0.0618691L63.5461 131.964L285.832 191.525L321.175 59.6231L98.8892 0.0618691ZM186.256 39.2529L159.05 140.787L196.252 150.755L223.457 49.2209L186.256 39.2529ZM36.9683 147.528L28.0914 180.657L260.83 243.019L269.707 209.89L36.9683 147.528ZM253.105 205.441L251.482 210.267C234.478 258.972 223.086 280.577 214.453 284.511C210.25 286.672 206.17 285.908 199.714 284.178C191.72 282.036 172.126 276.457 153.782 269.898C157.466 280.748 158.604 296.177 156.506 306.464C176.019 312.35 194.773 317.375 205.698 319.645C218.94 321.878 228.821 321.895 239.649 315.92C252.589 308.209 265.478 284.703 285.521 229.579C287.368 225.143 290.613 215.492 290.613 215.492L253.105 205.441ZM150.968 148.813C129.717 202.298 108.496 239.681 0.548202 231.798C5.87214 241.444 10.8429 258.557 11.3694 268.89C131.086 274.666 162.973 226.99 189.399 159.111L150.968 148.813Z" fill="#DCFAFA"/>
</svg>
