<svg width="434" height="440" viewBox="0 0 434 440" fill="none" xmlns="http://www.w3.org/2000/svg">
<g filter="url(#filter0_d_454_4419)">
<circle cx="107.667" cy="237.716" r="77.667" fill="#EBFAFF"/>
<path fill-rule="evenodd" clip-rule="evenodd" d="M107.741 210.77C99.3883 210.77 91.7769 213.529 87.2741 215.783C86.8673 215.987 86.4882 216.186 86.135 216.379C85.436 216.76 84.8405 217.115 84.3671 217.427L89.4895 224.968L91.9008 225.928C101.324 230.682 113.962 230.682 123.387 225.928L126.124 224.508L130.969 217.427C129.965 216.773 128.922 216.181 127.844 215.657C123.365 213.427 115.937 210.77 107.741 210.77ZM95.8267 219.306C94.0129 218.967 92.2213 218.517 90.4621 217.96C94.6802 216.087 100.968 214.099 107.739 214.099C112.431 214.099 116.867 215.053 120.536 216.262C116.236 216.867 111.649 217.893 107.277 219.156C103.838 220.151 99.8173 220.044 95.8267 219.306V219.306ZM125.34 228.67L124.887 228.9C114.519 234.129 100.768 234.129 90.3993 228.9L89.9703 228.682C74.3962 245.77 62.5057 277.336 107.741 277.336C152.973 277.336 140.792 245.18 125.34 228.67ZM105.818 244.056C104.837 244.056 103.896 244.446 103.203 245.139C102.509 245.833 102.12 246.773 102.12 247.754C102.12 248.735 102.509 249.676 103.203 250.369C103.896 251.063 104.837 251.453 105.818 251.453V244.056ZM109.516 240.357V238.508H105.818V240.357C103.856 240.357 101.975 241.137 100.588 242.524C99.2005 243.911 98.4212 245.793 98.4212 247.754C98.4212 249.716 99.2005 251.597 100.588 252.985C101.975 254.372 103.856 255.151 105.818 255.151V262.548C105.053 262.548 104.307 262.311 103.682 261.87C103.058 261.428 102.585 260.804 102.33 260.083C102.167 259.621 101.827 259.242 101.384 259.03C100.942 258.819 100.433 258.792 99.9708 258.955C99.5083 259.118 99.1297 259.459 98.9181 259.901C98.7066 260.344 98.6795 260.852 98.8428 261.315C99.3529 262.757 100.298 264.006 101.547 264.889C102.796 265.772 104.288 266.246 105.818 266.246V268.096H109.516V266.246C111.478 266.246 113.36 265.467 114.747 264.08C116.134 262.693 116.913 260.811 116.913 258.85C116.913 256.888 116.134 255.006 114.747 253.619C113.36 252.232 111.478 251.453 109.516 251.453V244.056C111.125 244.056 112.496 245.082 113.006 246.521C113.082 246.756 113.204 246.974 113.365 247.161C113.527 247.349 113.724 247.502 113.945 247.612C114.167 247.721 114.408 247.786 114.655 247.8C114.902 247.815 115.149 247.781 115.382 247.698C115.615 247.616 115.83 247.487 116.012 247.321C116.195 247.154 116.342 246.953 116.446 246.728C116.549 246.504 116.607 246.26 116.615 246.013C116.622 245.766 116.581 245.52 116.492 245.289C115.982 243.847 115.037 242.598 113.788 241.715C112.539 240.832 111.046 240.357 109.516 240.357ZM109.516 255.151V262.548C110.497 262.548 111.438 262.158 112.132 261.465C112.825 260.771 113.215 259.83 113.215 258.85C113.215 257.869 112.825 256.928 112.132 256.234C111.438 255.541 110.497 255.151 109.516 255.151Z" fill="#F5CA60"/>
</g>
<g filter="url(#filter1_d_454_4419)">
<circle cx="269.153" cy="344.402" r="61.2639" fill="#EBFAFF"/>
<path d="M269.152 321.896C263.682 321.903 258.439 324.078 254.571 327.946C250.704 331.813 248.528 337.057 248.522 342.526C248.515 346.995 249.975 351.344 252.678 354.904C252.678 354.904 253.241 355.645 253.332 355.751L269.152 374.408L284.978 355.742C285.061 355.643 285.625 354.904 285.625 354.904L285.627 354.898C288.328 351.34 289.788 346.993 289.781 342.526C289.775 337.057 287.599 331.813 283.732 327.946C279.865 324.078 274.621 321.903 269.152 321.896V321.896ZM269.152 350.028C267.668 350.028 266.218 349.588 264.984 348.763C263.75 347.939 262.789 346.767 262.221 345.397C261.653 344.026 261.505 342.518 261.794 341.062C262.084 339.607 262.798 338.271 263.847 337.221C264.896 336.172 266.233 335.458 267.688 335.168C269.143 334.879 270.652 335.027 272.022 335.595C273.393 336.163 274.565 337.125 275.389 338.358C276.213 339.592 276.653 341.042 276.653 342.526C276.651 344.515 275.86 346.421 274.453 347.828C273.047 349.234 271.14 350.025 269.152 350.028V350.028Z" fill="#E37464"/>
</g>
<g filter="url(#filter2_d_454_4419)">
<circle cx="294.445" cy="135.319" r="109.319" fill="#EBFAFF"/>
<path d="M264.885 115.476C270.058 115.476 274.218 110.942 274.218 105.304C274.218 99.6658 270.058 95.1321 264.885 95.1321C259.712 95.1321 255.552 99.6658 255.552 105.304C255.552 110.942 259.712 115.476 264.885 115.476ZM275.552 188.132V159.07H280.885V132.913C280.885 126.52 276.085 121.288 270.218 121.288H259.552C253.685 121.288 248.885 126.52 248.885 132.913V159.07H254.218V188.132H275.552Z" fill="#00BCD4"/>
<path d="M317.885 115.476C323.22 115.476 327.51 110.942 327.51 105.304C327.51 99.6658 323.22 95.1321 317.885 95.1321C312.55 95.1321 308.26 99.6658 308.26 105.304C308.26 110.942 312.55 115.476 317.885 115.476ZM328.885 164.882V188.132H306.885V164.882H295.885L308.975 127.798C309.662 125.888 310.881 124.244 312.473 123.084C314.064 121.924 315.952 121.303 317.885 121.303C319.818 121.303 321.706 121.924 323.297 123.084C324.888 124.244 326.108 125.888 326.795 127.798L339.885 164.882H328.885Z" fill="#00BCD4"/>
</g>
<defs>
<filter id="filter0_d_454_4419" x="0" y="134.049" width="215.334" height="215.334" filterUnits="userSpaceOnUse" color-interpolation-filters="sRGB">
<feFlood flood-opacity="0" result="BackgroundImageFix"/>
<feColorMatrix in="SourceAlpha" type="matrix" values="0 0 0 0 0 0 0 0 0 0 0 0 0 0 0 0 0 0 127 0" result="hardAlpha"/>
<feOffset dy="4"/>
<feGaussianBlur stdDeviation="15"/>
<feComposite in2="hardAlpha" operator="out"/>
<feColorMatrix type="matrix" values="0 0 0 0 0.617153 0 0 0 0 0.617153 0 0 0 0 0.617153 0 0 0 0.25 0"/>
<feBlend mode="normal" in2="BackgroundImageFix" result="effect1_dropShadow_454_4419"/>
<feBlend mode="normal" in="SourceGraphic" in2="effect1_dropShadow_454_4419" result="shape"/>
</filter>
<filter id="filter1_d_454_4419" x="177.889" y="257.138" width="182.528" height="182.528" filterUnits="userSpaceOnUse" color-interpolation-filters="sRGB">
<feFlood flood-opacity="0" result="BackgroundImageFix"/>
<feColorMatrix in="SourceAlpha" type="matrix" values="0 0 0 0 0 0 0 0 0 0 0 0 0 0 0 0 0 0 127 0" result="hardAlpha"/>
<feOffset dy="4"/>
<feGaussianBlur stdDeviation="15"/>
<feComposite in2="hardAlpha" operator="out"/>
<feColorMatrix type="matrix" values="0 0 0 0 0.617153 0 0 0 0 0.617153 0 0 0 0 0.617153 0 0 0 0.25 0"/>
<feBlend mode="normal" in2="BackgroundImageFix" result="effect1_dropShadow_454_4419"/>
<feBlend mode="normal" in="SourceGraphic" in2="effect1_dropShadow_454_4419" result="shape"/>
</filter>
<filter id="filter2_d_454_4419" x="155.126" y="0" width="278.638" height="278.638" filterUnits="userSpaceOnUse" color-interpolation-filters="sRGB">
<feFlood flood-opacity="0" result="BackgroundImageFix"/>
<feColorMatrix in="SourceAlpha" type="matrix" values="0 0 0 0 0 0 0 0 0 0 0 0 0 0 0 0 0 0 127 0" result="hardAlpha"/>
<feOffset dy="4"/>
<feGaussianBlur stdDeviation="15"/>
<feComposite in2="hardAlpha" operator="out"/>
<feColorMatrix type="matrix" values="0 0 0 0 0.617153 0 0 0 0 0.617153 0 0 0 0 0.617153 0 0 0 0.25 0"/>
<feBlend mode="normal" in2="BackgroundImageFix" result="effect1_dropShadow_454_4419"/>
<feBlend mode="normal" in="SourceGraphic" in2="effect1_dropShadow_454_4419" result="shape"/>
</filter>
</defs>
</svg>
