<svg width="126" height="151" viewBox="0 0 126 151" fill="none" xmlns="http://www.w3.org/2000/svg">
<rect width="126" height="150.818" fill="#F8F8F8"/>
<path d="M28.3004 17.4143C42.0141 -3.23927 80.2822 -1.21662 93.9795 12.1815C107.677 25.5797 106.355 48.7435 109.094 69.2377C111.284 85.6191 121.379 92.8238 121.379 92.8238L63.2638 100.029L5.62143 91.4335C5.62143 91.4335 12.5083 83.6412 14.5939 69.2377C17.0625 52.1892 14.5867 38.0679 28.3004 17.4143Z" fill="#695555"/>
<path d="M56.0353 83.3428H70.9647C70.9647 83.3428 70.0316 88.5023 70.0316 91.8083C70.0316 95.1143 72.3643 107.328 72.3643 107.328H64.8996H54.6357L56.0353 100.274C57.1595 94.515 57.1501 90.8009 56.0353 83.3428Z" fill="#FFD3C0"/>
<path d="M100.521 47.1594C100.521 68.6444 83.246 91.6859 61.9357 91.6859C40.6254 91.6859 23.35 68.6444 23.35 47.1594C23.35 25.6744 40.6254 8.25732 61.9357 8.25732C83.246 8.25732 100.521 25.6744 100.521 47.1594Z" fill="#FFD3C0"/>
<path d="M52.3811 100.029H23.0245L12.9214 148H117.207L104.571 100.029H73.0395V104.732H52.3811V100.029Z" fill="#6A6A6A"/>
<path d="M64.0215 119.575L55.7447 99.9216H44.2072L49.7251 112.556H54.2398L64.0215 132.678L73.3016 112.556H77.3147L83.8358 99.9216H71.7968L64.0215 119.575Z" fill="white"/>
<path d="M64.0217 119.576L57.4847 104.133L70.5587 104.133L64.0217 119.576Z" fill="white"/>
<path d="M34.2376 16.2138C50.9499 -2.52222 81.5139 3.33298 91.0616 14.4574C100.609 25.5817 101.564 53.1002 101.564 53.1002H23.2553C23.2553 53.1002 17.5253 34.9497 34.2376 16.2138Z" fill="#695555"/>
<path d="M41.0786 81.257C37.4432 74.623 35.6985 58.9022 36.6215 47.8665C36.6215 40.8437 33.9908 30.324 23.4677 44.4268C12.9446 58.5296 30.4632 73.661 41.0786 81.257Z" fill="#695555"/>
<path d="M82.7929 81.257C86.4283 74.623 88.173 58.9022 87.2499 47.8665C87.2499 40.8437 89.8807 30.324 100.404 44.4268C110.927 58.5296 93.4082 73.661 82.7929 81.257Z" fill="#695555"/>
</svg>
