<svg width="126" height="152" viewBox="0 0 126 152" fill="none" xmlns="http://www.w3.org/2000/svg">
<rect y="0.59082" width="126" height="150.818" fill="#F8F8F8"/>
<path d="M28.6627 66.5956C30.5721 70.0121 34.0426 76.1588 31.3881 77.6349C28.7335 79.111 20.9592 75.3575 19.0498 71.941C17.1404 68.5245 17.7445 64.5583 20.399 63.0822C23.0535 61.6061 26.7533 63.1792 28.6627 66.5956Z" fill="#FFD3C0"/>
<path d="M78.0473 101.255H41.5359V123.894H78.0473V101.255Z" fill="#FFD3C0"/>
<path d="M94.5813 65.8149C92.6719 69.2314 89.2014 75.3781 91.8559 76.8541C94.5105 78.3302 102.285 74.5767 104.194 71.1602C106.104 67.7437 105.5 63.7775 102.845 62.3015C100.19 60.8254 96.4907 62.3984 94.5813 65.8149Z" fill="#FFD3C0"/>
<path d="M70.9987 82.377H51.886C51.886 82.377 51.886 92.4436 51.886 96.6494C51.886 100.855 50.0942 112.89 50.0942 112.89L59.4688 121.257L72.7905 113.875L70.9987 103.916C69.5595 96.5898 69.5715 91.8648 70.9987 82.377Z" fill="#FFD3C0"/>
<path d="M24.7521 53.0367C24.7521 73.3155 41.0988 95.0632 61.2636 95.0632C81.4283 95.0632 97.7751 73.3155 97.7751 53.0367C97.7751 32.758 81.4283 16.3188 61.2636 16.3188C41.0988 16.3188 24.7521 32.758 24.7521 53.0367Z" fill="#FFD3C0"/>
<path d="M101.618 11.8901L88.8842 15.8273C88.3998 9.42937 84.4613 7.46076 80.5054 5V11.8901C77.0428 7.46076 61.7566 5.9843 53.8531 8.93721C51.4848 3.42513 35.4416 7.62481 27.7117 8.93721L34.1172 14.843C28.9858 11.6932 21.7914 17.3038 16.364 20.2567L24.7426 21.7332C19.3244 28.1312 18.518 40.927 19.9913 48.3094C21.4011 56.7236 22.362 59.3675 26.7162 64.0583L46.4613 48.3094C46.4613 48.3094 46.4613 49.7859 44.9811 54.2152C43.5009 58.6446 41.5273 62.5818 41.5273 62.5818C54.1324 60.4154 66.7162 54.6887 74.2597 48.7601L61.7567 59.6289C71.6246 58.1525 79.5098 55.1995 83.9596 51.7545L96.729 63.1347C109.918 39.5 102.188 22.9797 96.7291 20.2567C94.7559 19.2724 101.124 13.8587 101.618 11.8901Z" fill="#695555"/>
<path d="M50.2351 99.6667H13.1455L10.5216 147H115.478L112.854 99.6667H71.9212L71.0264 104.307H50.2351V99.6667Z" fill="#6A6A6A"/>
<path d="M61.4561 118.806L50.8954 99.6665H41.3909L46.9787 111.97H51.5505L61.4561 131.565L70.8537 111.97H74.9176L81.5213 99.6665H76.1875H70.8537L61.4561 118.806Z" fill="white"/>
<path d="M60.9485 125.391L52.0372 103.782L69.8598 103.782L60.9485 125.391Z" fill="white"/>
</svg>
