<svg width="24" height="26" viewBox="0 0 24 26" fill="none" xmlns="http://www.w3.org/2000/svg">
<path fill-rule="evenodd" clip-rule="evenodd" d="M12.0268 0C8.86204 0 5.97826 1.04533 4.27224 1.8994C4.1181 1.97646 3.97447 2.05213 3.84065 2.125C3.57582 2.26933 3.35022 2.40385 3.17086 2.52225L5.11159 5.3794L6.0252 5.74303C9.59559 7.54433 14.3837 7.54433 17.9548 5.74303L18.9917 5.20495L20.8273 2.52225C20.447 2.27423 20.0516 2.05029 19.6433 1.85175C17.9463 1.0068 15.1319 0 12.0268 0ZM7.51263 3.23409C6.8254 3.10549 6.14664 2.93515 5.48012 2.72403C7.07824 2.0143 9.46037 1.26113 12.0261 1.26113C13.8035 1.26113 15.4843 1.62265 16.8744 2.08086C15.2454 2.30996 13.5072 2.69881 11.8509 3.17734C10.5477 3.55427 9.02458 3.51364 7.51263 3.23409V3.23409ZM18.6946 6.78205L18.523 6.86893C14.5946 8.8503 9.3847 8.8503 5.4563 6.86893L5.29375 6.78626C-0.606916 13.2607 -5.11194 25.2204 12.0268 25.2204C29.1641 25.2204 24.549 13.0372 18.6946 6.78205ZM11.2981 12.6113C10.9265 12.6113 10.5701 12.7589 10.3073 13.0217C10.0445 13.2845 9.89686 13.6409 9.89686 14.0125C9.89686 14.3841 10.0445 14.7406 10.3073 15.0033C10.5701 15.2661 10.9265 15.4138 11.2981 15.4138V12.6113ZM12.6994 11.21V10.5094H11.2981V11.21C10.5548 11.21 9.84201 11.5053 9.31644 12.0308C8.79087 12.5564 8.49561 13.2692 8.49561 14.0125C8.49561 14.7558 8.79087 15.4686 9.31644 15.9942C9.84201 16.5197 10.5548 16.815 11.2981 16.815V19.6175C11.0083 19.6176 10.7256 19.5278 10.489 19.3605C10.2523 19.1933 10.0734 18.9568 9.97673 18.6836C9.91485 18.5084 9.7859 18.3649 9.61825 18.2847C9.45059 18.2046 9.25796 18.1943 9.08273 18.2562C8.90751 18.3181 8.76404 18.447 8.68389 18.6147C8.60374 18.7823 8.59347 18.975 8.65535 19.1502C8.84861 19.6967 9.20652 20.1698 9.67981 20.5044C10.1531 20.8391 10.7185 21.0188 11.2981 21.0188V21.7194H12.6994V21.0188C13.4426 21.0188 14.1555 20.7235 14.681 20.1979C15.2066 19.6724 15.5019 18.9595 15.5019 18.2163C15.5019 17.473 15.2066 16.7602 14.681 16.2346C14.1555 15.709 13.4426 15.4138 12.6994 15.4138V12.6113C13.3089 12.6113 13.8281 13.0001 14.0214 13.5452C14.0501 13.6344 14.0964 13.7169 14.1576 13.7879C14.2187 13.8588 14.2934 13.9168 14.3774 13.9584C14.4613 14 14.5528 14.0243 14.6463 14.03C14.7398 14.0356 14.8335 14.0224 14.9218 13.9912C15.0101 13.96 15.0913 13.9114 15.1605 13.8483C15.2297 13.7852 15.2856 13.7088 15.3248 13.6237C15.364 13.5386 15.3857 13.4465 15.3887 13.3529C15.3917 13.2593 15.3758 13.166 15.3421 13.0786C15.1489 12.5321 14.7909 12.059 14.3177 11.7243C13.8444 11.3897 13.279 11.21 12.6994 11.21ZM12.6994 16.815V19.6175C13.071 19.6175 13.4274 19.4699 13.6902 19.2071C13.953 18.9443 14.1006 18.5879 14.1006 18.2163C14.1006 17.8446 13.953 17.4882 13.6902 17.2254C13.4274 16.9626 13.071 16.815 12.6994 16.815Z" fill="#F5CA60"/>
</svg>
