<svg width="312" height="485" viewBox="0 0 312 485" fill="none" xmlns="http://www.w3.org/2000/svg">
<path d="M99.3675 337.331V329.486C99.5219 302.567 101.915 281.109 106.548 265.112C111.335 249.114 118.284 236.193 127.394 226.349C136.505 216.504 147.468 207.582 160.285 199.584C169.859 193.431 178.429 187.047 185.996 180.433C193.562 173.819 199.584 166.512 204.062 158.513C208.54 150.361 210.78 141.285 210.78 131.287C210.78 120.673 208.232 111.367 203.136 103.368C198.04 95.3695 191.169 89.2166 182.521 84.9096C174.028 80.6026 164.609 78.4491 154.263 78.4491C144.226 78.4491 134.729 80.6795 125.773 85.1403C116.817 89.4474 109.482 95.9079 103.768 104.522C98.0549 112.982 94.9666 123.519 94.5033 136.132H0C0.772085 105.368 8.18411 79.9873 22.2361 59.9905C36.288 39.8399 54.8953 24.8422 78.0579 14.9976C101.22 4.9992 126.777 0 154.726 0C185.455 0 212.633 5.07612 236.258 15.2284C259.884 25.2268 278.414 39.7629 291.849 58.8368C305.283 77.9107 312 100.907 312 127.826C312 145.823 308.989 161.82 302.967 175.818C297.099 189.662 288.837 201.968 278.183 212.735C267.528 223.349 254.943 232.963 240.428 241.577C228.229 248.807 218.192 256.344 210.316 264.189C202.595 272.034 196.805 281.109 192.944 291.415C189.238 301.721 187.308 314.412 187.154 329.486V337.331H99.3675ZM145.229 485C129.788 485 116.585 479.616 105.621 468.849C94.8122 457.927 89.4848 444.853 89.6392 429.624C89.4848 414.55 94.8122 401.629 105.621 390.861C116.585 380.094 129.788 374.71 145.229 374.71C159.899 374.71 172.793 380.094 183.911 390.861C195.029 401.629 200.665 414.55 200.82 429.624C200.665 439.776 197.963 449.083 192.713 457.543C187.617 465.849 180.9 472.54 172.561 477.617C164.223 482.539 155.112 485 145.229 485Z" fill="#D4F0F3"/>
</svg>
