<svg width="312" height="485" viewBox="0 0 312 485" fill="none" xmlns="http://www.w3.org/2000/svg">
<path d="M212.633 147.669L212.633 155.514C212.478 182.433 210.085 203.891 205.452 219.888C200.665 235.886 193.716 248.807 184.606 258.651C175.495 268.496 164.532 277.418 151.715 285.416C142.141 291.569 133.571 297.953 126.004 304.567C118.438 311.181 112.416 318.488 107.938 326.487C103.46 334.639 101.221 343.715 101.221 353.713C101.22 364.327 103.768 373.633 108.864 381.632C113.96 389.63 120.831 395.783 129.479 400.09C137.972 404.397 147.391 406.551 157.737 406.551C167.774 406.551 177.271 404.32 186.227 399.86C195.183 395.553 202.518 389.092 208.232 380.478C213.945 372.018 217.033 361.481 217.497 348.868L312 348.868C311.228 379.632 303.816 405.013 289.764 425.01C275.712 445.16 257.105 460.158 233.942 470.002C210.78 480.001 185.223 485 157.274 485C126.545 485 99.3675 479.924 75.7417 469.772C52.1158 459.773 33.5858 445.237 20.1515 426.163C6.71717 407.089 1.73658e-05 384.093 1.97192e-05 357.174C2.12925e-05 339.177 3.01116 323.179 9.03343 309.182C14.9013 295.338 23.1626 283.032 33.8174 272.264C44.4722 261.651 57.0572 252.037 71.5724 243.423C83.7714 236.193 93.8085 228.656 101.684 220.811C109.405 212.966 115.195 203.891 119.056 193.585C122.762 183.279 124.692 170.588 124.846 155.514L124.846 147.669L212.633 147.669ZM166.771 -2.06481e-05C182.212 -1.92981e-05 195.415 5.38373 206.379 16.1513C217.188 27.0726 222.515 40.1474 222.361 55.3758C222.515 70.4503 217.188 83.3714 206.379 94.1389C195.415 104.906 182.212 110.29 166.771 110.29C152.101 110.29 139.207 104.906 128.089 94.1389C116.971 83.3714 111.335 70.4503 111.18 55.3758C111.335 45.2236 114.037 35.9173 119.287 27.4571C124.383 19.1508 131.1 12.4595 139.439 7.38341C147.777 2.46112 156.888 -2.15121e-05 166.771 -2.06481e-05Z" fill="#D4F0F3"/>
</svg>
