<svg width="102" height="65" viewBox="0 0 102 65" fill="none" xmlns="http://www.w3.org/2000/svg">
<rect x="24.3403" y="11.7275" width="52.6073" height="44.7555" fill="#494949"/>
<path d="M50.6631 0L101.327 16.0648L50.6635 32.1297L0 16.0649L50.6631 0Z" fill="#494949"/>
<ellipse cx="50.644" cy="56.4832" rx="26.3037" ry="7.85184" fill="#494949"/>
<path fill-rule="evenodd" clip-rule="evenodd" d="M24.3032 43.9204V52.0318C24.3032 55.7649 36.1058 58.7912 50.6651 58.7912C65.2243 58.7912 77.0269 55.7649 77.0269 52.0318V43.9204C77.0267 47.6535 65.2242 50.6797 50.6651 50.6797C36.106 50.6797 24.3035 47.6535 24.3032 43.9204Z" fill="white"/>
<path d="M50.6969 14.0698L8.1123 18.8014V28.9406" stroke="white"/>
<path d="M6.76009 34.3477H9.46387L10.8158 47.8666H5.4082L6.76009 34.3477Z" fill="#494949"/>
<path d="M6.76025 31.6445C7.82045 32.2836 8.40336 32.2582 9.46404 31.6445V34.3483C8.49388 35.0036 7.89231 34.9792 6.76025 34.3483V31.6445Z" fill="white"/>
<circle cx="8.11198" cy="30.2926" r="2.70378" fill="#494949"/>
<path d="M44.0299 40.7001V42.2201H58.0299V40.7001H44.0299ZM46.8619 37.9641V39.3241H53.6779V37.9641H46.8619ZM50.0619 39.9641V43.3241C50.0619 43.5161 49.9819 43.5641 49.7259 43.5801C49.4859 43.5801 48.5259 43.5961 47.7579 43.5641C47.9979 43.9961 48.2539 44.6681 48.3499 45.1801C49.5659 45.1801 50.4619 45.1641 51.1019 44.9241C51.7739 44.6841 51.9499 44.2521 51.9499 43.3881V39.9641H50.0619ZM53.2299 37.9641V38.2841C52.6859 38.8761 51.5019 39.7721 50.5419 40.2521C50.7659 40.4761 51.1979 40.9401 51.4059 41.2281C52.6859 40.6041 54.1099 39.6921 55.1659 38.8441L54.0939 37.8681L53.6939 37.9641H53.2299ZM44.0139 35.9001V39.1961H45.8379V37.2921H56.1579V39.1961H58.0619V35.9001H44.0139ZM44.9419 30.8441L45.2779 36.5081H47.0539L46.7659 31.5481C47.0219 31.5001 47.1499 31.4201 47.1819 31.2921L44.9419 30.8441ZM55.3899 30.6681C55.3259 32.5881 55.1499 35.0201 54.9419 36.5881H56.7819C56.9579 35.0681 57.1179 32.6361 57.2139 30.6681H55.3899ZM53.1339 30.6681V31.8681H56.0939V30.6681H53.1339ZM48.1739 30.2201C47.4379 30.5401 46.2059 31.0361 45.3579 31.2281L46.1259 32.2201C46.9739 32.0121 48.1899 31.6761 49.0699 31.2441L48.1739 30.2201ZM45.9499 32.4121V33.5961H48.9579V32.4121H45.9499ZM45.9979 34.1561V35.3401H48.9899V34.1561H45.9979ZM53.1979 32.4121V33.5961H55.9019V32.4121H53.1979ZM53.1499 34.1561V35.3401H55.8539V34.1561H53.1499ZM51.5659 30.2361C50.9579 31.0201 49.8859 31.7241 48.7819 32.2041C49.0859 32.4121 49.5819 32.8281 49.7899 33.0681C50.8779 32.4921 52.0779 31.5801 52.7979 30.6041L51.5659 30.2361ZM49.1819 31.0681C50.1259 31.5801 51.2939 32.3641 51.8539 32.9081L52.7659 32.1081C52.1739 31.5481 50.9899 30.7961 50.0459 30.3481L49.1819 31.0681ZM51.6299 32.9241C51.0219 33.7561 49.9019 34.5081 48.7659 35.0201C49.0699 35.2281 49.5659 35.6601 49.7899 35.8841C50.9099 35.2921 52.1579 34.3321 52.8939 33.2921L51.6299 32.9241ZM49.2299 33.8041C50.2059 34.3321 51.4059 35.1481 51.9659 35.7241L52.9259 34.9081C52.3019 34.3321 51.0699 33.5481 50.1099 33.0681L49.2299 33.8041Z" fill="white"/>
</svg>
