<svg width="30" height="30" viewBox="0 0 30 30" fill="none" xmlns="http://www.w3.org/2000/svg">
<path d="M11.5796 18.3299C11.5619 18.1591 11.5133 17.8021 11.4336 17.2587C11.3628 16.7154 11.3274 16.2924 11.3274 15.9897C11.3274 15.5627 11.5044 15.1591 11.8584 14.7788C12.2124 14.3984 12.7611 13.9211 13.5044 13.3467C14.3717 12.6792 15.0265 12.1009 15.469 11.6119C15.9204 11.1151 16.146 10.5563 16.146 9.93532C16.146 9.28331 15.9071 8.80207 15.4292 8.49159C14.9602 8.18111 14.2478 8.02587 13.292 8.02587C12.7345 8.02587 12.1593 8.07244 11.5664 8.16559C10.9735 8.25097 10.5973 8.30918 10.4381 8.34023L10 6.54722C10.0885 6.51617 10.3053 6.45796 10.6504 6.37257C10.9956 6.28719 11.4204 6.20569 11.9248 6.12807C12.4381 6.04269 12.9381 6 13.4248 6C15.0531 6 16.3894 6.28719 17.4336 6.86158C18.4779 7.43596 19 8.38292 19 9.70246C19 10.3234 18.8584 10.8978 18.5752 11.4256C18.292 11.9457 17.9558 12.3959 17.5664 12.7762C17.177 13.1565 16.6593 13.6184 16.0133 14.1617C15.323 14.7206 14.8097 15.1824 14.4735 15.5472C14.1372 15.912 13.969 16.3001 13.969 16.7115C13.969 17.0919 13.9779 17.414 13.9956 17.6779C14.0133 17.9418 14.0221 18.1125 14.0221 18.1902L11.5796 18.3299ZM11.2478 22.3351C11.2478 21.815 11.4204 21.4075 11.7655 21.1125C12.1106 20.8176 12.5265 20.6701 13.0133 20.6701C13.5531 20.6701 13.9823 20.8176 14.3009 21.1125C14.6283 21.4075 14.792 21.815 14.792 22.3351C14.792 22.8473 14.6239 23.2549 14.2876 23.5576C13.9513 23.8525 13.5265 24 13.0133 24C12.4735 24 12.0442 23.8564 11.7257 23.5692C11.4071 23.2743 11.2478 22.8629 11.2478 22.3351Z" fill="#00BCD4"/>
</svg>
