<svg width="247" height="241" viewBox="0 0 247 241" fill="none" xmlns="http://www.w3.org/2000/svg">
<path d="M0.065609 78.4338L7.65855 106.771L220.162 49.8308L212.569 21.4936L0.065609 78.4338ZM69.3256 3.61315C65.5588 55.657 56.6355 124.766 48.1599 167.616L79.2942 170.227C87.3802 124.992 96.3035 55.8832 101.248 0.785461L69.3256 3.61315ZM152.296 52.5806C159.9 142.405 129.725 180.614 39.2538 216.307C46.7692 222.01 56.2276 232.172 61.3234 240.018C158.122 198.148 192.157 152.931 184.887 51.3164L152.296 52.5806ZM62.2769 158.854C119.16 163.528 193.975 178.335 231.885 195.063L246.266 163.079C205.392 147.393 129.275 135.176 75.2796 131.969L62.2769 158.854Z" fill="#DCFAFA"/>
</svg>
