<svg width="40" height="50" viewBox="0 0 40 50" fill="none" xmlns="http://www.w3.org/2000/svg">
<path d="M8.98434 5.77332C13.3379 -1.07387 25.4865 -0.403304 29.8349 4.03852C34.1832 8.48035 33.7636 16.1597 34.6332 22.9541C35.3283 28.3849 38.533 30.7735 38.533 30.7735L20.0838 33.162L1.78467 30.3125C1.78467 30.3125 3.97098 27.7292 4.63307 22.9541C5.41676 17.3021 4.63079 12.6205 8.98434 5.77332Z" fill="#695555"/>
<path d="M17.7891 27.6304H22.5285C22.5285 27.6304 22.2323 29.3409 22.2323 30.4369C22.2323 31.5329 22.9729 35.5822 22.9729 35.5822H20.6031H17.3447L17.7891 33.2435C18.1459 31.3343 18.143 30.1029 17.7891 27.6304Z" fill="#FFD3C0"/>
<path d="M31.9115 15.6343C31.9115 22.7572 26.4272 30.396 19.662 30.396C12.8969 30.396 7.4126 22.7572 7.4126 15.6343C7.4126 8.5115 12.8969 2.7373 19.662 2.7373C26.4272 2.7373 31.9115 8.5115 31.9115 15.6343Z" fill="#FFD3C0"/>
<path d="M16.629 33.1621H7.30937L4.10205 49.0659H37.2087L33.1971 33.1621H23.1872V34.7213H16.629V33.1621Z" fill="#6A6A6A"/>
<path d="M20.3244 39.6422L17.6969 33.1265H14.0342L15.7859 37.3152H17.2191L20.3244 43.986L23.2705 37.3152H24.5445L26.6147 33.1265H22.7928L20.3244 39.6422Z" fill="white"/>
<path d="M20.3244 39.6426L18.2492 34.5231L22.3997 34.5231L20.3244 39.6426Z" fill="white"/>
<path d="M10.869 5.37517C16.1745 -0.83628 25.8774 1.10487 28.9084 4.79288C31.9394 8.4809 32.2426 17.604 32.2426 17.604H7.38254C7.38254 17.604 5.56351 11.5866 10.869 5.37517Z" fill="#695555"/>
<path d="M13.0408 26.9388C11.8867 24.7394 11.3328 19.5276 11.6258 15.869C11.6258 13.5407 10.7907 10.0532 7.44999 14.7286C4.10932 19.404 9.6708 24.4205 13.0408 26.9388Z" fill="#695555"/>
<path d="M26.2835 26.9388C27.4376 24.7394 27.9914 19.5276 27.6984 15.869C27.6984 13.5407 28.5336 10.0532 31.8742 14.7286C35.2149 19.404 29.6534 24.4205 26.2835 26.9388Z" fill="#695555"/>
</svg>
