<svg width="244" height="245" viewBox="0 0 244 245" fill="none" xmlns="http://www.w3.org/2000/svg">
<g filter="url(#filter0_d_444_3860)">
<ellipse cx="122" cy="118.5" rx="92" ry="92.5" fill="#FFFDEF"/>
<path d="M71.675 84.9578H166.878C163.877 114.441 163.062 130.069 163.155 156.334H67.9518C64.9752 129.715 71.675 84.9578 71.675 84.9578Z" fill="#FFD3C0"/>
<path fill-rule="evenodd" clip-rule="evenodd" d="M125.837 85.8923C125.837 85.8923 125.837 85.8923 125.837 85.8922C125.837 81.9343 122.234 78.0571 116.932 78.0571C111.63 78.0571 108.027 81.9343 108.027 85.8922C108.027 85.8923 108.027 85.8923 108.027 85.8923H103.027C103.027 85.8923 103.027 85.8923 103.027 85.8922C103.027 78.8036 109.253 73.0571 116.932 73.0571C124.611 73.0571 130.837 78.8036 130.837 85.8922C130.837 85.8923 130.837 85.8923 130.837 85.8923H125.837Z" fill="#E37464"/>
<path d="M166.287 84.9574C171.924 82.452 177.135 149.782 177.135 149.782L163.051 156.358C163.051 156.358 160.651 87.4628 166.287 84.9574Z" fill="#B85D51"/>
<rect x="102.519" y="113.889" width="22.3056" height="9.7791" rx="3" stroke="#FFF7CD" stroke-width="4"/>
<path d="M72.9636 84.9573H164.578L155.012 117.451H74.0447L72.9636 84.9573Z" fill="#E37464"/>
</g>
<defs>
<filter id="filter0_d_444_3860" x="0" y="0" width="244" height="245" filterUnits="userSpaceOnUse" color-interpolation-filters="sRGB">
<feFlood flood-opacity="0" result="BackgroundImageFix"/>
<feColorMatrix in="SourceAlpha" type="matrix" values="0 0 0 0 0 0 0 0 0 0 0 0 0 0 0 0 0 0 127 0" result="hardAlpha"/>
<feOffset dy="4"/>
<feGaussianBlur stdDeviation="15"/>
<feComposite in2="hardAlpha" operator="out"/>
<feColorMatrix type="matrix" values="0 0 0 0 0.662987 0 0 0 0 0.662987 0 0 0 0 0.662987 0 0 0 0.25 0"/>
<feBlend mode="normal" in2="BackgroundImageFix" result="effect1_dropShadow_444_3860"/>
<feBlend mode="normal" in="SourceGraphic" in2="effect1_dropShadow_444_3860" result="shape"/>
</filter>
</defs>
</svg>
