<svg width="1650" height="1548" viewBox="0 0 1650 1548" fill="none" xmlns="http://www.w3.org/2000/svg">
<path fill-rule="evenodd" clip-rule="evenodd" d="M1041.04 13.5L0.400144 0.934817L295.171 759.37L469.409 585.132L776.848 762.632L269.145 1270.33L483.919 1394.33L638.776 1239.48L689.005 1268.48L534.149 1423.33L749.789 1547.83L1257.49 1040.13L1380.53 917.095L1649.94 647.688L861.853 192.688L1041.04 13.5ZM675.232 361.55L864.892 471.05L823.88 512.062L634.22 402.562L675.232 361.55ZM899.533 491.05L1089.19 600.55L1048.18 641.562L858.521 532.062L899.533 491.05ZM1258.93 698.55L1123.83 620.55L1082.82 661.562L1167.69 710.562L1033.34 844.912L1083.57 873.912L1217.92 739.562L1238.43 719.056L1258.93 698.55ZM900.43 1057.05L1055.29 902.197L1005.06 873.197L850.201 1028.05L900.43 1057.05ZM872.146 1085.34L717.29 1240.19L667.06 1211.19L821.917 1056.34L872.146 1085.34Z" fill="#FFD3C0"/>
</svg>
