<svg width="793" height="687" viewBox="0 0 793 687" fill="none" xmlns="http://www.w3.org/2000/svg">
<circle cx="128.466" cy="98.4661" r="98.4661" fill="#D4E2FC"/>
<rect x="76" y="53" width="104" height="89.7255" rx="10" fill="#6A6A6A"/>
<rect x="83" y="59.0588" width="90" height="69" rx="10" fill="#FFF7CD"/>
<path d="M120.636 136.608H135.364L141.255 163.118H114.745L120.636 136.608Z" fill="#6A6A6A"/>
<rect x="94.353" y="74.4119" width="37.7255" height="38.7451" fill="#6A6A6A"/>
<rect x="137.176" y="74.4119" width="21.4118" height="17.3333" fill="#6A6A6A"/>
<rect x="137.176" y="95.8235" width="21.4118" height="17.3333" fill="#6A6A6A"/>
<circle cx="403.399" cy="98.4661" r="98.4661" fill="#D4E2FC"/>
<g clip-path="url(#clip0_439_3780)">
<mask id="mask0_439_3780" style="mask-type:luminance" maskUnits="userSpaceOnUse" x="369" y="49" width="73" height="101">
<path d="M377.436 145.737L393.828 141.345L437.829 65.1343L417.043 53.1352L373.044 129.346L377.436 145.737Z" fill="#555555" stroke="white" stroke-width="7" stroke-linejoin="round"/>
<path d="M405.043 73.9192L425.827 85.9188" stroke="white" stroke-width="7" stroke-linecap="round" stroke-linejoin="round"/>
</mask>
<g mask="url(#mask0_439_3780)">
<path d="M344.632 64.4583L437.361 39.6116L462.207 132.341L369.478 157.187L344.632 64.4583Z" fill="#E5CCCC"/>
</g>
</g>
<circle cx="678.331" cy="98.4661" r="98.4661" fill="#D4E2FC"/>
<path d="M722.115 63.5833C716.657 61.8625 710.659 61.125 704.906 61.125C695.319 61.125 684.994 63.0917 677.865 68.5C670.735 63.0917 660.41 61.125 650.823 61.125C641.235 61.125 630.91 63.0917 623.781 68.5V140.529C623.781 141.758 625.01 142.987 626.24 142.987C626.731 142.987 626.977 142.742 627.469 142.742C634.106 139.546 643.694 137.333 650.823 137.333C660.41 137.333 670.735 139.3 677.865 144.708C684.502 140.529 696.548 137.333 704.906 137.333C713.019 137.333 721.377 138.808 728.26 142.496C728.752 142.742 728.998 142.742 729.49 142.742C730.719 142.742 731.948 141.512 731.948 140.283V68.5C728.998 66.2875 725.802 64.8125 722.115 63.5833ZM722.115 129.958C716.706 128.237 710.806 127.5 704.906 127.5C696.548 127.5 684.502 130.696 677.865 134.875V78.3333C684.502 74.1542 696.548 70.9583 704.906 70.9583C710.806 70.9583 716.706 71.6958 722.115 73.4167V129.958Z" fill="#96B48B"/>
<path d="M704.906 90.625C709.233 90.625 713.412 91.0675 717.198 91.9033V84.43C713.314 83.6925 709.135 83.25 704.906 83.25C696.548 83.25 688.976 84.6758 682.781 87.3308V95.4925C688.337 92.3458 696.056 90.625 704.906 90.625ZM682.781 100.409V108.571C688.337 105.424 696.056 103.703 704.906 103.703C709.233 103.703 713.412 104.146 717.198 104.982V97.5083C713.314 96.7708 709.135 96.3283 704.906 96.3283C696.548 96.3283 688.976 97.8033 682.781 100.409ZM704.906 109.456C696.548 109.456 688.976 110.882 682.781 113.537V121.698C688.337 118.552 696.056 116.831 704.906 116.831C709.233 116.831 713.412 117.273 717.198 118.109V110.636C713.314 109.849 709.135 109.456 704.906 109.456Z" fill="#96B48B"/>
<g filter="url(#filter0_d_439_3780)">
<circle cx="128.466" cy="326.065" r="98.4661" fill="#D4E2FC"/>
<path d="M149.276 380.768L149.276 343.735L159.681 333.652L159.681 322.795M81.0306 307.187L107.658 307.187L107.658 295.295L132.929 295.295L132.929 278.199M77.927 338.476L120.409 338.476L145.563 317.592L145.563 278.199M79.4136 348.064L111.987 348.064L122.07 358.469L121.651 358.037M79.4129 324.603L111.987 324.603L122.069 314.198L121.65 314.63M77.927 283.199C77.927 280.438 80.1656 278.199 82.927 278.199L174.009 278.199C176.771 278.199 179.009 280.438 179.009 283.199L179.009 375.768C179.009 378.53 176.771 380.768 174.009 380.768L82.927 380.768C80.1656 380.768 77.927 378.53 77.927 375.768L77.927 283.199ZM134.409 363.252C134.409 358.326 130.416 354.332 125.49 354.332C120.565 354.332 116.571 358.326 116.571 363.252C116.571 368.177 120.565 372.171 125.49 372.171C130.416 372.171 134.409 368.177 134.409 363.252ZM134.409 309.416C134.409 314.342 130.416 318.335 125.49 318.335C120.564 318.335 116.571 314.342 116.571 309.416C116.571 304.49 120.564 300.497 125.49 300.497C130.416 300.497 134.409 304.49 134.409 309.416ZM150.767 316.849C150.767 321.775 154.76 325.768 159.686 325.768C164.612 325.768 168.605 321.775 168.605 316.849C168.605 311.923 164.612 307.93 159.686 307.93C154.76 307.93 150.767 311.923 150.767 316.849Z" stroke="#96B48B" stroke-width="6"/>
</g>
<circle cx="396.398" cy="326.065" r="98.4661" fill="#D4E2FC"/>
<circle cx="393.667" cy="331.536" r="43.7627" fill="#6A6A6A"/>
<circle cx="393.662" cy="331.536" r="25.5283" fill="#B8EEF5"/>
<rect x="385.708" y="276.833" width="15.9137" height="27.849" fill="#6A6A6A"/>
<rect x="385.708" y="358.391" width="15.9137" height="27.849" fill="#6A6A6A"/>
<rect x="426.72" y="287.229" width="15.9137" height="27.849" transform="rotate(45 426.72 287.229)" fill="#6A6A6A"/>
<rect x="369.048" y="344.9" width="15.9137" height="27.849" transform="rotate(45 369.048 344.9)" fill="#6A6A6A"/>
<rect x="448.366" y="323.579" width="15.9137" height="27.849" transform="rotate(90 448.366 323.579)" fill="#6A6A6A"/>
<rect x="366.807" y="323.579" width="15.9137" height="27.849" transform="rotate(90 366.807 323.579)" fill="#6A6A6A"/>
<rect x="437.971" y="364.589" width="15.9137" height="27.849" transform="rotate(135 437.971 364.589)" fill="#6A6A6A"/>
<rect x="380.299" y="306.919" width="15.9137" height="27.849" transform="rotate(135 380.299 306.919)" fill="#6A6A6A"/>
<g filter="url(#filter1_d_439_3780)">
<circle cx="664.331" cy="326.065" r="98.4661" fill="#D4E2FC"/>
<path d="M659.689 291.49C660.838 289.461 663.761 289.461 664.91 291.49L712.483 375.504C713.615 377.504 712.171 379.983 709.872 379.983L614.726 379.983C612.428 379.983 610.983 377.504 612.116 375.504L659.689 291.49Z" fill="#00BCD4"/>
<rect x="646.786" y="271.362" width="31.0343" height="44.1643" fill="#00BCD4"/>
<path d="M653.077 287.623L672.207 287.623L672.207 314.406L653.077 314.406L653.077 287.623Z" fill="#B8EEF5"/>
<path d="M662.647 297.188L687.498 341.667L637.795 341.667L662.647 297.188Z" fill="#B8EEF5"/>
</g>
<g filter="url(#filter2_d_439_3780)">
<circle cx="128.466" cy="553.664" r="98.4661" fill="#D4E2FC"/>
<path d="M142.784 533.995C142.655 533.764 142.478 533.562 142.266 533.404C142.054 533.245 141.81 533.134 141.552 533.076C141.294 533.018 141.026 533.015 140.766 533.068C140.507 533.121 140.261 533.228 140.046 533.382L138.598 534.416C137.785 534.966 136.791 535.176 135.825 535.002C134.86 534.829 134.001 534.285 133.431 533.487C132.861 532.689 132.625 531.699 132.774 530.73C132.923 529.761 133.445 528.888 134.228 528.297L135.676 527.259C136.752 526.491 137.979 525.958 139.275 525.696C140.572 525.434 141.909 525.448 143.2 525.738C144.491 526.028 145.705 526.587 146.765 527.379C147.825 528.171 148.706 529.177 149.35 530.332L151.261 533.755L157.259 527.756C157.606 527.397 158.021 527.11 158.48 526.913C158.939 526.716 159.432 526.612 159.932 526.608C160.431 526.604 160.926 526.699 161.389 526.888C161.851 527.077 162.271 527.356 162.624 527.709C162.977 528.062 163.256 528.482 163.445 528.945C163.634 529.407 163.729 529.902 163.725 530.401C163.721 530.901 163.617 531.394 163.42 531.853C163.223 532.312 162.936 532.727 162.577 533.074L155.067 540.584L158.049 545.925C158.183 546.164 158.367 546.371 158.589 546.532C158.811 546.692 159.065 546.802 159.334 546.854C159.603 546.906 159.881 546.899 160.146 546.832C160.412 546.766 160.66 546.642 160.873 546.47L162.246 545.361C163.022 544.746 164.009 544.463 164.992 544.571C165.976 544.68 166.877 545.172 167.501 545.94C168.124 546.709 168.419 547.692 168.323 548.676C168.226 549.661 167.746 550.568 166.985 551.201L165.616 552.311C164.551 553.175 163.31 553.796 161.979 554.13C160.649 554.464 159.261 554.503 157.914 554.244C156.567 553.985 155.293 553.434 154.181 552.63C153.069 551.827 152.147 550.789 151.479 549.591L149.538 546.113L143.769 551.878C143.422 552.237 143.007 552.524 142.548 552.721C142.089 552.918 141.596 553.022 141.097 553.026C140.597 553.03 140.102 552.935 139.64 552.746C139.178 552.557 138.758 552.278 138.405 551.925C138.051 551.572 137.772 551.152 137.583 550.689C137.394 550.227 137.299 549.732 137.303 549.233C137.308 548.733 137.411 548.24 137.608 547.781C137.805 547.322 138.092 546.907 138.451 546.56L145.728 539.283L142.78 533.995L142.784 533.995ZM116.277 568.542C110.952 569.58 104.987 569.84 99.2405 569.896C98.2138 574.071 98.6387 577.031 99.6053 579.031C100.741 581.375 102.934 583.033 106.029 583.808C112.422 585.399 121.727 582.868 127.943 575.782C128.266 575.402 128.662 575.091 129.106 574.865C129.551 574.64 130.036 574.505 130.533 574.468C131.03 574.432 131.53 574.495 132.002 574.653C132.475 574.811 132.912 575.062 133.287 575.391C133.661 575.719 133.967 576.119 134.186 576.567C134.405 577.015 134.533 577.502 134.562 577.999C134.591 578.497 134.521 578.995 134.356 579.466C134.191 579.936 133.934 580.369 133.6 580.739C125.709 589.739 113.592 593.443 104.209 591.104C99.4172 589.908 95.1374 587.057 92.8395 582.311C90.5566 577.599 90.5378 571.675 92.8771 564.913C96.0362 555.801 100.843 550.092 105.69 546.538C109.29 543.904 113.42 542.087 117.793 541.212C123.908 539.96 129.395 541.679 132.46 545.703C135.574 549.795 135.469 555.357 132.114 559.945C128.429 564.977 122.411 567.346 116.277 568.542V568.542ZM119.301 548.58C115.99 549.238 112.864 550.611 110.139 552.604C107.428 554.593 104.532 557.617 102.129 562.322C106.668 562.209 111.004 561.908 114.837 561.156C120.309 560.092 124.036 558.249 126.044 555.504C127.661 553.288 127.345 551.404 126.477 550.261C125.555 549.057 123.287 547.764 119.301 548.58V548.58Z" fill="#B85D51"/>
</g>
<g filter="url(#filter3_d_439_3780)">
<circle cx="396.398" cy="553.664" r="98.4661" fill="#D4E2FC"/>
<rect x="368.055" y="546.537" width="15.748" height="55.1178" fill="#6A6A6A"/>
<rect x="391.677" y="513.467" width="15.748" height="88.1885" fill="#6A6A6A"/>
<rect x="415.294" y="530.787" width="15.748" height="74.0154" fill="#6A6A6A"/>
<rect x="344.43" y="507.166" width="13.6759" height="98.4661" fill="#E5CCCC"/>
<rect x="448.367" y="600.162" width="13.6759" height="103.936" transform="rotate(90 448.367 600.162)" fill="#E5CCCC"/>
</g>
<g filter="url(#filter4_d_439_3780)">
<circle cx="664.331" cy="553.664" r="98.4661" fill="#D4E2FC"/>
<circle cx="668.832" cy="558.99" r="50.2047" fill="#FFF7CD"/>
<circle cx="661.759" cy="558.991" r="50.2047" fill="#F5CA60"/>
<path d="M657.371 587.16L657.371 528.978L661.098 528.978L661.098 587.16L657.371 587.16ZM667.257 548.183C667.075 546.35 666.295 544.925 664.916 543.91C663.537 542.895 661.666 542.387 659.302 542.387C657.696 542.387 656.34 542.615 655.234 543.069C654.128 543.509 653.28 544.122 652.689 544.91C652.113 545.698 651.825 546.592 651.825 547.592C651.795 548.425 651.969 549.153 652.348 549.774C652.742 550.395 653.28 550.933 653.962 551.387C654.643 551.827 655.431 552.213 656.325 552.547C657.219 552.865 658.174 553.137 659.189 553.365L663.371 554.365C665.401 554.819 667.265 555.425 668.962 556.183C670.659 556.941 672.128 557.872 673.371 558.978C674.613 560.084 675.575 561.387 676.257 562.887C676.954 564.387 677.31 566.107 677.325 568.047C677.31 570.895 676.583 573.365 675.143 575.456C673.719 577.531 671.659 579.145 668.962 580.297C666.28 581.433 663.045 582.001 659.257 582.001C655.499 582.001 652.227 581.425 649.439 580.274C646.666 579.122 644.499 577.418 642.939 575.16C641.393 572.887 640.583 570.077 640.507 566.728L650.03 566.728C650.136 568.289 650.583 569.592 651.371 570.637C652.174 571.668 653.242 572.448 654.575 572.978C655.924 573.494 657.446 573.751 659.143 573.751C660.81 573.751 662.257 573.509 663.484 573.024C664.727 572.539 665.689 571.865 666.371 571.001C667.052 570.137 667.393 569.145 667.393 568.024C667.393 566.978 667.083 566.1 666.462 565.387C665.855 564.675 664.962 564.069 663.78 563.569C662.613 563.069 661.181 562.615 659.484 562.206L654.416 560.933C650.492 559.978 647.393 558.486 645.121 556.456C642.848 554.425 641.719 551.691 641.734 548.251C641.719 545.433 642.469 542.971 643.984 540.865C645.515 538.759 647.613 537.115 650.28 535.933C652.946 534.751 655.977 534.16 659.371 534.16C662.825 534.16 665.84 534.751 668.416 535.933C671.007 537.115 673.022 538.759 674.462 540.865C675.901 542.971 676.643 545.41 676.689 548.183L667.257 548.183Z" fill="#FFF7CD"/>
</g>
<defs>
<filter id="filter0_d_439_3780" x="0" y="201.599" width="256.932" height="256.932" filterUnits="userSpaceOnUse" color-interpolation-filters="sRGB">
<feFlood flood-opacity="0" result="BackgroundImageFix"/>
<feColorMatrix in="SourceAlpha" type="matrix" values="0 0 0 0 0 0 0 0 0 0 0 0 0 0 0 0 0 0 127 0" result="hardAlpha"/>
<feOffset dy="4"/>
<feGaussianBlur stdDeviation="15"/>
<feComposite in2="hardAlpha" operator="out"/>
<feColorMatrix type="matrix" values="0 0 0 0 0.604653 0 0 0 0 0.604653 0 0 0 0 0.604653 0 0 0 0.25 0"/>
<feBlend mode="normal" in2="BackgroundImageFix" result="effect1_dropShadow_439_3780"/>
<feBlend mode="normal" in="SourceGraphic" in2="effect1_dropShadow_439_3780" result="shape"/>
</filter>
<filter id="filter1_d_439_3780" x="535.865" y="201.599" width="256.932" height="256.932" filterUnits="userSpaceOnUse" color-interpolation-filters="sRGB">
<feFlood flood-opacity="0" result="BackgroundImageFix"/>
<feColorMatrix in="SourceAlpha" type="matrix" values="0 0 0 0 0 0 0 0 0 0 0 0 0 0 0 0 0 0 127 0" result="hardAlpha"/>
<feOffset dy="4"/>
<feGaussianBlur stdDeviation="15"/>
<feComposite in2="hardAlpha" operator="out"/>
<feColorMatrix type="matrix" values="0 0 0 0 0.604653 0 0 0 0 0.604653 0 0 0 0 0.604653 0 0 0 0.25 0"/>
<feBlend mode="normal" in2="BackgroundImageFix" result="effect1_dropShadow_439_3780"/>
<feBlend mode="normal" in="SourceGraphic" in2="effect1_dropShadow_439_3780" result="shape"/>
</filter>
<filter id="filter2_d_439_3780" x="0" y="429.198" width="256.932" height="256.932" filterUnits="userSpaceOnUse" color-interpolation-filters="sRGB">
<feFlood flood-opacity="0" result="BackgroundImageFix"/>
<feColorMatrix in="SourceAlpha" type="matrix" values="0 0 0 0 0 0 0 0 0 0 0 0 0 0 0 0 0 0 127 0" result="hardAlpha"/>
<feOffset dy="4"/>
<feGaussianBlur stdDeviation="15"/>
<feComposite in2="hardAlpha" operator="out"/>
<feColorMatrix type="matrix" values="0 0 0 0 0.604653 0 0 0 0 0.604653 0 0 0 0 0.604653 0 0 0 0.25 0"/>
<feBlend mode="normal" in2="BackgroundImageFix" result="effect1_dropShadow_439_3780"/>
<feBlend mode="normal" in="SourceGraphic" in2="effect1_dropShadow_439_3780" result="shape"/>
</filter>
<filter id="filter3_d_439_3780" x="267.932" y="429.198" width="256.932" height="256.932" filterUnits="userSpaceOnUse" color-interpolation-filters="sRGB">
<feFlood flood-opacity="0" result="BackgroundImageFix"/>
<feColorMatrix in="SourceAlpha" type="matrix" values="0 0 0 0 0 0 0 0 0 0 0 0 0 0 0 0 0 0 127 0" result="hardAlpha"/>
<feOffset dy="4"/>
<feGaussianBlur stdDeviation="15"/>
<feComposite in2="hardAlpha" operator="out"/>
<feColorMatrix type="matrix" values="0 0 0 0 0.604653 0 0 0 0 0.604653 0 0 0 0 0.604653 0 0 0 0.25 0"/>
<feBlend mode="normal" in2="BackgroundImageFix" result="effect1_dropShadow_439_3780"/>
<feBlend mode="normal" in="SourceGraphic" in2="effect1_dropShadow_439_3780" result="shape"/>
</filter>
<filter id="filter4_d_439_3780" x="535.865" y="429.198" width="256.932" height="256.932" filterUnits="userSpaceOnUse" color-interpolation-filters="sRGB">
<feFlood flood-opacity="0" result="BackgroundImageFix"/>
<feColorMatrix in="SourceAlpha" type="matrix" values="0 0 0 0 0 0 0 0 0 0 0 0 0 0 0 0 0 0 127 0" result="hardAlpha"/>
<feOffset dy="4"/>
<feGaussianBlur stdDeviation="15"/>
<feComposite in2="hardAlpha" operator="out"/>
<feColorMatrix type="matrix" values="0 0 0 0 0.604653 0 0 0 0 0.604653 0 0 0 0 0.604653 0 0 0 0.25 0"/>
<feBlend mode="normal" in2="BackgroundImageFix" result="effect1_dropShadow_439_3780"/>
<feBlend mode="normal" in="SourceGraphic" in2="effect1_dropShadow_439_3780" result="shape"/>
</filter>
<clipPath id="clip0_439_3780">
<rect width="96" height="96" fill="white" transform="translate(344.632 64.4583) rotate(-15)"/>
</clipPath>
</defs>
</svg>
