<svg width="50" height="60" viewBox="0 0 50 60" fill="none" xmlns="http://www.w3.org/2000/svg">
<path d="M40.361 9.26562H10.7131L12.1682 27.8183H38.7354L40.361 9.26562Z" fill="#6C8264"/>
<path d="M39.9984 20.3607C41.5222 22.2654 37.8831 25.2952 36.2461 25.5984L36.7917 22.5063C37.6406 21.2937 38.5432 18.5418 39.9984 20.3607Z" fill="#FFD3C0"/>
<path d="M11.3263 20.3607C9.8025 22.2654 13.4416 25.2952 15.0786 25.5984L14.533 22.5063C13.6842 21.2937 12.7815 18.5418 11.3263 20.3607Z" fill="#FFD3C0"/>
<path d="M27.6862 29.2729H22.4784C22.4784 29.2729 22.8039 31.0727 22.8039 32.226C22.8039 33.3792 21.9902 37.6398 21.9902 37.6398H24.5941H28.1744L27.6862 35.179C27.294 33.1701 27.2973 31.8746 27.6862 29.2729Z" fill="#FFD3C0"/>
<path d="M12.1694 16.6512C12.1694 24.1458 18.1956 32.1833 25.6292 32.1833C33.0628 32.1833 39.089 24.1458 39.089 16.6512C39.089 9.15662 33.0628 3.08105 25.6292 3.08105C18.1956 3.08105 12.1694 9.15662 12.1694 16.6512Z" fill="#FFD3C0"/>
<path d="M35.2749 7.00939C29.4491 0.940603 18.7947 2.83716 15.4665 6.44047C12.1382 10.0438 12.1688 16.4239 12.1688 16.4239L36.8891 21.9975C36.8891 21.9975 41.1006 13.0782 35.2749 7.00939Z" fill="#695555"/>
<path d="M35.4513 27.8178C36.2275 25.289 35.6483 16.7124 35.4512 12.5056C35.4512 9.82859 36.013 5.81852 38.2599 11.1944C40.5069 16.5703 37.7179 24.9223 35.4513 27.8178Z" fill="#695555"/>
<path d="M15.8069 27.8178C15.0306 25.289 15.6099 16.7124 15.807 12.5056C15.807 9.82859 15.2452 5.81852 12.9982 11.1944C10.7513 16.5703 13.5402 24.9223 15.8069 27.8178Z" fill="#695555"/>
<path d="M4.16553 56.5567L9.87023 34.3662H22.5363L25.0828 37.412L27.5372 34.3662H39.6614L46 56.5567H4.16553Z" fill="white"/>
<path d="M18.7175 39.2724H31.086V36.7901V34.2437H37.0883H37.634V59.1028H12.1695V34.2437H18.7175V39.2724Z" fill="#96B48B"/>
<path d="M31.0845 46.7344H19.0798V53.5781C23.7717 56.973 26.3942 57.154 31.0845 53.5781V46.7344Z" fill="#FFF7CD"/>
<path d="M36.1777 38.6089H32.5399V40.7916H36.1777V38.6089Z" fill="#FFF7CD"/>
<path d="M17.2611 38.6089H13.6234V40.7916H17.2611V38.6089Z" fill="#FFF7CD"/>
<path d="M12.5317 19.8149C14.5277 3.45209 36.5464 3.45209 38.7237 19.8149C40.2816 15.6472 40.7113 13.4055 40.4701 9.54461L34.4823 3.27802C27.3801 1.00846 23.4621 1.03323 16.5191 3.62617C16.5191 3.62617 12.7085 6.93354 10.7127 9.54461C10.7715 13.8447 11.2959 16.1004 12.5317 19.8149Z" fill="#96B48B"/>
<path d="M29.9935 53.1006C26.2349 55.7383 24.083 55.694 20.1715 53.1006" stroke="#6C8264"/>
<path d="M29.6295 47.8257V52.191" stroke="#6C8264"/>
<path d="M20.5366 47.8257V52.191" stroke="#6C8264"/>
</svg>
