<svg width="48" height="52" viewBox="0 0 48 52" fill="none" xmlns="http://www.w3.org/2000/svg">
<g filter="url(#filter0_d_3_2523)">
<path d="M26 18H22V14H26M26 34H22V22H26M24 4C21.3736 4 18.7728 4.51732 16.3463 5.52241C13.9198 6.5275 11.715 8.00069 9.85786 9.85786C6.10714 13.6086 4 18.6957 4 24C4 29.3043 6.10714 34.3914 9.85786 38.1421C11.715 39.9993 13.9198 41.4725 16.3463 42.4776C18.7728 43.4827 21.3736 44 24 44C29.3043 44 34.3914 41.8929 38.1421 38.1421C41.8929 34.3914 44 29.3043 44 24C44 21.3736 43.4827 18.7728 42.4776 16.3463C41.4725 13.9198 39.9993 11.715 38.1421 9.85786C36.285 8.00069 34.0802 6.5275 31.6537 5.52241C29.2272 4.51732 26.6264 4 24 4Z" fill="#00BCD4"/>
</g>
<defs>
<filter id="filter0_d_3_2523" x="-4" y="0" width="56" height="56" filterUnits="userSpaceOnUse" color-interpolation-filters="sRGB">
<feFlood flood-opacity="0" result="BackgroundImageFix"/>
<feColorMatrix in="SourceAlpha" type="matrix" values="0 0 0 0 0 0 0 0 0 0 0 0 0 0 0 0 0 0 127 0" result="hardAlpha"/>
<feOffset dy="4"/>
<feGaussianBlur stdDeviation="2"/>
<feComposite in2="hardAlpha" operator="out"/>
<feColorMatrix type="matrix" values="0 0 0 0 0.679653 0 0 0 0 0.679653 0 0 0 0 0.679653 0 0 0 0.25 0"/>
<feBlend mode="normal" in2="BackgroundImageFix" result="effect1_dropShadow_3_2523"/>
<feBlend mode="normal" in="SourceGraphic" in2="effect1_dropShadow_3_2523" result="shape"/>
</filter>
</defs>
</svg>
