<svg width="50" height="60" viewBox="0 0 50 60" fill="none" xmlns="http://www.w3.org/2000/svg">
<path d="M36.8844 6.32276C32.0859 -0.904056 18.6956 -0.196315 13.9029 4.49178C9.1101 9.17988 7.82832 18.0242 6.86982 25.1952C6.10367 30.9272 3.95051 44.1701 3.95051 44.1701L23.6552 43.2579L45 44.1701C45 44.1701 42.7225 30.5283 41.9927 25.4884C41.129 19.523 41.6829 13.5496 36.8844 6.32276Z" fill="#695555"/>
<path d="M27.1794 29.3916H21.9555C21.9555 29.3916 22.282 31.197 22.282 32.3538C22.282 33.5105 21.4658 37.7844 21.4658 37.7844L24.3846 41.0685L27.6691 37.7844L27.1794 35.3159C26.786 33.3008 26.7893 32.0013 27.1794 29.3916Z" fill="#FFD3C0"/>
<path d="M11.2496 16.7307C11.2496 24.2485 17.2943 32.3109 24.751 32.3109C32.2076 32.3109 38.2523 24.2485 38.2523 16.7307C38.2523 9.21299 32.2076 3.11865 24.751 3.11865C17.2943 3.11865 11.2496 9.21299 11.2496 16.7307Z" fill="#FFD3C0"/>
<path d="M27.122 35.23H38.7303L42.2654 58.2188L23.8379 59.496L5.7752 58.2188L10.1968 35.23H21.908L21.8309 37.4194L24.3852 41.4333L27.3044 37.6018L27.122 35.23Z" fill="#E37464"/>
<path d="M34.7526 5.9023C28.828 -0.653546 17.9927 1.39523 14.6079 5.28772C11.2232 9.18021 10.8846 18.8091 10.8846 18.8091H38.646C38.646 18.8091 40.6773 12.4581 34.7526 5.9023Z" fill="#695555"/>
<rect width="6.56824" height="11.312" transform="matrix(-1 0 0 1 38.9821 14.4307)" fill="#695555"/>
<rect width="6.56824" height="11.312" transform="matrix(-1 0 0 1 17.4526 14.4307)" fill="#695555"/>
<path d="M28.4247 35.2339C28.4805 35.2699 28.5357 35.3075 28.5902 35.3467C30.2985 36.5722 30.756 38.8584 29.612 40.4531C28.468 42.0478 26.1557 42.347 24.4474 41.1215C24.3928 41.0823 24.3395 41.0421 24.2875 41.0008L28.4247 35.2339Z" fill="white"/>
<path d="M20.6093 35.2339C20.5535 35.27 20.4983 35.3076 20.4437 35.3468C18.7354 36.5723 18.278 38.8585 19.422 40.4531C20.566 42.0478 22.8782 42.3471 24.5865 41.1215C24.6411 41.0824 24.6944 41.0421 24.7465 41.0008L20.6093 35.2339Z" fill="white"/>
<path d="M34.3522 44.0361L24.949 47.724V59.4024L34.3522 57.2512V44.0361Z" fill="#B85D51"/>
<path d="M14.632 44.0361L24.2965 47.724V59.4024L14.632 57.2512V44.0361Z" fill="#B85D51"/>
<rect width="0.653002" height="11.8419" transform="matrix(-1 0 0 1 24.9493 47.5605)" fill="white"/>
<path d="M15.7579 43.5285L14.6307 44.0361L24.2951 47.772L25.4051 47.2831L15.7579 43.5285Z" fill="white"/>
<path d="M33.2565 43.5427L34.3694 44.0349L24.7531 47.8425L24.0492 47.1531L33.2565 43.5427Z" fill="white"/>
<path d="M27.3037 53.4749C27.3037 55.0871 29.1825 56.3941 31.5001 56.3941C33.8177 56.3941 34.9666 55.0871 34.9666 53.4749C34.9666 51.8626 33.8177 50.5557 31.5001 50.5557C29.1825 50.5557 27.3037 51.8626 27.3037 53.4749Z" fill="#FFD3C0"/>
<path d="M13.9864 53.4749C13.9864 55.0871 14.9529 56.3941 17.2705 56.3941C19.5881 56.3941 21.4669 55.0871 21.4669 53.4749C21.4669 51.8626 19.5881 50.5557 17.2705 50.5557C14.9529 50.5557 13.9864 51.8626 13.9864 53.4749Z" fill="#FFD3C0"/>
</svg>
