<svg width="40" height="50" viewBox="0 0 40 50" fill="none" xmlns="http://www.w3.org/2000/svg">
<path d="M9.09946 21.8823C9.70562 23.0149 10.8074 25.0527 9.96464 25.542C9.12193 26.0314 6.6539 24.787 6.04774 23.6544C5.44158 22.5217 5.63335 21.2068 6.47605 20.7175C7.31876 20.2281 8.4933 20.7496 9.09946 21.8823Z" fill="#FFD3C0"/>
<path d="M24.7769 33.3726H13.1859V40.878H24.7769V33.3726Z" fill="#FFD3C0"/>
<path d="M30.026 21.6235C29.4199 22.7561 28.3181 24.7939 29.1608 25.2833C30.0036 25.7726 32.4716 24.5282 33.0777 23.3956C33.6839 22.2629 33.4921 20.948 32.6494 20.4587C31.8067 19.9693 30.6322 20.4908 30.026 21.6235Z" fill="#FFD3C0"/>
<path d="M22.5396 27.1143H16.472C16.472 27.1143 16.472 30.4516 16.472 31.8459C16.472 33.2402 15.9032 37.2302 15.9032 37.2302L18.8793 40.004L23.1084 37.5566L22.5396 34.2549C22.0827 31.8262 22.0865 30.2597 22.5396 27.1143Z" fill="#FFD3C0"/>
<path d="M7.85813 17.3873C7.85813 24.1102 13.0476 31.3201 19.4491 31.3201C25.8506 31.3201 31.04 24.1102 31.04 17.3873C31.04 10.6644 25.8506 5.21436 19.4491 5.21436C13.0476 5.21436 7.85813 10.6644 7.85813 17.3873Z" fill="#FFD3C0"/>
<path d="M32.2596 3.74617L28.2172 5.05145C28.0634 2.93036 26.8131 2.27772 25.5573 1.46191V3.74617C24.4581 2.27772 19.6053 1.78824 17.0962 2.7672C16.3444 0.939803 11.2513 2.33211 8.79738 2.7672L10.8309 4.72512C9.20186 3.68089 6.9179 5.54094 5.19492 6.5199L7.8548 7.00938C6.13473 9.13048 5.87873 13.3726 6.34644 15.8201C6.79401 18.6096 7.09904 19.4861 8.48134 21.0412L14.7496 15.8201C14.7496 15.8201 14.7496 16.3096 14.2797 17.778C13.8098 19.2465 13.1833 20.5517 13.1833 20.5517C17.1849 19.8335 21.1797 17.935 23.5745 15.9695L19.6053 19.5728C22.738 19.0833 25.2412 18.1043 26.6539 16.9622L30.7076 20.735C34.8948 12.8995 32.4406 7.42263 30.7077 6.5199C30.0812 6.19358 32.1028 4.39881 32.2596 3.74617Z" fill="#695555"/>
<path d="M15.9478 32.8462H4.17332L3.34033 48.5384H36.6599L35.8269 32.8462H22.8323L22.5482 34.3846H15.9478V32.8462Z" fill="#6A6A6A"/>
<path d="M19.5101 39.1913L16.1575 32.8462H13.1401L14.914 36.9252H16.3654L19.5101 43.4214L22.4934 36.9252H23.7835L25.88 32.8462H24.1867H22.4934L19.5101 39.1913Z" fill="white"/>
<path d="M19.3491 41.3745L16.5201 34.2107L22.1781 34.2107L19.3491 41.3745Z" fill="white"/>
</svg>
