<svg width="32" height="32" viewBox="0 0 32 32" fill="none" xmlns="http://www.w3.org/2000/svg">
<path d="M16.0002 10.6668L10.6668 16.0002L12.5335 17.8668L14.6668 15.7335L14.6668 21.3335L17.3335 21.3335L17.3335 15.7335L19.4668 17.8668L21.3335 16.0002L16.0002 10.6668ZM16.0002 2.66683C17.8446 2.66683 19.5779 3.01705 21.2002 3.7175C22.8224 4.41705 24.2335 5.36683 25.4335 6.56683C26.6335 7.76683 27.5833 9.17794 28.2828 10.8002C28.9833 12.4224 29.3335 14.1557 29.3335 16.0002C29.3335 17.8446 28.9833 19.5779 28.2828 21.2002C27.5833 22.8224 26.6335 24.2335 25.4335 25.4335C24.2335 26.6335 22.8224 27.5837 21.2002 28.2842C19.5779 28.9837 17.8446 29.3335 16.0002 29.3335C14.1557 29.3335 12.4224 28.9837 10.8002 28.2842C9.17794 27.5837 7.76683 26.6335 6.56683 25.4335C5.36683 24.2335 4.41705 22.8224 3.7175 21.2002C3.01705 19.5779 2.66683 17.8446 2.66683 16.0002C2.66683 14.1557 3.01705 12.4224 3.7175 10.8002C4.41706 9.17794 5.36683 7.76683 6.56683 6.56683C7.76683 5.36683 9.17794 4.41705 10.8002 3.7175C12.4224 3.01705 14.1557 2.66683 16.0002 2.66683Z" fill="white"/>
</svg>
