<svg width="50" height="60" viewBox="0 0 50 60" fill="none" xmlns="http://www.w3.org/2000/svg">
<path d="M13.7758 53.9258L11.119 57.5569L6.00002 53.8115L8.65676 50.1804L13.7758 53.9258Z" fill="#96B48B"/>
<path d="M35.2243 53.9258L37.8811 57.5569L43.0001 53.8115L40.3433 50.1804L35.2243 53.9258Z" fill="#96B48B"/>
<rect x="6" y="32.7144" width="5.28571" height="21.1429" fill="#96B48B"/>
<rect x="37.7143" y="32.7144" width="5.28571" height="21.1429" fill="#96B48B"/>
<path d="M34.7511 20.5433C34.0774 21.7211 32.8527 23.8402 33.7894 24.349C34.7261 24.8579 37.4694 23.5639 38.1432 22.3861C38.817 21.2082 38.6038 19.8409 37.6671 19.332C36.7304 18.8231 35.4249 19.3654 34.7511 20.5433Z" fill="#FFD3C0"/>
<path d="M14.8406 20.5433C15.5144 21.7211 16.739 23.8402 15.8023 24.349C14.8656 24.8579 12.1223 23.5639 11.4485 22.3861C10.7748 21.2082 10.9879 19.8409 11.9246 19.332C12.8613 18.8231 14.1669 19.3654 14.8406 20.5433Z" fill="#FFD3C0"/>
<path d="M28.3252 33.3144L27.3996 29.2837H21.4752L20.1793 33.3144H12.8983V40.3682L12.6388 48.1991L37.447 47.4219V33.3144H28.3252Z" fill="#FFD3C0"/>
<path d="M13.6163 16.3716C13.6163 24.012 18.5713 30.2058 24.6836 30.2058C30.796 30.2058 35.7511 24.012 35.7511 16.3716C33.1971 17.2498 30.796 16.7952 24.6836 16.7952C18.5713 16.7952 18.6297 16.9088 13.6163 16.3716Z" fill="#FFD3C0"/>
<path d="M11.1562 15.0882C11.1562 22.8689 17.2812 17.0449 24.8367 17.0449C32.3923 17.0449 38.5173 22.8689 38.5173 15.0882C38.5173 7.30751 32.3923 1 24.8367 1C17.2812 1 11.1562 7.30751 11.1562 15.0882Z" fill="#96B48B"/>
<path d="M36.5195 18.5234L32.984 27.5926L24.3761 30.9743L15.7681 27.1314L13.155 18.5234" stroke="#96B48B" stroke-width="1.5"/>
<path d="M10.8834 32.687H20.3848L24.3892 39.303L28.2195 32.687H37.9693L37.9692 55.1465L24.6401 58.4545L10.8834 54.5419V32.687Z" fill="#96B48B"/>
<rect x="15.5143" y="32.7144" width="3.17143" height="8.45714" fill="#6A6A6A"/>
<rect x="30.3143" y="32.7144" width="3.17143" height="8.45714" fill="#6A6A6A"/>
<path d="M10.7571 41.1714H38.2429V59.1428H10.7571V41.1714Z" fill="#6A6A6A"/>
</svg>
