<svg width="32" height="32" viewBox="0 0 32 32" fill="none" xmlns="http://www.w3.org/2000/svg">
<path d="M15.9998 21.3332L21.3332 15.9998L19.4665 14.1332L17.3332 16.2665V10.6665H14.6665V16.2665L12.5332 14.1332L10.6665 15.9998L15.9998 21.3332ZM15.9998 29.3332C14.1554 29.3332 12.4221 28.9829 10.7998 28.2825C9.17762 27.5829 7.7665 26.6332 6.5665 25.4332C5.3665 24.2332 4.41673 22.8221 3.71717 21.1998C3.01673 19.5776 2.6665 17.8443 2.6665 15.9998C2.6665 14.1554 3.01673 12.4221 3.71717 10.7998C4.41673 9.17762 5.3665 7.7665 6.5665 6.5665C7.7665 5.3665 9.17762 4.41628 10.7998 3.71584C12.4221 3.01628 14.1554 2.6665 15.9998 2.6665C17.8443 2.6665 19.5776 3.01628 21.1998 3.71584C22.8221 4.41628 24.2332 5.3665 25.4332 6.5665C26.6332 7.7665 27.5829 9.17762 28.2825 10.7998C28.9829 12.4221 29.3332 14.1554 29.3332 15.9998C29.3332 17.8443 28.9829 19.5776 28.2825 21.1998C27.5829 22.8221 26.6332 24.2332 25.4332 25.4332C24.2332 26.6332 22.8221 27.5829 21.1998 28.2825C19.5776 28.9829 17.8443 29.3332 15.9998 29.3332Z" fill="white"/>
</svg>
