<svg width="845" height="730" viewBox="0 0 845 730" fill="none" xmlns="http://www.w3.org/2000/svg">
<g filter="url(#filter0_d_410_3111)">
<circle cx="709.91" cy="402.951" r="98.4661" transform="rotate(30 709.91 402.951)" fill="#D4E2FC"/>
<path d="M723.177 370.687C725.187 369.505 727.718 370.966 727.699 373.298L726.891 469.843C726.872 472.141 724.382 473.565 722.391 472.416L639.992 424.843C638.002 423.694 637.99 420.825 639.971 419.66L723.177 370.687Z" fill="#00BCD4"/>
<rect x="722.067" y="346.804" width="31.0343" height="44.1643" transform="rotate(30 722.067 346.804)" fill="#00BCD4"/>
<path d="M719.385 364.032L735.952 373.598L722.561 396.792L705.993 387.227L719.385 364.032Z" fill="#B8EEF5"/>
<path d="M722.889 377.101L722.172 428.047L679.128 403.195L722.889 377.101Z" fill="#B8EEF5"/>
</g>
<g filter="url(#filter1_d_410_3111)">
<circle cx="134.509" cy="326.179" r="98.4661" transform="rotate(30 134.509 326.179)" fill="#D4E2FC"/>
<g clip-path="url(#clip0_410_3111)">
<path d="M156.743 316.304C156.747 316.039 156.695 315.776 156.59 315.533C156.486 315.289 156.331 315.071 156.136 314.892C155.941 314.712 155.711 314.576 155.459 314.492C155.208 314.408 154.942 314.378 154.678 314.404L152.907 314.576C151.929 314.645 150.962 314.33 150.213 313.697C149.464 313.064 148.992 312.163 148.897 311.187C148.803 310.211 149.093 309.236 149.707 308.471C150.32 307.706 151.209 307.211 152.182 307.091L153.955 306.916C155.272 306.789 156.6 306.941 157.854 307.362C159.108 307.784 160.259 308.465 161.232 309.361C162.205 310.258 162.977 311.349 163.499 312.565C164.021 313.78 164.281 315.092 164.261 316.415L164.205 320.334L172.399 318.138C172.879 318.001 173.381 317.96 173.877 318.019C174.373 318.077 174.853 318.234 175.287 318.48C175.722 318.726 176.103 319.056 176.409 319.451C176.715 319.846 176.939 320.298 177.068 320.78C177.197 321.262 177.229 321.766 177.162 322.261C177.094 322.755 176.929 323.232 176.676 323.662C176.422 324.092 176.086 324.468 175.686 324.767C175.285 325.066 174.83 325.282 174.345 325.403L164.086 328.152L163.998 334.268C163.994 334.542 164.05 334.813 164.162 335.063C164.274 335.313 164.44 335.536 164.647 335.715C164.854 335.895 165.098 336.027 165.361 336.102C165.624 336.178 165.901 336.195 166.172 336.152L167.915 335.878C168.894 335.734 169.891 335.982 170.688 336.567C171.486 337.153 172.02 338.03 172.176 339.007C172.332 339.984 172.096 340.983 171.52 341.788C170.944 342.592 170.074 343.138 169.099 343.305L167.359 343.581C166.004 343.798 164.618 343.715 163.299 343.339C161.98 342.963 160.759 342.303 159.722 341.405C158.685 340.507 157.857 339.393 157.296 338.141C156.735 336.889 156.455 335.53 156.475 334.158L156.534 330.175L148.655 332.283C148.175 332.421 147.672 332.462 147.176 332.403C146.68 332.344 146.201 332.187 145.766 331.941C145.332 331.696 144.95 331.365 144.645 330.971C144.339 330.576 144.115 330.124 143.986 329.642C143.857 329.159 143.825 328.656 143.892 328.161C143.959 327.666 144.125 327.19 144.378 326.76C144.631 326.329 144.968 325.954 145.368 325.655C145.768 325.356 146.224 325.14 146.708 325.019L156.649 322.355L156.74 316.302L156.743 316.304ZM116.514 332.969C111.383 331.206 106.088 328.448 101.083 325.623C98.1064 328.725 96.9945 331.501 96.8312 333.717C96.6433 336.314 97.7129 338.847 100.006 341.065C104.747 345.64 114.071 348.1 122.997 345.072C123.467 344.905 123.965 344.833 124.463 344.859C124.961 344.886 125.448 345.012 125.897 345.229C126.346 345.446 126.747 345.75 127.077 346.124C127.407 346.497 127.66 346.933 127.82 347.405C127.981 347.877 128.046 348.376 128.012 348.873C127.977 349.371 127.845 349.856 127.621 350.302C127.397 350.747 127.087 351.144 126.709 351.469C126.331 351.793 125.892 352.04 125.417 352.193C114.084 356.042 101.738 353.191 94.7816 346.474C91.2301 343.042 88.949 338.434 89.3321 333.174C89.7113 327.952 92.6567 322.813 98.0636 318.126C105.356 311.814 112.373 309.273 118.348 308.619C122.782 308.138 127.267 308.629 131.492 310.058C137.414 312.031 141.306 316.263 141.949 321.281C142.6 326.382 139.727 331.146 134.528 333.442C128.82 335.957 122.424 335.001 116.514 332.969ZM129.114 317.193C125.918 316.108 122.523 315.734 119.168 316.097C115.825 316.464 111.805 317.635 107.371 320.508C111.359 322.68 115.265 324.588 118.96 325.852C124.231 327.667 128.38 327.934 131.492 326.561C134 325.451 134.668 323.661 134.488 322.237C134.292 320.734 132.974 318.479 129.114 317.193Z" fill="#B85D51"/>
</g>
</g>
<g filter="url(#filter2_d_410_3111)">
<circle cx="477.512" cy="268.777" r="98.4661" transform="rotate(30 477.512 268.777)" fill="#D4E2FC"/>
<circle cx="472.411" cy="272.15" r="43.7627" transform="rotate(30 472.411 272.15)" fill="#6A6A6A"/>
<circle cx="472.407" cy="272.147" r="25.5283" transform="rotate(30 472.407 272.147)" fill="#B8EEF5"/>
<rect x="492.87" y="220.796" width="15.9137" height="27.849" transform="rotate(30 492.87 220.796)" fill="#6A6A6A"/>
<rect x="452.091" y="291.427" width="15.9137" height="27.849" transform="rotate(30 452.091 291.427)" fill="#6A6A6A"/>
<rect x="523.19" y="250.305" width="15.9137" height="27.849" transform="rotate(75 523.19 250.305)" fill="#6A6A6A"/>
<rect x="444.41" y="271.414" width="15.9137" height="27.849" transform="rotate(75 444.41 271.414)" fill="#6A6A6A"/>
<rect x="523.761" y="292.608" width="15.9137" height="27.849" transform="rotate(120 523.761 292.608)" fill="#6A6A6A"/>
<rect x="453.128" y="251.829" width="15.9137" height="27.849" transform="rotate(120 453.128 251.829)" fill="#6A6A6A"/>
<rect x="494.253" y="322.926" width="15.9137" height="27.849" transform="rotate(165 494.253 322.926)" fill="#6A6A6A"/>
<rect x="473.144" y="244.148" width="15.9137" height="27.849" transform="rotate(165 473.144 244.148)" fill="#6A6A6A"/>
</g>
<g filter="url(#filter3_d_410_3111)">
<circle cx="245.114" cy="134.602" r="98.4661" transform="rotate(30 245.114 134.602)" fill="#D4E2FC"/>
<path d="M238.014 188.519L254.301 160.31L268.354 156.781L273.783 147.377M213.473 94.5355L236.534 107.849L242.48 97.5506L264.365 110.186L270.311 99.8871M199.004 122.311L231.932 141.322L264.158 135.813L281.253 106.204M191.634 129.128L219.844 145.414L223.373 159.467L223.226 158.883M203.364 108.81L231.574 125.097L245.508 121.126L244.929 121.291M222.779 72.2098C224.16 69.8184 227.218 68.999 229.609 70.3797L308.489 115.921C310.881 117.302 311.7 120.36 310.319 122.751L264.035 202.918C262.654 205.309 259.596 206.129 257.205 204.748L178.325 159.207C175.934 157.826 175.114 154.768 176.495 152.377L222.779 72.2098ZM231.668 169.778C234.131 165.512 232.67 160.058 228.404 157.595C224.138 155.132 218.683 156.593 216.22 160.859C213.757 165.125 215.219 170.58 219.485 173.043C223.751 175.506 229.205 174.044 231.668 169.778ZM258.586 123.156C256.123 127.421 250.668 128.883 246.402 126.42C242.137 123.957 240.675 118.502 243.138 114.237C245.601 109.971 251.056 108.509 255.321 110.972C259.587 113.435 261.049 118.89 258.586 123.156ZM269.036 137.772C266.573 142.037 268.034 147.492 272.3 149.955C276.566 152.418 282.021 150.956 284.484 146.691C286.947 142.425 285.485 136.97 281.219 134.507C276.953 132.044 271.499 133.506 269.036 137.772Z" stroke="#96B48B" stroke-width="6"/>
</g>
<g filter="url(#filter4_d_410_3111)">
<circle cx="599.303" cy="594.527" r="98.4661" transform="rotate(30 599.303 594.527)" fill="#D4E2FC"/>
<circle cx="600.538" cy="601.39" r="50.2047" transform="rotate(30 600.538 601.39)" fill="#FFF7CD"/>
<circle cx="594.413" cy="597.854" r="50.2047" transform="rotate(30 594.413 597.854)" fill="#F5CA60"/>
<path d="M576.527 620.055L605.618 569.668L608.846 571.532L579.755 621.919L576.527 620.055ZM604.578 591.243C605.337 589.564 605.373 587.941 604.687 586.372C604 584.804 602.634 583.429 600.587 582.247C599.196 581.444 597.908 580.962 596.723 580.803C595.545 580.631 594.503 580.738 593.598 581.125C592.705 581.519 592.009 582.149 591.509 583.015C591.066 583.722 590.853 584.439 590.871 585.166C590.901 585.901 591.098 586.636 591.461 587.371C591.832 588.092 592.321 588.82 592.929 589.556C593.544 590.279 594.234 590.992 595 591.697L598.121 594.653C599.652 596.062 600.963 597.519 602.054 599.023C603.145 600.528 603.952 602.07 604.475 603.649C604.997 605.228 605.179 606.838 605.02 608.478C604.873 610.125 604.322 611.792 603.365 613.48C601.928 615.939 600.063 617.714 597.771 618.805C595.5 619.891 592.908 620.258 589.997 619.907C587.106 619.55 584.021 618.424 580.74 616.53C577.486 614.652 574.94 612.517 573.101 610.125C571.276 607.742 570.252 605.182 570.029 602.447C569.827 599.706 570.53 596.867 572.139 593.929L580.386 598.69C579.697 600.095 579.433 601.447 579.592 602.746C579.773 604.04 580.308 605.25 581.197 606.376C582.107 607.496 583.297 608.48 584.767 609.329C586.21 610.162 587.585 610.676 588.89 610.87C590.208 611.071 591.379 610.968 592.401 610.561C593.423 610.154 594.215 609.465 594.775 608.494C595.298 607.589 595.468 606.672 595.287 605.745C595.118 604.825 594.647 603.853 593.873 602.829C593.113 601.813 592.1 600.703 590.835 599.501L587.082 595.864C584.161 593.076 582.224 590.234 581.271 587.339C580.318 584.445 580.707 581.512 582.44 578.541C583.836 576.093 585.717 574.335 588.082 573.269C590.46 572.21 593.1 571.836 596 572.146C598.9 572.455 601.82 573.459 604.759 575.156C607.751 576.883 610.067 578.902 611.707 581.214C613.359 583.533 614.283 585.964 614.476 588.508C614.67 591.051 614.093 593.535 612.746 595.959L604.578 591.243Z" fill="#FFF7CD"/>
</g>
<g filter="url(#filter5_d_410_3111)">
<circle cx="366.906" cy="460.352" r="98.4661" transform="rotate(30 366.906 460.352)" fill="#D4E2FC"/>
<rect x="345.924" y="440.008" width="15.748" height="55.1178" transform="rotate(30 345.924 440.008)" fill="#6A6A6A"/>
<rect x="382.916" y="423.18" width="15.748" height="88.1885" transform="rotate(30 382.916 423.18)" fill="#6A6A6A"/>
<rect x="394.709" y="449.988" width="15.748" height="74.0154" transform="rotate(30 394.709 449.988)" fill="#6A6A6A"/>
<rect x="345.15" y="394.099" width="13.6759" height="98.4661" transform="rotate(30 345.15 394.099)" fill="#E5CCCC"/>
<rect x="388.664" y="526.605" width="13.6759" height="103.936" transform="rotate(120 388.664 526.605)" fill="#E5CCCC"/>
</g>
<defs>
<filter id="filter0_d_410_3111" x="581.427" y="278.468" width="256.965" height="256.965" filterUnits="userSpaceOnUse" color-interpolation-filters="sRGB">
<feFlood flood-opacity="0" result="BackgroundImageFix"/>
<feColorMatrix in="SourceAlpha" type="matrix" values="0 0 0 0 0 0 0 0 0 0 0 0 0 0 0 0 0 0 127 0" result="hardAlpha"/>
<feOffset dy="4"/>
<feGaussianBlur stdDeviation="15"/>
<feComposite in2="hardAlpha" operator="out"/>
<feColorMatrix type="matrix" values="0 0 0 0 0.604653 0 0 0 0 0.604653 0 0 0 0 0.604653 0 0 0 0.25 0"/>
<feBlend mode="normal" in2="BackgroundImageFix" result="effect1_dropShadow_410_3111"/>
<feBlend mode="normal" in="SourceGraphic" in2="effect1_dropShadow_410_3111" result="shape"/>
</filter>
<filter id="filter1_d_410_3111" x="6.02686" y="201.696" width="256.965" height="256.965" filterUnits="userSpaceOnUse" color-interpolation-filters="sRGB">
<feFlood flood-opacity="0" result="BackgroundImageFix"/>
<feColorMatrix in="SourceAlpha" type="matrix" values="0 0 0 0 0 0 0 0 0 0 0 0 0 0 0 0 0 0 127 0" result="hardAlpha"/>
<feOffset dy="4"/>
<feGaussianBlur stdDeviation="15"/>
<feComposite in2="hardAlpha" operator="out"/>
<feColorMatrix type="matrix" values="0 0 0 0 0.604653 0 0 0 0 0.604653 0 0 0 0 0.604653 0 0 0 0.25 0"/>
<feBlend mode="normal" in2="BackgroundImageFix" result="effect1_dropShadow_410_3111"/>
<feBlend mode="normal" in="SourceGraphic" in2="effect1_dropShadow_410_3111" result="shape"/>
</filter>
<filter id="filter2_d_410_3111" x="349.03" y="144.295" width="256.965" height="256.965" filterUnits="userSpaceOnUse" color-interpolation-filters="sRGB">
<feFlood flood-opacity="0" result="BackgroundImageFix"/>
<feColorMatrix in="SourceAlpha" type="matrix" values="0 0 0 0 0 0 0 0 0 0 0 0 0 0 0 0 0 0 127 0" result="hardAlpha"/>
<feOffset dy="4"/>
<feGaussianBlur stdDeviation="15"/>
<feComposite in2="hardAlpha" operator="out"/>
<feColorMatrix type="matrix" values="0 0 0 0 0.604653 0 0 0 0 0.604653 0 0 0 0 0.604653 0 0 0 0.25 0"/>
<feBlend mode="normal" in2="BackgroundImageFix" result="effect1_dropShadow_410_3111"/>
<feBlend mode="normal" in="SourceGraphic" in2="effect1_dropShadow_410_3111" result="shape"/>
</filter>
<filter id="filter3_d_410_3111" x="116.632" y="10.1197" width="256.965" height="256.965" filterUnits="userSpaceOnUse" color-interpolation-filters="sRGB">
<feFlood flood-opacity="0" result="BackgroundImageFix"/>
<feColorMatrix in="SourceAlpha" type="matrix" values="0 0 0 0 0 0 0 0 0 0 0 0 0 0 0 0 0 0 127 0" result="hardAlpha"/>
<feOffset dy="4"/>
<feGaussianBlur stdDeviation="15"/>
<feComposite in2="hardAlpha" operator="out"/>
<feColorMatrix type="matrix" values="0 0 0 0 0.604653 0 0 0 0 0.604653 0 0 0 0 0.604653 0 0 0 0.25 0"/>
<feBlend mode="normal" in2="BackgroundImageFix" result="effect1_dropShadow_410_3111"/>
<feBlend mode="normal" in="SourceGraphic" in2="effect1_dropShadow_410_3111" result="shape"/>
</filter>
<filter id="filter4_d_410_3111" x="470.821" y="470.044" width="256.965" height="256.965" filterUnits="userSpaceOnUse" color-interpolation-filters="sRGB">
<feFlood flood-opacity="0" result="BackgroundImageFix"/>
<feColorMatrix in="SourceAlpha" type="matrix" values="0 0 0 0 0 0 0 0 0 0 0 0 0 0 0 0 0 0 127 0" result="hardAlpha"/>
<feOffset dy="4"/>
<feGaussianBlur stdDeviation="15"/>
<feComposite in2="hardAlpha" operator="out"/>
<feColorMatrix type="matrix" values="0 0 0 0 0.604653 0 0 0 0 0.604653 0 0 0 0 0.604653 0 0 0 0.25 0"/>
<feBlend mode="normal" in2="BackgroundImageFix" result="effect1_dropShadow_410_3111"/>
<feBlend mode="normal" in="SourceGraphic" in2="effect1_dropShadow_410_3111" result="shape"/>
</filter>
<filter id="filter5_d_410_3111" x="238.424" y="335.87" width="256.965" height="256.965" filterUnits="userSpaceOnUse" color-interpolation-filters="sRGB">
<feFlood flood-opacity="0" result="BackgroundImageFix"/>
<feColorMatrix in="SourceAlpha" type="matrix" values="0 0 0 0 0 0 0 0 0 0 0 0 0 0 0 0 0 0 127 0" result="hardAlpha"/>
<feOffset dy="4"/>
<feGaussianBlur stdDeviation="15"/>
<feComposite in2="hardAlpha" operator="out"/>
<feColorMatrix type="matrix" values="0 0 0 0 0.604653 0 0 0 0 0.604653 0 0 0 0 0.604653 0 0 0 0.25 0"/>
<feBlend mode="normal" in2="BackgroundImageFix" result="effect1_dropShadow_410_3111"/>
<feBlend mode="normal" in="SourceGraphic" in2="effect1_dropShadow_410_3111" result="shape"/>
</filter>
<clipPath id="clip0_410_3111">
<rect width="90.2606" height="90.2606" fill="white" transform="translate(115.754 271.134) rotate(30)"/>
</clipPath>
</defs>
</svg>
