<svg width="206" height="206" viewBox="0 0 206 206" fill="none" xmlns="http://www.w3.org/2000/svg">
<circle cx="103" cy="102" r="90" fill="#FFF7CD"/>
<rect x="54" y="103.898" width="20.6306" height="52.3314" fill="#9F705C"/>
<rect x="59.0322" y="123.522" width="11.0701" height="13.586" fill="white"/>
<rect x="59.0322" y="107.924" width="11.0701" height="13.586" fill="white"/>
<rect x="131.489" y="103.898" width="20.6306" height="52.3314" fill="#9F705C"/>
<rect x="136.521" y="123.522" width="11.0701" height="13.586" fill="white"/>
<rect x="136.521" y="107.924" width="11.0701" height="13.586" fill="white"/>
<rect x="74.1282" y="54.0828" width="57.3632" height="108.688" fill="#E8CA81"/>
<rect x="74.1282" y="54.0828" width="57.3632" height="5.53505" fill="#9F705C"/>
<rect x="80.1648" y="47.5413" width="45.2868" height="5.53505" fill="#9F705C"/>
<rect x="95.2612" y="41" width="15.0956" height="5.53505" fill="#9F705C"/>
<rect x="79.9128" y="64.6497" width="9.56054" height="18.1147" fill="white"/>
<rect x="91.9894" y="64.6497" width="9.56054" height="18.1147" fill="white"/>
<rect x="106.832" y="64.6497" width="4.02549" height="18.1147" fill="white"/>
<rect x="94.7557" y="110.943" width="4.02549" height="18.1147" fill="white"/>
<rect x="116.142" y="64.6497" width="9.56054" height="18.1147" fill="white"/>
<rect x="79.9128" y="87.7964" width="9.56054" height="18.1147" fill="white"/>
<rect x="91.9894" y="87.7964" width="9.56054" height="18.1147" fill="white"/>
<rect x="104.066" y="87.7964" width="9.56054" height="18.1147" fill="white"/>
<rect x="116.142" y="87.7964" width="9.56054" height="18.1147" fill="white"/>
<rect x="79.9128" y="110.943" width="9.56054" height="18.1147" fill="white"/>
<rect x="104.066" y="110.943" width="9.56054" height="18.1147" fill="white"/>
<rect x="116.142" y="110.943" width="9.56054" height="18.1147" fill="white"/>
<rect x="74.1282" y="134.089" width="57.3632" height="5.53505" fill="#9F705C"/>
<rect x="92.2413" y="141.134" width="10.5669" height="21.637" fill="white"/>
<rect x="103.31" y="141.134" width="10.5669" height="21.637" fill="white"/>
<rect x="91.2336" y="141.134" width="23.6498" height="3.01912" fill="#9F705C"/>
<rect x="91.2336" y="161.765" width="23.6498" height="3.01912" fill="#9F705C"/>
<circle cx="103" cy="103" r="94.5" stroke="#F5CA60" stroke-width="17"/>
</svg>
